<?xml version="1.0" encoding="utf-8"?>
<!-- Generator: Adobe Illustrator 23.0.4, SVG Export Plug-In . SVG Version: 6.00 Build 0)  -->
<svg version="1.1" id="Layer_1" xmlns="http://www.w3.org/2000/svg" xmlns:xlink="http://www.w3.org/1999/xlink" x="0px" y="0px"
	 viewBox="0 0 30 30" style="enable-background:new 0 0 30 30;" xml:space="preserve">
<style type="text/css">
	.st0{fill:#5172A9;}
</style>
<g id="_x23_3a73b8ff_3_">
	<path class="st0" d="M13.9,0c3-0.2,6,0.5,8.5,1.9c2.1,1.2,3.8,2.9,5.1,4.8c1.6,2.4,2.4,5.4,2.4,8.3c0,3-1,6.1-2.8,8.6
		c-1.8,2.5-4.4,4.5-7.4,5.5c-2.6,0.9-5.5,1-8.2,0.4c-2.8-0.6-5.5-2.1-7.5-4.2c-2.1-2.2-3.6-5.1-4-8.1c-0.4-2.7-0.1-5.5,1-8.1
		c1-2.4,2.6-4.4,4.6-6C8.1,1.4,10.9,0.2,13.9,0 M13.9,0.8c-1.8,0.1-3.5,0.6-5.1,1.4C6.3,3.3,4.1,5.3,2.7,7.8
		c-2.1,3.5-2.5,8-1.1,11.9c0.9,2.5,2.5,4.8,4.6,6.4c2.4,1.9,5.5,3,8.6,3.1c2.3,0,4.6-0.5,6.6-1.5c2.6-1.3,4.8-3.4,6.1-5.9
		c1.4-2.5,2-5.4,1.7-8.3c-0.4-4.6-3.3-8.9-7.4-11.1C19.4,1.1,16.6,0.5,13.9,0.8z"/>
	<path class="st0" d="M11.4,2.1c2.5-0.7,5.2-0.7,7.6,0.1c0.1,0,0.2,0.1,0.3,0.2c-0.4,0-0.8-0.2-1.2-0.3c-1-0.2-2-0.3-3.1-0.1
		c-0.6,0.1-1.3,0.4-1.7,0.9c-0.3,0.4-0.3,1,0,1.4c0.4,0.4,1.1,0.4,1.5,0.1c0.5-0.4,1-0.8,1.7-1c1.3-0.3,2.7-0.1,3.9,0.3
		c1.5,0.4,3,1.2,4.1,2.2c1.9,1.7,3.1,4.2,3.5,6.7c0.4,2.2,0.3,4.4-0.4,6.5c0,0.1-0.1,0.2-0.2,0.2c0.4-1.4,0.7-2.9,0.4-4.4
		c-0.2-0.7-0.5-1.5-1.2-1.7c-0.6-0.2-1.3,0.2-1.3,0.8c-0.1,0.7,0.4,1.1,0.8,1.6c0.7,1,0.6,2.4,0.5,3.6c-0.3,1.6-0.9,3.2-1.9,4.6
		c-1.5,2.2-3.9,3.6-6.5,4.2c-2.2,0.5-4.6,0.5-6.8,0c-0.3-0.1-0.6-0.1-0.8-0.3c0.4,0,0.8,0.2,1.2,0.2c1.1,0.2,2.3,0.3,3.4,0
		c0.5-0.1,1-0.4,1.3-0.8c0.3-0.4,0.3-1-0.1-1.4c-0.3-0.3-0.8-0.4-1.2-0.2c-0.5,0.3-0.8,0.7-1.3,0.9c-1,0.5-2.1,0.4-3.2,0.2
		c-1.7-0.3-3.5-1-4.9-2.1c-1.9-1.4-3.2-3.5-3.8-5.8c-0.7-2.4-0.7-4.9-0.1-7.3c0.1-0.2,0.1-0.6,0.3-0.8c-0.4,1.4-0.6,2.8-0.4,4.2
		c0.1,0.6,0.3,1.3,0.8,1.7c0.4,0.3,0.9,0.4,1.3,0.1c0.4-0.2,0.6-0.8,0.4-1.3c-0.2-0.5-0.6-0.8-0.9-1.3c-0.5-0.9-0.5-2.1-0.3-3.1
		c0.3-1.7,0.9-3.3,1.8-4.7C6.6,4.2,8.9,2.8,11.4,2.1 M11.7,7.2c-0.8,0.4-1.4,1.2-1.8,2c-0.4,0.8-0.6,1.8-0.7,2.7
		c-0.4-0.1-0.7-0.4-0.8-0.8c-0.2-0.6,0-1.2,0.1-1.7c0-0.2-0.1-0.3-0.1-0.4C8,8.9,7.7,9.1,7.5,9.4c-0.5,0.9-0.4,2,0.2,2.8
		c0.4,0.5,0.9,0.7,1.5,0.8c0.2,0.6,0.6,1.2,1.2,1.4c0.7,0.3,1.6,0,2.2-0.4c0,0.2,0,0.5-0.1,0.7c-0.2,0.2-0.5,0.3-0.8,0.4
		c-1.3,0.7-2.5,1.3-3.6,2.3c-0.8,0.7-1.4,1.7-1.5,2.7c-0.1,0.8,0.3,1.8,1,2.2c0.8,0.5,1.8,0.5,2.6,0.2c1.1-0.4,1.8-1.3,2.4-2.3
		c0.8-1.4,0.9-3,1-4.5c0-0.2,0-0.4,0.2-0.5c1.3-0.7,2.5-1.5,3.6-2.3c0.1,0.2,0.3,0.3,0.4,0.5c-0.6,0.4-1.2,0.7-1.6,1.3
		c-1.7,1.8-1.7,5,0.1,6.8c0.9,1,2.3,1.4,3.6,1.2c1.2-0.2,2.3-0.9,2.9-1.9c0.8-1.3,0.7-3.2-0.4-4.3c-1-1.1-2.9-1-3.8,0
		c-0.7,0.8-0.8,2.2,0,2.9c0.3,0.3,0.9,0.5,1.3,0.2c0.3-0.2,0.2-0.6,0-0.8c-0.3-0.3-0.6-0.7-0.5-1.1c0.1-0.6,0.7-0.9,1.3-0.8
		c0.5,0.1,0.8,0.4,1,0.9c0.4,1,0.2,2.2-0.6,3c-0.8,0.8-2.1,0.9-3.1,0.3c-0.8-0.5-1.3-1.5-1.5-2.4c-0.2-1.1,0.1-2.4,0.8-3.3
		c0.5-0.6,1.1-1.1,1.8-1.3c0.6,0,1.3,0.2,1.9,0c0.3-0.1,0.6-0.4,0.4-0.7c-0.2-0.3-0.5-0.4-0.9-0.5c-0.5-0.1-1,0-1.4,0.1
		c-0.3-0.1-0.5-0.5-0.6-0.8c0.9-0.7,1.8-1.4,2.4-2.4c0.4-0.6,0.6-1.3,0.4-2c-0.1-0.5-0.5-0.8-1-0.9c-0.8-0.2-1.6,0.2-2.1,0.8
		c-0.9,0.9-1.3,2.2-1.3,3.5c0,0.3,0.1,0.5,0,0.8c-0.6,0.5-1.4,0.9-2.1,1.4c-0.4,0.2-0.8,0.5-1.2,0.7c0-0.4,0-0.8,0.1-1.2
		c0.3-0.4,0.7-0.8,0.9-1.2c0.2-0.3,0.3-0.7,0.2-1.1c-0.2-0.3-0.5-0.2-0.8-0.1c-0.5,0.3-0.8,0.8-1,1.3c-0.1,0.3-0.2,0.7-0.5,1
		c-0.4,0.4-1,0.8-1.5,0.7c-0.3,0-0.6-0.3-0.6-0.6c0.9-0.4,1.7-1.1,2.4-1.8c0.6-0.8,1.1-1.7,1.1-2.6c0-0.5-0.1-1-0.6-1.3
		C13,6.8,12.3,6.9,11.7,7.2z"/>
	<path class="st0" d="M12.2,8.1c0.2-0.2,0.6-0.1,0.7,0.2c0.1,0.3,0,0.7-0.2,1c-0.4,0.8-1,1.5-1.7,2.1c-0.2,0.2-0.4,0.3-0.6,0.4
		c0-0.7,0.3-1.4,0.6-2.1C11.4,9,11.7,8.4,12.2,8.1z"/>
	<path class="st0" d="M19.3,8.3c0.2-0.2,0.5-0.4,0.8-0.3c0.3,0.2,0.2,0.6,0,0.9c-0.4,0.8-1.1,1.5-1.8,2.1
		C18.3,10.1,18.7,9.1,19.3,8.3z"/>
	<path class="st0" d="M9.6,17.9c0.8-0.7,1.8-1.3,2.8-1.8c-0.1,1.1-0.4,2.2-0.8,3.2c-0.4,0.8-0.9,1.7-1.8,2c-0.5,0.2-1.1,0.3-1.5-0.1
		c-0.4-0.3-0.4-0.9-0.2-1.3C8.4,19.1,9,18.4,9.6,17.9z"/>
</g>
</svg>
