<?xml version="1.0" encoding="utf-8"?>
<!-- Generator: Adobe Illustrator 23.0.6, SVG Export Plug-In . SVG Version: 6.00 Build 0)  -->
<svg version="1.1" id="Layer_1" xmlns="http://www.w3.org/2000/svg" xmlns:xlink="http://www.w3.org/1999/xlink" x="0px" y="0px"
	 viewBox="0 0 47.6 47.6" style="enable-background:new 0 0 47.6 47.6;" xml:space="preserve">
<g>
	<path d="M23.8,47.6C10.7,47.6,0,36.9,0,23.8S10.7,0,23.8,0s23.8,10.7,23.8,23.8S36.9,47.6,23.8,47.6 M23.8,0.9
		C11.2,0.9,0.9,11.2,0.9,23.8s10.3,22.9,22.9,22.9s22.9-10.3,22.9-22.9S36.4,0.9,23.8,0.9"/>
</g>
<g>
	<g>
		<path d="M19.7,18c0,4.8,3.9,8.6,8.6,8.6S37,22.7,37,18s-3.9-8.6-8.6-8.6C23.6,9.3,19.7,13.2,19.7,18z M27.7,10.8
			c0.4,0,0.8,0,1.2,0c-0.3,0.1-0.6,0.1-0.9,0.3c-0.1,0.1-0.2,0-0.3,0C27.5,10.9,27.7,10.8,27.7,10.8z M23.4,11.6
			c0.9-0.7,2-1.2,3.1-1.5c0.2,0,0.3,0,0.5,0c0,0,0,0,0,0c0,0.1-0.1,0.1-0.2,0.1c-0.1,0.1-0.5,0.1-0.3,0.4c0.1,0.1,0.2,0.1,0.2,0.2
			c0,0,0,0.1,0.1,0.1c0,0,0,0.1,0,0.1c-0.1,0.2-0.3,0.1-0.5,0c0,0,0,0,0,0c-0.2,0-0.3,0-0.4,0.2c0,0,0,0.1,0,0.2
			c0,0.1-0.3,0.2-0.4,0.2c-0.6,0.1-1,0.4-1.4,0.8c0,0-0.1,0.1-0.1,0.2c-0.4,0.2-0.7,0.5-0.9,0.8c0,0,0,0-0.1,0c0,0-0.1,0-0.1,0l0,0
			c-0.1,0-0.1,0-0.2,0c-0.3,0.1-0.5,0.4-0.8,0.6l0,0c0,0.2-0.3,0.4-0.2,0.6c0,0-0.1,0.1-0.1,0.1c0,0,0.1-0.1,0.1-0.1
			c0.1,0,0.2-0.1,0.3-0.2c0-0.1,0.1-0.1,0.2-0.1c0,0,0.1,0,0.1,0.1c0,0,0.1,0.1,0.1,0.1c-0.1,0.3-0.1,0.6,0,0.9c0,0.1,0,0.3-0.1,0.4
			c0.2,0.1,0.5,0,0.7-0.1c0.1-0.1,0.1-0.1,0.2-0.2c0.2-0.2,0.5-0.2,0.7-0.1c0.2,0.1,0.4,0.1,0.6,0.1c0.2-0.1,0.3,0,0.3,0.3
			c0,0.2,0.1,0.4,0.2,0.5c0.3,0.2,0.7,0.4,1.1,0.3c0.2-0.1,0.4,0,0.4,0.2c0,0.3,0.2,0.3,0.4,0.3c0.1,0,0.2,0,0.4,0.1
			c0.2,0.1,0.4,0.2,0.6,0.2c0.3,0.1,0.5,0.2,0.8,0.3c0.2,0.1,0.2,0.3,0.3,0.5c0,0.3-0.2,0.5-0.3,0.6c-0.2,0.2-0.3,0.4-0.3,0.7
			c-0.1,0.5-0.2,1-0.8,1.2c-0.4,0.1-0.6,0.3-0.6,0.7c-0.1,0.4-0.3,0.7-0.7,0.9c-0.1,0.1-0.1,0.1-0.1,0.2c0,0.2-0.1,0.2-0.2,0.3
			c-0.2,0.1-0.1,0.4-0.3,0.5c-0.2,0.2,0,0.3,0,0.5c0,0.3,0.1,0.5,0.4,0.7c0.1,0,0,0.1,0,0.1c0,0-0.1,0-0.1,0c0,0-0.1,0-0.2,0
			c-0.2,0-0.3-0.1-0.4-0.2c-0.2-0.1-0.3-0.3-0.4-0.5c-0.3-0.4-0.5-0.9-0.6-1.3c0-0.1,0-0.3,0-0.5c-0.1-0.3-0.2-0.7-0.2-1
			c0-0.3-0.1-0.5-0.1-0.7c-0.1-0.3-0.3-0.6-0.6-0.8c-0.3-0.1-0.3-0.4-0.5-0.6c-0.2-0.3-0.3-0.7-0.4-1c-0.2-0.6,0-0.9,0.3-1.3
			c0.2-0.4,0.1-0.5-0.3-0.6C22,16,22,15.8,22,15.5c-0.1,0-0.2-0.1-0.3-0.1c0,0-0.1,0-0.1,0c-0.2-0.1-0.5-0.2-0.5-0.5
			c0,0,0-0.1,0-0.1C21.5,13.4,22.3,12.5,23.4,11.6z M24.5,14.8c-0.1,0.1-0.2,0.2-0.3,0.1c-0.1-0.1-0.1-0.2-0.3-0.1
			c-0.3,0-0.5-0.2-0.8-0.3c0.3-0.2,0.5-0.1,0.7,0.1c0.1,0.1,0.1,0.2,0.3,0.1c0.1,0,0.2-0.1,0.3,0C24.4,14.6,24.6,14.7,24.5,14.8z
			 M29.1,25.9c-0.1,0-0.2,0-0.3,0c-0.7,0.1-1.3,0-2-0.1c-0.3,0-0.6-0.1-0.8-0.2c0,0-0.1-0.1-0.1-0.1c-0.1-0.1-0.2,0-0.3,0
			c0,0,0,0-0.1,0c0,0,0,0,0,0c0-0.1,0-0.2,0.1-0.2c0.2,0,0.4,0.1,0.5,0.2c0.2,0.1,0.4,0.2,0.4-0.2c0-0.1,0.1-0.3,0.2-0.1
			c0.2,0.4,0.6,0.3,1,0.5c0,0,0.1,0,0.1,0c0.5,0.1,1-0.2,1.5-0.3c0.4,0,0.8-0.1,1.2,0.2c0,0-0.1,0-0.1,0
			C30,25.9,29.6,25.8,29.1,25.9z M30.6,10.2c0.1,0,0.1,0.1,0.1,0.1c0,0,0,0,0,0.1c0,0,0.1,0,0.1,0c0.3,0,0.5,0.1,0.7,0.2
			c1,0.5,1.9,1,2.6,1.8c0.1,0.1,0.2,0.2,0.2,0.4c0,0,0,0.1,0,0.1c0,0-0.1,0-0.1-0.1c-0.2,0-0.4-0.2-0.6-0.3l0,0
			c-0.1,0-0.2-0.1-0.2,0.1c0,0.1-0.1,0.2,0,0.2c0.2,0,0.3,0.1,0.5,0.3c0.1,0.1,0.3,0.1,0.3-0.1c0.1,0,0.1,0.1,0.2,0.1
			c0.5,0.4,0.8,1,1,1.6c0.3,0.6,0.5,1.3,0.6,2c0.1,0.6,0.1,1.2,0.1,1.8c0,0.9-0.3,1.8-0.6,2.6c0,0,0,0,0,0c-0.3,0.2-0.4,0.5-0.6,0.8
			c-0.2,0.1-0.2,0.4-0.4,0.4c-0.2,0-0.3,0.1-0.5,0.1c-0.1,0-0.2,0-0.2,0c0,0,0,0,0,0c0.4-0.5,0.2-1.1,0.5-1.7c0.1-0.2,0-0.5,0-0.8
			c0-0.1-0.1-0.3,0.2-0.3c0-0.2-0.1-0.4,0.2-0.5c0-0.1,0-0.1,0-0.2c-0.2,0-0.2-0.2-0.2-0.2c0.2-0.2,0.1-0.4,0.1-0.7
			c-0.2-0.1-0.2-0.3-0.3-0.5c0-0.1,0-0.2,0.1-0.2c0-0.2,0-0.3,0-0.5c-0.2-0.2-0.5-0.2-0.6-0.5c0-0.1-0.2-0.1-0.3-0.1
			c-0.3,0.2-0.6,0.1-0.9,0.1c-0.4,0.1-0.6-0.3-0.9-0.5c-0.2-0.4-0.7-0.6-0.8-1c-0.1-0.2,0.2-0.4,0.1-0.6c-0.1-0.1-0.2-0.2-0.3-0.3
			c0-0.2,0-0.4,0.2-0.5c0-0.1,0-0.1,0-0.2c0,0,0.1,0,0.1,0c0,0,0.1-0.1,0.2-0.1c0.1-0.1,0.2-0.2,0.1-0.4c0-0.1-0.1-0.2,0.1-0.2
			c0-0.1,0.1-0.1,0.2-0.1c-0.1-0.2-0.4,0-0.4-0.3c-0.3-0.2-0.3-0.4-0.1-0.6c0.1,0.1,0.2,0.2,0.2,0.2c0-0.1-0.1-0.2-0.2-0.2
			c0,0,0,0,0-0.1c0,0,0.1-0.1,0.1-0.1c0.1-0.1,0.1-0.2,0-0.3c-0.2,0.1-0.3,0.1-0.5,0C30.9,11,30.8,11,30.8,11
			c-0.3,0.1-0.3-0.1-0.2-0.3c0-0.1,0-0.2,0.1-0.3c-0.4,0-0.8-0.2-1.2-0.2c0,0-0.1-0.1-0.1-0.2c0,0,0,0,0-0.1
			C29.7,10,30.1,10.2,30.6,10.2z"/>
		<path d="M32.8,32.5c-1.3,1-3.4,1.4-4.8,1.7c-1.2,0.3-4.3-0.1-5.1-1.2c-1.2-1.7,3.7-0.5,4.3-0.5c0.7,0.1,1.5,0.2,1.9-0.5
			c0.7-1.2-0.8-2.3-1.7-2.5c-1.5-0.3-3.2-0.2-4.6-1.1c-1.9-1.3-4.6-1.6-6.2-0.7c-1.6,0.8-1.9,1-3.3,1.4c0.5,2.3,0.9,4.7,1.5,7.1
			c3.4-0.7,7.6,1.2,10.3,1.9c2.8,0.6,4.9-1,6.9-1.4s7.8-4.7,5.9-5.8C36,29.6,34.1,31.5,32.8,32.5z"/>
		<polygon points="14,36.4 12.4,29.4 9.4,30.1 11,37.1 		"/>
	</g>
</g>
</svg>
