<?xml version="1.0" encoding="utf-8"?>
<!-- Generator: Adobe Illustrator 23.0.4, SVG Export Plug-In . SVG Version: 6.00 Build 0)  -->
<svg version="1.1" id="Layer_1" xmlns="http://www.w3.org/2000/svg" xmlns:xlink="http://www.w3.org/1999/xlink" x="0px" y="0px"
	 viewBox="0 0 63.8 18.8" style="enable-background:new 0 0 63.8 18.8;" xml:space="preserve">
<style type="text/css">
	.st0{fill:#4C804A;}
</style>
<g>
	<path class="st0" d="M7.3,2.7C5.8,2.1,4.9,1.8,4.1,1.8c-0.9,0-1.5,0.3-1.5,0.8c0,1.5,5.1,1.1,5.1,4.6c0,1.9-1.6,3.1-3.9,3.1
		c-1.8,0-2.6-0.5-3.6-1V7.2c1.4,1,2.3,1.3,3.4,1.3c1,0,1.5-0.3,1.5-0.9c0-1.6-5.1-1-5.1-4.6C0,1.2,1.5,0,3.8,0C5,0,6,0.2,7.3,0.8"/>
	<path class="st0" d="M14.4,9.8c-0.9,0.3-1.6,0.5-2.3,0.5c-2.4,0-3.9-1.4-3.9-3.5c0-2.1,1.6-3.5,3.8-3.5c0.7,0,1.6,0.2,2.3,0.4v1.6
		c-0.6-0.3-1.2-0.5-1.7-0.5c-1.3,0-2.1,0.8-2.1,2c0,1.2,0.8,2,2,2c0.5,0,1-0.1,1.9-0.5"/>
	<path class="st0" d="M34.4,3.2c-2.1,0-3.6,1.5-3.6,3.6c0,2.1,1.6,3.5,3.9,3.5c0.5,0,1.8,0,3-0.9V8.1c-1,0.7-1.7,1-2.5,1
		c-1.3,0-2.2-0.7-2.2-1.9h4.9C38,4.7,36.4,3.2,34.4,3.2 M33.1,6c0.1-0.9,0.6-1.5,1.5-1.5c0.8,0,1.4,0.6,1.5,1.5H33.1z"/>
	<rect x="38.7" y="3.4" class="st0" width="2.1" height="6.8"/>
	<path class="st0" d="M46.8,0.1v3.5c-0.6-0.3-1.2-0.4-1.8-0.4c-1.9,0-3.3,1.4-3.3,3.5c0,2,1.3,3.5,3.2,3.5c0.7,0,1.3-0.2,1.9-0.7
		v0.5H49V0.1 M46.8,8.3c-0.4,0.4-0.8,0.6-1.3,0.6c-1,0-1.6-0.8-1.6-2.1c0-1.4,0.6-2.1,1.7-2.1c0.4,0,0.9,0.2,1.2,0.4V8.3z"/>
	<path class="st0" d="M53.4,3.2c-2.1,0-3.6,1.5-3.6,3.6c0,2.1,1.6,3.5,3.9,3.5c0.5,0,1.8,0,3-0.9V8.1c-1,0.7-1.7,1-2.5,1
		c-1.3,0-2.2-0.7-2.2-1.9H57C57.1,4.7,55.4,3.2,53.4,3.2 M52.1,6c0.1-0.9,0.6-1.5,1.5-1.5c0.8,0,1.4,0.6,1.5,1.5H52.1z"/>
	<path class="st0" d="M60.2,5.3L60.2,5.3c0.7-1.4,1.4-2.1,2.2-2.1c0.4,0,0.8,0.2,1.4,0.6l-0.6,1.9c-0.6-0.4-0.9-0.5-1.3-0.5
		c-0.8,0-1.3,0.7-1.8,2v2.9H58V3.4h2.1"/>
	<path class="st0" d="M41,0.5c0.2,0.5-0.2,1.3-0.8,1.6c-0.6,0.4-1.3,0.3-1.5-0.3c-0.2-0.5,0.2-1.3,0.8-1.6C40.1-0.1,40.8,0,41,0.5"
		/>
	<path class="st0" d="M22.1,5.8c0-1.8-1.3-2.6-2.5-2.6c-0.8,0-1.5,0.4-2.2,1.1h0V0.1h-2.1v10h2.1V5.8c0.5-0.7,0.9-1,1.4-1
		c0.7,0,1.1,0.5,1.1,1.5v2.4c0.7-0.4,1.4-0.6,2.1-0.7"/>
	<path class="st0" d="M27.5,3.2c-0.9,0-1.5,0.3-2.2,1.1v-1h-2.1V8c0.7,0.1,1.7,0.4,2.1,1V5.8c0.6-0.8,1-1.1,1.5-1.1
		c0.6,0,1.1,0.4,1.1,1.4v4.1H30V5.9C30,3.8,28.6,3.2,27.5,3.2"/>
	<polyline class="st0" points="31.2,12.1 28.7,12.1 28.7,13.9 31.1,13.9 31.1,14.6 28.7,14.6 28.7,16.5 31.2,16.5 31.2,17.2 
		27.8,17.2 27.8,11.4 31.2,11.4 	"/>
	<rect x="33.2" y="11.4" class="st0" width="0.8" height="5.9"/>
	<path class="st0" d="M36.7,15.4h2.7c0-1.4-0.7-2.1-1.7-2.1c-1.1,0-1.8,0.8-1.8,2c0,1.1,0.7,2.1,1.9,2.1c0.7,0,1.1-0.1,1.5-0.5v-0.7
		c-0.5,0.3-0.9,0.5-1.3,0.5C37.2,16.6,36.8,16.2,36.7,15.4 M37.7,13.9c0.5,0,0.9,0.4,0.9,1h-1.9C36.8,14.3,37.1,13.9,37.7,13.9z"/>
	<path class="st0" d="M44.3,14.4c-0.4-0.3-0.7-0.4-1.1-0.4c-0.7,0-1.2,0.5-1.2,1.3c0,0.8,0.5,1.3,1.3,1.3c0.3,0,0.6-0.1,1-0.3v0.8
		c-0.3,0.1-0.7,0.2-1.1,0.2c-1.2,0-2-0.8-2-1.9c0-1.3,0.7-2.1,1.9-2.1c0.4,0,0.7,0.1,1.1,0.3"/>
	<path class="st0" d="M47.8,13.4H49V14h-1.2v2c0,0.5,0.3,0.6,0.5,0.6c0.3,0,0.6-0.1,0.9-0.3V17c-0.3,0.1-0.7,0.3-0.9,0.3
		c-0.8,0-1.2-0.5-1.2-1.2v-2h-0.7V14l1.4-1.4"/>
	<path class="st0" d="M51.9,13.4v0.9h0c0.4-0.7,0.8-1,1.1-1c0.3,0,0.6,0.1,0.9,0.4l-0.4,0.7C53.3,14.2,53,14,52.9,14
		c-0.5,0-0.9,0.5-0.9,1.2v2h-0.8v-3.9"/>
	<path class="st0" d="M61.8,14.4C61.3,14.1,61,14,60.7,14c-0.7,0-1.2,0.5-1.2,1.3c0,0.8,0.5,1.3,1.3,1.3c0.3,0,0.6-0.1,1-0.3v0.8
		c-0.3,0.1-0.8,0.2-1.2,0.2c-1.1,0-2-0.8-2-1.9c0-1.3,0.7-2.1,1.9-2.1c0.4,0,0.7,0.1,1.1,0.3"/>
	<rect x="56" y="13.4" class="st0" width="0.8" height="3.9"/>
	<path class="st0" d="M56.8,12c0.1,0.2-0.1,0.5-0.3,0.6c-0.2,0.1-0.5,0.1-0.5-0.1c-0.1-0.2,0.1-0.5,0.3-0.6
		C56.5,11.7,56.7,11.8,56.8,12"/>
	<path class="st0" d="M23.2,13.9l0.2-0.8h2.1c0.3-1.2,0.1-2.3-0.7-3.1c-1.5-1.5-4.6-1-6.9,1.2c-0.4,0.3-0.7,0.7-0.9,1.1h1.3
		l-0.3,0.8h-1.5c-0.1,0.3-0.3,0.5-0.4,0.8h1.8l-0.3,0.8h-1.8c-0.3,1.3-0.1,2.5,0.6,3.2c1.5,1.5,4.6,1,6.9-1.3c0.4-0.4,0.7-0.8,1-1.2
		h-1.6l0.2-0.8h1.9c0.1-0.3,0.3-0.5,0.4-0.8 M22.7,12.3c-0.1,0-0.2,0-0.2,0.1c0,0,0,0,0,0.1L21.8,15c-0.2,0.9-1.3,1.8-2.7,1.8h-2
		l0.4-1.3h1.3c0.1,0,0.2,0,0.3-0.1c0,0,0.1-0.1,0.1-0.2l0.5-2.3c0.2-0.9,1.1-1.9,2.6-1.9h2.1L24,12.3H22.7z"/>
</g>
</svg>
