<svg id="sse__logo" role="img" aria-label="SSE Logo" xmlns="http://www.w3.org/2000/svg" viewBox="0 0 354 167"><defs><linearGradient id="sse__logo--gradient" x1="161.3" y1="99" x2="161.8" y2="99" gradientTransform="matrix(226 0 0 -333 -36445 33039.8)" gradientUnits="userSpaceOnUse"><stop offset="0" stop-color="#b1d78a"/><stop offset=".6" stop-color="#7dc242"/><stop offset="1" stop-color="#1A8208"/></linearGradient><linearGradient id="sse__logo--gradient-2" x1="161.2" y1="99" x2="161.7" y2="99" gradientTransform="matrix(225.3 0 0 -332.79 -36291.3 33018.8)" gradientUnits="userSpaceOnUse"><stop offset="0" stop-color="#002961"/><stop offset=".5" stop-color="#194a88"/><stop offset="1" stop-color="#5f8ac7"/></linearGradient></defs><g id="sse__logo--mono"><path d="M6.4 101.5A43 43 0 0 1 21 68a136 136 0 0 1 32.4-20.1C71 39.2 87.3 31.1 87.3 15a7 7 0 0 0-.9-3.3c3.6 1.4 26.3 10.7 26.3 29.3 0 39.2-92.7 46.3-92.7 85.5a28.8 28.8 0 0 0 3.6 14 50.3 50.3 0 0 1-17.2-39m126.4-35.4c0-49.7-52-62.8-67.2-65.5-.4-.1-.8-.1-.8 0l.7.3C71.2 2.6 81 6.7 81 15c-.1 29.3-81 28.2-81 86.5 0 49.6 52 62.7 67.2 65.4.8.2 1.3 0 0-.3-5.7-1.7-15.3-5.7-15.3-14.1 0-29.2 80.9-28.2 80.9-86.4M172.6 65.2c0-6.6 5.7-9.8 13-9.8s12.5 2.7 15.8 4.4c2.6 1.5 5 1.1 6.7-1.7l1.4-2.2c1.6-2.8 1.1-5-1.7-6.8a39 39 0 0 0-21.4-6c-15.2 0-28 7.7-28 22.4 0 26.2 40 21.2 40 36.3 0 6.6-5.6 10.3-13.3 10.3-9 0-15.4-4-19-6.3-2.6-1.7-5-1.6-7 1.1l-1.5 2.1c-1.8 2.6-1.5 5 1 7a43.5 43.5 0 0 0 26 8.4c16.8 0 28-9.7 28-22.9 0-26.3-40-20.8-40-36.3M236.6 65.2c0-6.6 5.6-9.8 13-9.8s12.5 2.7 15.8 4.4c2.6 1.5 5 1.1 6.7-1.7l1.4-2.2c1.6-2.8 1.1-5-1.7-6.8a39 39 0 0 0-21.4-6c-15.2 0-28 7.7-28 22.4 0 26.2 40 21.2 40 36.3 0 6.6-5.6 10.3-13.3 10.3-9 0-15.4-4-19-6.3-2.6-1.7-5-1.6-7 1.1l-1.5 2.1c-1.8 2.6-1.5 5 1 7a43.5 43.5 0 0 0 26 8.4c16.8 0 28-9.7 28-22.9 0-26.3-40-20.8-40-36.3M321.3 43.1c-21.1 0-36.8 16-36.8 40.6 0 23 16 40.7 39.3 40.7a43 43 0 0 0 25-8.3c2.6-1.9 3-4.1 1.5-6.8L349 107c-1.5-2.6-4.4-3.4-6.6-1.6a29.5 29.5 0 0 1-17.8 6.1c-12.8 0-25.2-8-26.4-24.8h50.2c2.6 0 4.9-1.3 5.4-3.8v-.1a4.2 4.2 0 0 0 .1-1c0-21-11-38.7-32.6-38.7zm-22.7 32.4a22 22 0 0 1 22.3-20.7c13.8 0 20 12.2 20 20.7z" fill="#fff"/></g><g id="sse__logo--colour"><path d="M48.6 98.7h64.5v-75l-22.5-15-15-5.5L65 .6l.7.4C71.4 2.7 81 6.7 81 15 81 44.4 0 43.4 0 101.6c0 49.7 52.1 62.7 67.4 65.5l.7-.1-19.5-6.8z" fill="url(#sse__logo--gradient)"/><path d="M132.9 66C132.9 16.5 81 3.4 65.7.7a1.8 1.8 0 0 0-.8 0C76.1 3 112.7 13.4 112.7 41c0 39.1-92.4 46.1-92.4 85.3 0 27.6 36.6 38 47.8 40.5 0 0-.1-.3-.7-.4-5.7-1.7-15.4-5.8-15.4-14.1 0-29.2 80.9-28.2 80.9-86.4z" fill="url(#sse__logo--gradient-2)"/><path d="M172.6 65.2c0-6.6 5.7-9.8 13-9.8s12.5 2.7 15.8 4.4c2.6 1.5 5 1.1 6.7-1.7l1.4-2.2c1.6-2.8 1.1-5-1.7-6.8a39 39 0 0 0-21.4-6c-15.2 0-28 7.7-28 22.4 0 26.2 40 21.2 40 36.3 0 6.6-5.6 10.3-13.3 10.3-9 0-15.4-4-19-6.3-2.6-1.7-5-1.6-7 1.1l-1.5 2.1c-1.8 2.6-1.5 5 1 7a43.5 43.5 0 0 0 26 8.4c16.8 0 28-9.7 28-22.9 0-26.3-40-20.8-40-36.3M236.6 65.2c0-6.6 5.6-9.8 13-9.8s12.5 2.7 15.8 4.4c2.6 1.5 5 1.1 6.7-1.7l1.4-2.2c1.6-2.8 1.1-5-1.7-6.8a39 39 0 0 0-21.4-6c-15.2 0-28 7.7-28 22.4 0 26.2 40 21.2 40 36.3 0 6.6-5.6 10.3-13.3 10.3-9 0-15.4-4-19-6.3-2.6-1.7-5-1.6-7 1.1l-1.5 2.1c-1.8 2.6-1.5 5 1 7a43.5 43.5 0 0 0 26 8.4c16.8 0 28-9.7 28-22.9 0-26.3-40-20.8-40-36.3M321.3 43.1c-21.1 0-36.8 16-36.8 40.6 0 23 16 40.7 39.3 40.7a43 43 0 0 0 25-8.3c2.6-1.9 3-4.1 1.5-6.8L349 107c-1.5-2.6-4.4-3.4-6.6-1.6a29.5 29.5 0 0 1-17.8 6.1c-12.8 0-25.2-8-26.4-24.8h50.2c2.6 0 4.9-1.3 5.4-3.8v-.1a4.2 4.2 0 0 0 .1-1c0-21-11-38.7-32.6-38.7zm-22.7 32.4a22 22 0 0 1 22.3-20.7c13.8 0 20 12.2 20 20.7z" fill="#004586"/></g></svg>