<?xml version="1.0" encoding="utf-8"?>
<!-- Generator: Adobe Illustrator 23.0.4, SVG Export Plug-In . SVG Version: 6.00 Build 0)  -->
<svg version="1.1" id="Layer_1" xmlns="http://www.w3.org/2000/svg" xmlns:xlink="http://www.w3.org/1999/xlink" x="0px" y="0px"
	 viewBox="0 0 47.6 47.6" style="enable-background:new 0 0 47.6 47.6;" xml:space="preserve">
<style type="text/css">
	.st0{clip-path:url(#SVGID_2_);}
	.st1{fill:#F5F5F5;}
	.st2{fill:#CF172C;}
	.st3{fill:#25346D;}
</style>
<g>
	<defs>
		<path id="SVGID_1_" d="M3.2,11.9c-6.6,11.4-2.6,25.9,8.7,32.5c11.4,6.6,25.9,2.6,32.5-8.7C51,24.3,47.1,9.7,35.7,3.2
			C24.3-3.4,9.7,0.5,3.2,11.9z"/>
	</defs>
	<clipPath id="SVGID_2_">
		<use xlink:href="#SVGID_1_"  style="overflow:visible;"/>
	</clipPath>
	<g class="st0">
		<polygon class="st1" points="-7.1,28.8 -7.1,32.1 0.7,32.1 -7.1,36.8 -7.1,42.3 10,32.1 16.2,32.1 -7.1,46 -7.1,47.8 17,33.4 
			17,48.4 19.7,48.4 19.7,28.8 		"/>
		<polygon class="st1" points="-7.1,-0.2 -7.1,5.3 10,15.5 3.8,15.5 -7.1,9 -7.1,10.8 0.8,15.5 -7.1,15.5 -7.1,18.8 19.7,18.8 
			19.7,-0.8 17,-0.8 17,14.2 		"/>
		<polygon class="st1" points="53.7,47.2 53.7,41.7 37.6,32.1 43.8,32.1 53.7,38 53.7,36.2 46.9,32.1 53.7,32.1 53.7,28.8 28,28.8 
			28,48.4 30.6,48.4 30.6,33.4 		"/>
		<polygon class="st1" points="53.7,18.8 53.7,15.5 46.9,15.5 53.7,11.4 53.7,5.9 37.6,15.5 31.4,15.5 53.7,2.2 53.7,0.4 30.6,14.2 
			30.6,-0.8 28,-0.8 28,18.8 		"/>
		<rect x="19.7" y="-0.8" class="st2" width="8.3" height="49.3"/>
		<rect x="-7.1" y="18.8" class="st2" width="54.8" height="9.9"/>
		<polygon class="st3" points="17,14.2 17,-0.8 -7.1,-0.8 -7.1,-0.2 		"/>
		<polygon class="st3" points="0.8,15.5 -7.1,10.8 -7.1,15.5 		"/>
		<polygon class="st2" points="3.8,15.5 10,15.5 -7.1,5.3 -7.1,9 		"/>
		<polygon class="st2" points="43.8,32.1 37.6,32.1 53.7,41.7 53.7,38 		"/>
		<polygon class="st3" points="30.6,33.4 30.6,48.4 53.7,48.4 53.7,47.2 		"/>
		<polygon class="st3" points="46.9,32.1 53.7,36.2 53.7,32.1 		"/>
		<polygon class="st3" points="46.9,15.5 53.7,15.5 53.7,11.4 		"/>
		<polygon class="st2" points="31.4,15.5 37.6,15.5 53.7,5.9 53.7,2.2 		"/>
		<polygon class="st3" points="53.7,0.4 53.7,-0.8 30.6,-0.8 30.6,14.2 		"/>
		<polygon class="st3" points="0.7,32.1 -7.1,32.1 -7.1,36.8 		"/>
		<polygon class="st3" points="-7.1,47.8 -7.1,48.4 17,48.4 17,33.4 		"/>
		<polygon class="st2" points="16.2,32.1 10,32.1 -7.1,42.3 -7.1,46 		"/>
	</g>
</g>
</svg>
