<?xml version="1.0" encoding="utf-8"?>
<!-- Generator: Adobe Illustrator 23.0.4, SVG Export Plug-In . SVG Version: 6.00 Build 0)  -->
<svg version="1.1" id="Layer_1" xmlns="http://www.w3.org/2000/svg" xmlns:xlink="http://www.w3.org/1999/xlink" x="0px" y="0px"
	 viewBox="0 0 45.7 45.7" style="enable-background:new 0 0 45.7 45.7;" xml:space="preserve">
<style type="text/css">
	.st0{fill:#FFFFFF;}
</style>
<g>
	<g id="XMLID_10_">
		<g>
			<path class="st0" d="M31,33.9v2c0,0.3-0.2,0.5-0.5,0.5H16.3c-0.3,0-0.5-0.2-0.5-0.5v-2c0-0.3,0.2-0.5,0.5-0.5h2.3l1-2.6
				c-1.3-0.7-2.4-1.7-3.2-3h-1.7c-0.3,0-0.5-0.2-0.5-0.5v-0.7c0-0.3,0.2-0.5,0.5-0.5h9.4c0.3,0,0.5,0.2,0.5,0.5v0.7
				c0,0.3-0.2,0.5-0.5,0.5h-4.8c1.1,1,2.5,1.6,4.1,1.6c3.3,0,6-2.7,6-6c0-3-2.2-5.5-5.1-5.9l-0.8,1.7c-0.1,0.3-0.5,0.4-0.8,0.3
				l-0.2-0.1v1.8h0.5c0.2,0,0.4,0.2,0.4,0.4v0.2c0,0.2-0.2,0.4-0.4,0.4h-3c-0.2,0-0.4-0.2-0.4-0.4v-0.2c0-0.2,0.2-0.4,0.4-0.4h0.5
				v-2.8l-0.5-0.2l-2.1,1.8l0.3,0.4c0.1,0.1,0.1,0.4,0,0.5L17.9,21c-0.2,0.1-0.4,0.1-0.5,0l-1.9-2.3c-0.1-0.2-0.1-0.4,0-0.5l0.1-0.1
				c0.1-0.1,0.4-0.1,0.5,0l0.3,0.4l1.4-1.2l-0.1-0.1c-0.3-0.1-0.4-0.5-0.3-0.8l2.1-4.5c0.1-0.3,0.5-0.4,0.8-0.3l1,0.5l1.9-4
				l-0.7-0.3c-0.3-0.1-0.4-0.5-0.3-0.8l0.1-0.2c0.1-0.3,0.5-0.4,0.8-0.3l4.4,2c0.3,0.1,0.4,0.5,0.3,0.8l-0.1,0.2
				c-0.1,0.3-0.5,0.4-0.8,0.3l-0.7-0.3l-1.9,4l1,0.5c0.3,0.1,0.4,0.5,0.3,0.8l-0.3,0.7c3.7,0.8,6.4,4.1,6.4,8.1
				c0,3.1-1.7,5.9-4.3,7.3l1,2.7h2.3C30.8,33.4,31,33.7,31,33.9z"/>
		</g>
	</g>
</g>
<path class="st0" d="M45.7,22.8c0,12.6-10.2,22.8-22.8,22.8S0,35.4,0,22.8S10.2,0,22.8,0S45.7,10.2,45.7,22.8z M44.3,22.8
	c0-11.8-9.6-21.5-21.5-21.5S1.4,11,1.4,22.8c0,11.8,9.6,21.5,21.5,21.5S44.3,34.7,44.3,22.8z"/>
</svg>
