<?xml version="1.0" encoding="utf-8"?>
<!-- Generator: Adobe Illustrator 23.0.4, SVG Export Plug-In . SVG Version: 6.00 Build 0)  -->
<svg version="1.1" id="Layer_1" xmlns="http://www.w3.org/2000/svg" xmlns:xlink="http://www.w3.org/1999/xlink" x="0px" y="0px"
	 viewBox="0 0 34 37.2" style="enable-background:new 0 0 34 37.2;" xml:space="preserve">
<style type="text/css">
	.st0{fill:#BB2A35;}
	.st1{fill:#272425;}
</style>
<g>
	<polygon class="st0" points="17,19.7 11.3,9.8 17,0 22.7,9.8 	"/>
	<polygon class="st0" points="22.7,29.5 17,19.7 28.4,19.7 34,29.5 	"/>
	<polygon class="st0" points="11.3,29.5 0,29.5 5.7,19.7 17,19.7 	"/>
	<path class="st1" d="M5.3,37V34l-1.1,2.2l-1-2.2V37H2.3v-4.7h0.9l0.9,2.1l1-2.1h0.9V37H5.3 M7.7,37H6.9v-4.7h0.8V37z M9.9,33v4H9.1
		v-4h-1v-0.7h2.9V33H9.9z M12.5,37.2c-1.1,0-1.5-0.7-1.5-1.6h0.8c0,0.4,0.2,0.8,0.7,0.8c0.4,0,0.7-0.2,0.7-0.5
		c0-0.3-0.2-0.4-1.1-0.9c-0.6-0.4-1.1-0.8-1.1-1.4c0-0.7,0.5-1.2,1.4-1.2c1.1,0,1.4,0.7,1.5,1.5h-0.8c0-0.4-0.2-0.8-0.6-0.8
		c-0.4,0-0.6,0.2-0.6,0.5c0,0.3,0.3,0.5,0.9,0.8c0.8,0.4,1.2,0.8,1.2,1.5C14,36.7,13.3,37.2,12.5,37.2 M16,37.1
		c-0.8,0-1.6-0.3-1.6-1.6v-3.2h0.8v3.2c0,0.5,0.3,0.8,0.8,0.8c0.5,0,0.7-0.3,0.7-0.8v-3.2h0.8v3.2C17.6,36.8,16.7,37.1,16,37.1
		 M19.9,37h-1.7v-4.7h1.6c0.9,0,1.4,0.4,1.4,1.2c0,0.6-0.5,1-0.7,1.1c0.3,0.1,0.8,0.4,0.8,1.2C21.3,36.5,20.7,37,19.9,37 M19.6,35
		h-0.3v-0.8h0.3c0.4,0,0.7-0.2,0.7-0.6c0-0.4-0.3-0.6-0.7-0.6H19v3.3h0.7c0.5,0,0.8-0.2,0.8-0.7C20.4,35.1,20.1,35,19.6,35 M29.2,37
		V35h-1.7V37h-0.9v-4.7h0.9v1.9h1.7v-1.9H30V37H29.2z M22.6,37h-0.8v-4.7h0.8V37z M31.7,37h-0.8v-4.7h0.8V37z M24.7,37.1
		c-1.1,0-1.5-0.7-1.5-1.6h0.8c0,0.4,0.2,0.9,0.7,0.9c0.4,0,0.7-0.2,0.7-0.5c0-0.3-0.2-0.5-1.1-1c-0.6-0.3-1.1-0.7-1.1-1.4
		c0-0.7,0.5-1.2,1.4-1.2c1.1,0,1.4,0.7,1.5,1.5h-0.8c0-0.4-0.2-0.8-0.7-0.8c-0.3,0-0.6,0.2-0.6,0.5c0,0.3,0.3,0.5,0.9,0.8
		c0.8,0.4,1.2,0.7,1.2,1.5C26.2,36.6,25.5,37.1,24.7,37.1"/>
</g>
</svg>
