<?xml version="1.0" encoding="utf-8"?>
<!-- Generator: Adobe Illustrator 23.0.4, SVG Export Plug-In . SVG Version: 6.00 Build 0)  -->
<svg version="1.1" id="Layer_1" xmlns="http://www.w3.org/2000/svg" xmlns:xlink="http://www.w3.org/1999/xlink" x="0px" y="0px"
	 viewBox="0 0 47.6 47.6" style="enable-background:new 0 0 47.6 47.6;" xml:space="preserve">
<style type="text/css">
	.st0{fill:#FFFFFF;}
</style>
<g>
	<path class="st0" d="M47.6,23.8C47.6,37,37,47.6,23.8,47.6S0,37,0,23.8S10.7,0,23.8,0S47.6,10.7,47.6,23.8z M46.2,23.8
		c0-12.4-10-22.4-22.4-22.4S1.4,11.5,1.4,23.8c0,12.4,10,22.4,22.4,22.4S46.2,36.2,46.2,23.8z"/>
	<path class="st0" d="M35.1,20.2c0.2,0,0.4-0.1,0.5-0.4c0.1-0.3-0.1-0.5-0.3-0.6l-4.6-1.1v1l4.4,1L35.1,20.2z M34.6,23.3
		c0.2,0,0.4-0.1,0.5-0.4c0-0.1,0-0.2-0.1-0.4c-0.1-0.1-0.2-0.2-0.3-0.2l-4.1-1v1l3.8,0.9L34.6,23.3z M34,26.4c0.2,0,0.4-0.1,0.5-0.4
		c0.1-0.3-0.1-0.5-0.3-0.6l-3.5-0.8v1l3.3,0.8L34,26.4z M33.3,29.5c0.2,0,0.4-0.1,0.5-0.4c0.1-0.3-0.1-0.5-0.3-0.6l-2.8-0.7v1
		l2.6,0.6L33.3,29.5z M32.4,32.8c0.2,0,0.4-0.1,0.5-0.4c0.1-0.3-0.1-0.5-0.3-0.6l-1.8-0.4v1l1.6,0.4L32.4,32.8z M39,14.9l-8.2-2v1.5
		l7.8,1.9c0.3,0.1,0.5,0.4,0.4,0.7l-4.4,18.6c-0.1,0.3-0.4,0.5-0.7,0.4l-5.3-1.3h-6.4l11.3,2.7c1.1,0.3,2.2-0.4,2.5-1.5l4.4-18.6
		C40.8,16.3,40.1,15.2,39,14.9 M11.8,31.8h15.4c0.3,0,0.6-0.3,0.6-0.6V12.1c0-0.3-0.3-0.6-0.6-0.6H16.6l1.1,1.1
		c0.2,0.2,0.2,0.4,0.2,0.6c0,0.2-0.2,0.4-0.4,0.5l-6.3,3.8v13.5C11.3,31.5,11.5,31.8,11.8,31.8 M11.7,15.7L16,13l-1.1-1.1
		c-0.2,0.1-0.3,0.2-0.4,0.3l-2.6,3C11.8,15.3,11.7,15.5,11.7,15.7 M27.2,33.2H11.8c-1.1,0-2.1-0.9-2.1-2.1V17c0-0.9,0.5-2.1,1.1-2.8
		l2.6-3c0.6-0.7,1.8-1.2,2.7-1.2h11.1c1.1,0,2.1,0.9,2.1,2.1v19.1C29.3,32.3,28.4,33.2,27.2,33.2 M25.3,17.5c0.2,0,0.4-0.2,0.4-0.5
		c0-0.3-0.2-0.5-0.4-0.5h-4.5c-0.2,0-0.4,0.2-0.4,0.5c0,0.3,0.2,0.5,0.4,0.5H25.3z M25.2,20.3c0.3,0,0.5-0.2,0.5-0.5
		c0-0.3-0.2-0.5-0.5-0.5h-9.6c-0.3,0-0.5,0.2-0.5,0.5c0,0.3,0.2,0.5,0.5,0.5H25.2z M25.3,23.2c0.2,0,0.4-0.2,0.4-0.5
		c0-0.3-0.2-0.5-0.4-0.5h-4.5c-0.2,0-0.4,0.2-0.4,0.5c0,0.3,0.2,0.5,0.4,0.5H25.3z M25.3,26c0.2,0,0.4-0.2,0.4-0.5
		c0-0.3-0.2-0.5-0.4-0.5h-4.5c-0.2,0-0.4,0.2-0.4,0.5c0,0.3,0.2,0.5,0.4,0.5H25.3z M25.3,28.9c0.2,0,0.4-0.2,0.4-0.5
		c0-0.3-0.2-0.5-0.4-0.5h-4.5c-0.2,0-0.4,0.2-0.4,0.5c0,0.3,0.2,0.5,0.4,0.5H25.3z M17.2,28.2l-1.1-0.5v0l0,0l0,0v0l-1.1,0.5
		l-0.6-0.9l-0.8,2.3l1.2-0.2l0.8,0.8l0.5-2.4l0.5,2.4l0.8-0.8l1.2,0.2l-0.8-2.3L17.2,28.2z M18,24.6c0-1-0.8-1.9-1.9-1.9
		c-1,0-1.9,0.8-1.9,1.9c0,1,0.8,1.9,1.9,1.9C17.2,26.5,18,25.6,18,24.6 M19.2,23.8l-0.7,0.8l0.7,0.8l-1,0.3l0.2,1.1l-1.1-0.2l-0.3,1
		l-0.8-0.7l-0.8,0.7l-0.3-1l-1.1,0.2l0.2-1.1l-1-0.3l0.7-0.8l-0.7-0.8l1-0.3l-0.2-1.1l1.1,0.2l0.3-1l0.8,0.7l0.8-0.7l0.3,1l1.1-0.2
		l-0.2,1.1L19.2,23.8z M17.5,24.6c0,0.8-0.6,1.4-1.4,1.4c-0.8,0-1.4-0.6-1.4-1.4c0-0.8,0.6-1.4,1.4-1.4
		C16.9,23.2,17.5,23.8,17.5,24.6"/>
</g>
</svg>
