<?xml version="1.0" encoding="utf-8"?>
<!-- Generator: Adobe Illustrator 23.0.6, SVG Export Plug-In . SVG Version: 6.00 Build 0)  -->
<svg version="1.1" id="Layer_1" xmlns="http://www.w3.org/2000/svg" xmlns:xlink="http://www.w3.org/1999/xlink" x="0px" y="0px"
	 viewBox="0 0 378.5 378.5" style="enable-background:new 0 0 378.5 378.5;" xml:space="preserve">
<style type="text/css">
	.st0{fill-rule:evenodd;clip-rule:evenodd;fill:#2867B2;}
	.st1{fill-rule:evenodd;clip-rule:evenodd;fill:#FEFEFE;}
</style>
<g>
	
		<ellipse transform="matrix(0.7071 -0.7071 0.7071 0.7071 -78.3883 189.2065)" class="st0" cx="189.2" cy="189.2" rx="189.2" ry="189.2"/>
	<g>
		<path class="st1" d="M201.4,171.4c0.9-1,1.3-1.3,1.6-1.7c12.7-18.6,30.9-24,52.1-20.8c24.5,3.8,40.2,20.9,44.2,47.1
			c0.9,6.2,1.4,12.5,1.4,18.8c0,26.1-0.1,52.2,0.1,78.3c0,2.9-0.7,3.8-3.7,3.8c-13.7-0.2-27.4-0.2-41,0c-3,0-3.8-0.8-3.7-3.8
			c0.1-24.4,0.1-48.7,0-73.1c0-5.5-0.4-11-1.9-16.4c-5-17.2-24.5-23.2-38.5-11.8c-7.5,6.2-10.5,14.3-10.4,23.9c0.1,23,0,45.9,0,68.9
			c0,3-0.2,6,0.1,9c0.2,2.6-0.9,3.1-3.2,3.1c-13.9-0.1-27.9-0.1-41.8,0c-2.5,0-3.4-0.5-3.4-3.3c0.2-20.7,0.3-41.4,0.3-62.1
			c0-25.5,0-51-0.2-76.4c0-2.8,0.6-3.6,3.4-3.6c13.9,0.2,27.9,0.1,41.8,0c2.5,0,3.2,0.7,3.1,3.2
			C201.3,159.9,201.4,165.2,201.4,171.4z"/>
		<path class="st1" d="M126.5,224.2c0,23,0,45.9,0.1,68.9c0,2.9-0.6,3.9-3.7,3.8c-13.8-0.2-27.6-0.1-41.4,0c-2.6,0-3.4-0.6-3.4-3.3
			c0.1-46.3,0.1-92.6,0-138.9c0-2.4,0.6-3.2,3.1-3.2c14.1,0.1,28.1,0.1,42.2,0c2.8,0,3.2,1,3.2,3.5
			C126.5,178.1,126.5,201.1,126.5,224.2z"/>
		<path class="st1" d="M102.7,81.5c18.5,0,30.5,14.7,26.2,31.9c-3.3,13-16.8,20.5-32.3,17.9C80.1,128.7,71,112.6,77,97.1
			C80.8,87.4,90.5,81.5,102.7,81.5z"/>
	</g>
</g>
</svg>
