<?xml version="1.0" encoding="utf-8"?>
<!-- Generator: Adobe Illustrator 24.1.0, SVG Export Plug-In . SVG Version: 6.00 Build 0)  -->
<svg version="1.1" id="Layer_1" xmlns="http://www.w3.org/2000/svg" xmlns:xlink="http://www.w3.org/1999/xlink" x="0px" y="0px"
	 viewBox="0 0 128 128" style="enable-background:new 0 0 128 128;" xml:space="preserve">
<style type="text/css">
	.st0{fill:#1877F2;}
	.st1{fill:#FFFFFF;}
</style>
<g>
	<path class="st0" d="M127.6,63.8C127.6,28.6,99,0,63.8,0S0,28.6,0,63.8c0,31.8,23.3,58.2,53.8,63V82.2H37.6V63.8h16.2V49.7
		c0-16,9.5-24.8,24.1-24.8c7,0,14.3,1.2,14.3,1.2v15.7h-8c-7.9,0-10.4,4.9-10.4,10v12h17.7l-2.8,18.4H73.7v44.6
		C104.2,122,127.6,95.6,127.6,63.8z"/>
	<path class="st1" d="M88.6,82.2l2.8-18.4H73.7v-12c0-5,2.5-10,10.4-10h8V26.2c0,0-7.3-1.2-14.3-1.2c-14.6,0-24.1,8.8-24.1,24.8
		v14.1H37.6v18.4h16.2v44.6c3.2,0.5,6.6,0.8,10,0.8c3.4,0,6.7-0.3,10-0.8V82.2H88.6z"/>
</g>
</svg>
