<?xml version="1.0" encoding="utf-8"?>
<!-- Generator: Adobe Illustrator 24.1.0, SVG Export Plug-In . SVG Version: 6.00 Build 0)  -->
<svg version="1.1" id="Layer_1" xmlns="http://www.w3.org/2000/svg" xmlns:xlink="http://www.w3.org/1999/xlink" x="0px" y="0px"
	 viewBox="0 0 128 128" style="enable-background:new 0 0 128 128;" xml:space="preserve">
<style type="text/css">
	.st0{fill:#FF0000;}
	.st1{fill:#FFFFFF;}
</style>
<circle class="st0" cx="63.8" cy="63.8" r="63.8"/>
<g id="XMLID_184_">
	<path id="XMLID_182_" class="st1" d="M103.2,43.9c-0.9-3.6-3.7-6.4-7.3-7.3c-6.4-1.7-32.1-1.7-32.1-1.7s-25.7,0-32.1,1.7
		c-3.5,1-6.3,3.8-7.3,7.3c-1.7,6.5-1.7,19.9-1.7,19.9s0,13.5,1.7,19.9c0.9,3.6,3.7,6.4,7.3,7.3c6.4,1.7,32.1,1.7,32.1,1.7
		s25.7,0,32.1-1.7c3.5-1,6.3-3.8,7.3-7.3c1.7-6.5,1.7-19.9,1.7-19.9S105,50.4,103.2,43.9z"/>
	<polygon id="XMLID_1355_" class="st0" points="55.5,76.1 76.9,63.8 55.5,51.6 	"/>
</g>
</svg>
