<?xml version="1.0" encoding="utf-8"?>
<!-- Generator: Adobe Illustrator 26.2.0, SVG Export Plug-In . SVG Version: 6.00 Build 0)  -->
<svg version="1.1" id="Layer_1" xmlns="http://www.w3.org/2000/svg" xmlns:xlink="http://www.w3.org/1999/xlink" x="0px" y="0px"
	 viewBox="0 0 73.9 40.1" style="enable-background:new 0 0 73.9 40.1;" xml:space="preserve">
<style type="text/css">
	.st0{fill:#FFFFFF;}
</style>
<g>
</g>
<g>
	<path class="st0" d="M56.9,0L56.9,0H18.5c-1.8,0-3.5,0.1-4.7,0.3C6,1.8,0.1,8.8,0.1,17.2c0,7.7,5.1,14.3,12.1,16.4h0.1
		c0.2,0,0.3,0.1,0.5,0.1c1.4,0.4,3,0.6,6,0.6h37.8c0.1,0,0.2,0,0.3,0c9.5,0,17.2-7.6,17.2-17.2C74.1,7.8,66.3,0,56.9,0z M56.9,32.8
		c-0.1,0-0.2,0-0.3,0l0,0l0,0H24.6c5.9-2.8,10-8.7,10-15.7s-4.1-12.9-10-15.7h30.8l0,0H57c8.6,0,15.7,7,15.7,15.7
		C72.5,25.8,65.5,32.8,56.9,32.8z M33.1,17.1c0,8.6-7,15.7-15.7,15.7s-15.7-7-15.7-15.7s7-15.6,15.7-15.6S33.1,8.5,33.1,17.1z"/>
</g>
<g>
	<path class="st0" d="M36.4,5.2h0.7v4.2h-0.7V5.2z"/>
	<path class="st0" d="M38.2,5.2h2.5v0.6h-1.8V7h1.5v0.6h-1.5v1.3h1.8v0.6h-2.5V5.2z"/>
	<path class="st0" d="M41.4,7.2c0-1.2,0.5-2.2,1.8-2.2c0.4,0,0.7,0.1,1.1,0.1l-0.1,0.7c-0.3,0-0.7-0.1-1-0.1c-1.1,0-1.2,0.7-1.2,1.6
		c0,0.9,0.2,1.6,1.1,1.6c0.4,0,0.7-0.1,1.1-0.2l0.2,0.5c-0.4,0.2-0.8,0.3-1.2,0.3C41.8,9.4,41.4,8.5,41.4,7.2z"/>
	<path class="st0" d="M45.1,5.2h2.5v0.6h-1.8V7h1.5v0.6h-1.5v1.3h1.8v0.6h-2.5V5.2z"/>
	<path class="st0" d="M48.5,5.2h2.5v0.6h-1.8V7h1.5v0.6h-1.5v1.3h1.8v0.6h-2.5V5.2z"/>
	<path class="st0" d="M36.2,12.8c0-1.2,0.5-2.2,1.8-2.2c0.4,0,0.7,0.1,1.1,0.1L39,11.3c-0.3,0-0.7-0.1-1-0.1c-1.1,0-1.2,0.7-1.2,1.6
		c0,0.9,0.2,1.6,1.1,1.6c0.4,0,0.7-0.1,1.1-0.2l0.2,0.5c-0.4,0.2-0.8,0.3-1.2,0.3C36.7,14.9,36.2,14.1,36.2,12.8z"/>
	<path class="st0" d="M40,10.7c0.4-0.1,0.9-0.1,1.2-0.1c1,0,1.5,0.4,1.5,1.1c0,0.6-0.3,0.8-0.7,1l0,0c0.5,0.1,0.8,0.5,0.8,1.1
		c0,0.9-0.6,1.2-1.6,1.2c-0.4,0-0.9,0-1.2-0.1C40,14.9,40,10.7,40,10.7z M41.4,12.4c0.5,0,0.9-0.2,0.9-0.7c0-0.6-0.4-0.7-1-0.7
		c-0.2,0-0.4,0-0.7,0v1.3H41.4z M41.2,14.4c0.7,0,1.1-0.1,1.1-0.7c0-0.6-0.3-0.7-1-0.7h-0.8v1.2C40.9,14.4,41.1,14.4,41.2,14.4z"/>
	<path class="st0" d="M44.7,11.3h-1.2v-0.6h3.1v0.6h-1.2v3.6h-0.7L44.7,11.3L44.7,11.3z"/>
	<path class="st0" d="M47.3,10.7h0.6v3.6h1.8v0.6h-2.4V10.7z"/>
</g>
<g>
	<path class="st0" d="M4.2,14.1v-1.6h4.4v1.6H7.1v6.2h1.4V22H4.2v-1.6h1.4v-6.2L4.2,14.1L4.2,14.1z"/>
	<path class="st0" d="M14.2,22H9.6v-9.6h4.6v1.6h-3.2v2h2.9v1.6h-2.9v2.5h3.2V22z"/>
	<path class="st0" d="M19.7,21.7c-0.2,0.2-0.5,0.3-0.8,0.4c-0.3,0.1-0.5,0.1-0.8,0.1c-1,0-1.7-0.4-2.3-1.2c-0.5-0.9-0.8-2.1-0.8-3.6
		c0-1.6,0.3-2.9,0.8-3.6c0.5-0.9,1.2-1.2,2.3-1.2c0.3,0,0.6,0,0.8,0.1c0.3,0.1,0.5,0.2,0.7,0.4V15c-0.3-0.3-0.5-0.5-0.8-0.7
		c-0.2-0.1-0.5-0.2-0.8-0.2c-0.6,0-1,0.3-1.2,0.9s-0.4,1.3-0.4,2.4s0.1,1.9,0.4,2.4c0.3,0.6,0.7,0.9,1.2,0.9c0.3,0,0.5-0.1,0.8-0.2
		c0.2-0.1,0.5-0.4,0.8-0.7L19.7,21.7L19.7,21.7z"/>
	<path class="st0" d="M25.2,22h-4.6v-9.6h4.6v1.6h-3.2v2h2.9v1.6h-2.9v2.5h3.2V22z"/>
	<path class="st0" d="M30.8,22h-4.6v-9.6h4.6v1.6h-3.2v2h2.9v1.6h-2.9v2.5h3.2V22z"/>
</g>
<g>
	<path class="st0" d="M37.1,16.9h0.6c0.3,0.8,0.6,1.8,0.9,2.8h-0.4L37.9,19h-1.1l-0.2,0.7h-0.4C36.5,18.8,36.8,17.7,37.1,16.9z
		 M37.8,18.8c-0.1-0.5-0.3-1-0.5-1.3l0,0c-0.2,0.5-0.3,0.9-0.5,1.3H37.8z"/>
	<path class="st0" d="M38.6,18.8c0-0.6,0.3-1.1,1-1.1c0.2,0,0.4,0,0.5,0.1l-0.1,0.3c-0.1,0-0.3-0.1-0.5-0.1c-0.4,0-0.6,0.2-0.6,0.7
		c0,0.4,0.1,0.7,0.5,0.7c0.2,0,0.4-0.1,0.6-0.1l0.1,0.3c-0.2,0.1-0.4,0.1-0.7,0.1C38.9,19.7,38.6,19.3,38.6,18.8z"/>
	<path class="st0" d="M40.3,18.8c0-0.6,0.3-1.1,1-1.1c0.2,0,0.4,0,0.5,0.1l-0.1,0.3c-0.1,0-0.3-0.1-0.5-0.1c-0.4,0-0.6,0.2-0.6,0.7
		c0,0.4,0.1,0.7,0.5,0.7c0.2,0,0.4-0.1,0.6-0.1l0.1,0.3c-0.2,0.1-0.4,0.1-0.7,0.1C40.6,19.7,40.3,19.3,40.3,18.8z"/>
	<path class="st0" d="M42.2,17.7h0.3v0.2c0.2-0.2,0.4-0.3,0.6-0.3c0.1,0,0.2,0,0.2,0V18c-0.1,0-0.2,0-0.2,0c-0.2,0-0.4,0.1-0.5,0.2
		v1.4h-0.4C42.2,19.6,42.2,17.7,42.2,17.7z"/>
	<path class="st0" d="M44.2,17.7c0.5,0,0.8,0.4,0.8,0.9c0,0.1,0,0.2,0,0.3h-1.1c0,0.4,0.2,0.6,0.5,0.6c0.2,0,0.4-0.1,0.6-0.1
		l0.1,0.3c-0.2,0.1-0.4,0.2-0.7,0.2c-0.6,0-0.9-0.3-0.9-1.1C43.4,18.1,43.8,17.7,44.2,17.7z M44.6,18.6c0-0.3-0.1-0.5-0.4-0.5
		s-0.4,0.2-0.5,0.5H44.6z"/>
	<path class="st0" d="M45.3,18.8c0-0.7,0.3-1.1,0.9-1.1c0.1,0,0.3,0,0.4,0v-0.8h0.4v2.8h-0.3v-0.2c-0.2,0.1-0.3,0.2-0.6,0.2
		C45.6,19.7,45.3,19.4,45.3,18.8z M46.5,19.2V18c-0.1,0-0.3,0-0.4,0c-0.4,0-0.5,0.2-0.5,0.7s0.1,0.7,0.4,0.7
		C46.3,19.4,46.4,19.3,46.5,19.2z"/>
	<path class="st0" d="M47.5,16.9h0.4v0.4h-0.4V16.9z M47.5,17.7h0.4v2h-0.4V17.7z"/>
	<path class="st0" d="M48.5,18.1h-0.3v-0.3h0.3v-0.6h0.4v0.6h0.6v0.3h-0.6v1.1c0,0.2,0.1,0.3,0.2,0.3c0.1,0,0.2,0,0.3-0.1l0.1,0.3
		c-0.1,0.1-0.3,0.1-0.5,0.1c-0.3,0-0.6-0.2-0.6-0.6L48.5,18.1L48.5,18.1z"/>
	<path class="st0" d="M50.5,17.7c0.5,0,0.8,0.4,0.8,0.9c0,0.1,0,0.2,0,0.3h-1.1c0,0.4,0.2,0.6,0.5,0.6c0.2,0,0.4-0.1,0.6-0.1
		l0.1,0.3c-0.2,0.1-0.4,0.2-0.7,0.2c-0.6,0-0.9-0.3-0.9-1.1C49.6,18.1,49.9,17.7,50.5,17.7z M50.8,18.6c0-0.3-0.1-0.5-0.4-0.5
		c-0.3,0-0.4,0.2-0.5,0.5H50.8z"/>
	<path class="st0" d="M51.5,18.8c0-0.7,0.3-1.1,0.9-1.1c0.1,0,0.3,0,0.4,0v-0.8h0.4v2.8h-0.3v-0.2c-0.2,0.1-0.3,0.2-0.6,0.2
		C51.8,19.7,51.5,19.4,51.5,18.8z M52.8,19.2V18c-0.1,0-0.3,0-0.4,0c-0.4,0-0.5,0.2-0.5,0.7s0.1,0.7,0.4,0.7
		C52.5,19.4,52.7,19.3,52.8,19.2z"/>
	<path class="st0" d="M37,21.8h-0.8v-0.4h2v0.4h-0.8v2.4h-0.4L37,21.8L37,21.8z"/>
	<path class="st0" d="M38.9,22.2c0.5,0,0.8,0.4,0.8,0.9c0,0.1,0,0.2,0,0.3h-1.1c0,0.4,0.2,0.6,0.5,0.6c0.2,0,0.4-0.1,0.6-0.1
		l0.1,0.3c-0.2,0.1-0.4,0.2-0.7,0.2c-0.6,0-0.9-0.3-0.9-1.1C38,22.6,38.3,22.2,38.9,22.2z M39.3,23.1c0-0.3-0.1-0.5-0.4-0.5
		c-0.3,0-0.4,0.2-0.5,0.5H39.3z"/>
	<path class="st0" d="M39.9,23.8c0.2,0,0.4,0.1,0.6,0.1c0.3,0,0.4-0.1,0.4-0.3c0-0.2-0.2-0.2-0.5-0.3c-0.3-0.1-0.6-0.2-0.6-0.6
		s0.3-0.6,0.8-0.6c0.2,0,0.4,0,0.6,0.1v0.3c-0.2,0-0.4-0.1-0.5-0.1c-0.3,0-0.4,0.1-0.4,0.2c0,0.2,0.2,0.2,0.5,0.3
		c0.4,0.1,0.6,0.3,0.6,0.6c0,0.4-0.3,0.6-0.9,0.6c-0.2,0-0.5,0-0.6-0.1L39.9,23.8z"/>
	<path class="st0" d="M41.8,22.6h-0.3v-0.3h0.3v-0.6h0.4v0.6h0.6v0.3h-0.6v1.1c0,0.2,0.1,0.3,0.2,0.3c0.1,0,0.2,0,0.3-0.1l0.1,0.3
		c-0.1,0.1-0.3,0.1-0.5,0.1c-0.3,0-0.6-0.2-0.6-0.6L41.8,22.6L41.8,22.6z"/>
	<path class="st0" d="M43,21.4h0.4v0.4H43V21.4z M43,22.3h0.4v2H43V22.3z"/>
	<path class="st0" d="M44,22.3h0.3v0.2c0.2-0.1,0.4-0.2,0.7-0.2c0.4,0,0.7,0.3,0.7,0.7v1.3h-0.4V23c0-0.3-0.1-0.4-0.4-0.4
		c-0.2,0-0.4,0.1-0.5,0.2v1.5H44C44,24.3,44,22.3,44,22.3z"/>
	<path class="st0" d="M46.7,24.7c0.2,0,0.5-0.1,0.5-0.4v-0.2c-0.1,0.1-0.3,0.1-0.5,0.1c-0.5,0-0.8-0.4-0.8-1c0-0.7,0.3-1.1,0.9-1.1
		c0.3,0,0.6,0.1,0.8,0.1v1.9c0,0.6-0.3,0.8-0.9,0.8c-0.2,0-0.4,0-0.6-0.1v-0.4C46.3,24.7,46.5,24.7,46.7,24.7z M47.2,23.8v-1.2
		c-0.1,0-0.2,0-0.4,0c-0.4,0-0.5,0.2-0.5,0.7s0.1,0.7,0.5,0.7C46.9,23.9,47,23.8,47.2,23.8z"/>
	<path class="st0" d="M49,21.4h0.4v2.4h1.1v0.4h-1.6L49,21.4L49,21.4z"/>
	<path class="st0" d="M51.6,23.1c0.1,0,0.3,0,0.4,0V23c0-0.3-0.1-0.4-0.4-0.4c-0.2,0-0.4,0-0.6,0.1l-0.1-0.3c0.2,0,0.4-0.1,0.7-0.1
		c0.5,0,0.8,0.2,0.8,0.7v1.3h-0.3v-0.2c-0.1,0.1-0.3,0.2-0.6,0.2c-0.4,0-0.7-0.2-0.7-0.6C50.8,23.2,51.1,23.1,51.6,23.1z M51.5,23.9
		c0.2,0,0.4-0.1,0.5-0.2v-0.5c-0.1,0-0.3,0-0.4,0c-0.3,0-0.5,0.1-0.5,0.3C51.2,23.8,51.3,23.9,51.5,23.9z"/>
	<path class="st0" d="M52.8,21.4h0.4v0.9c0.1-0.1,0.3-0.1,0.5-0.1c0.5,0,0.8,0.4,0.8,1.1s-0.3,1.1-0.9,1.1c-0.3,0-0.6-0.1-0.8-0.1
		V21.4z M53.6,23.9c0.4,0,0.5-0.2,0.5-0.7s-0.1-0.7-0.5-0.7c-0.1,0-0.3,0-0.4,0.1v1.2C53.4,23.9,53.5,23.9,53.6,23.9z"/>
	<path class="st0" d="M54.9,23.2c0-0.6,0.3-1.1,0.9-1.1c0.7,0,0.9,0.4,0.9,1.1c0,0.6-0.3,1.1-0.9,1.1C55,24.3,54.9,23.8,54.9,23.2z
		 M56.2,23.2c0-0.4-0.1-0.7-0.5-0.7c-0.4,0-0.5,0.3-0.5,0.7c0,0.4,0.1,0.7,0.5,0.7C56.1,23.9,56.2,23.6,56.2,23.2z"/>
	<path class="st0" d="M57,22.3h0.3v0.2c0.2-0.2,0.4-0.3,0.6-0.3c0.1,0,0.2,0,0.2,0v0.4c-0.1,0-0.2,0-0.2,0c-0.2,0-0.4,0.1-0.5,0.2
		v1.4H57C57,24.2,57,22.3,57,22.3z"/>
	<path class="st0" d="M59.1,23.1c0.1,0,0.3,0,0.4,0V23c0-0.3-0.1-0.4-0.4-0.4c-0.2,0-0.4,0-0.6,0.1l-0.1-0.4c0.2,0,0.4-0.1,0.7-0.1
		c0.5,0,0.8,0.2,0.8,0.7v1.3h-0.3V24c-0.1,0.1-0.3,0.2-0.6,0.2c-0.4,0-0.7-0.2-0.7-0.6C58.2,23.2,58.6,23.1,59.1,23.1z M59,23.9
		c0.2,0,0.4-0.1,0.5-0.2v-0.5c-0.1,0-0.3,0-0.4,0c-0.3,0-0.5,0.1-0.5,0.3C58.6,23.8,58.8,23.9,59,23.9z"/>
	<path class="st0" d="M60.4,22.6h-0.3v-0.3h0.3v-0.6h0.4v0.6h0.5v0.3h-0.6v1.1c0,0.2,0.1,0.3,0.2,0.3s0.2,0,0.3-0.1l0.1,0.3
		c-0.1,0.1-0.3,0.1-0.5,0.1c-0.3,0-0.6-0.2-0.6-0.6v-1.1H60.4z"/>
	<path class="st0" d="M61.5,23.2c0-0.6,0.3-1.1,0.9-1.1c0.7,0,0.9,0.4,0.9,1.1c0,0.6-0.3,1.1-0.9,1.1C61.7,24.3,61.5,23.8,61.5,23.2
		z M62.9,23.2c0-0.4-0.1-0.7-0.5-0.7c-0.4,0-0.5,0.3-0.5,0.7c0,0.4,0.1,0.7,0.5,0.7C62.8,23.9,62.9,23.6,62.9,23.2z"/>
	<path class="st0" d="M63.7,22.3H64v0.2c0.2-0.2,0.4-0.3,0.6-0.3c0.1,0,0.2,0,0.2,0v0.4c-0.1,0-0.2,0-0.2,0c-0.2,0-0.4,0.1-0.5,0.2
		v1.4h-0.4V22.3z"/>
	<path class="st0" d="M64.9,22.4h0.4c0.1,0.6,0.3,1.1,0.5,1.5l0,0c0.2-0.5,0.4-1.1,0.5-1.5h0.4c-0.2,0.9-0.6,1.9-0.9,2.7h-0.4
		c0.1-0.2,0.2-0.5,0.3-0.8h-0.2C65.3,23.9,65.1,23.1,64.9,22.4z"/>
</g>
</svg>
