<?xml version="1.0" encoding="UTF-8"?>
<svg id="Layer_1" data-name="Layer 1" xmlns="http://www.w3.org/2000/svg" version="1.1" viewBox="0 0 436.4 82.3">
  <defs>
    <style>
      .cls-1 {
        fill: #fff;
        stroke-width: 0px;
      }
    </style>
  </defs>
  <g>
    <g>
      <path class="cls-1" d="M71.7,75.3h3.2v.7h-2.4v1.7h2v.7h-2v2.3h-.8s0-5.4,0-5.4Z"/>
      <path class="cls-1" d="M75.6,79.9c.4,0,1,.2,1.4.2.8,0,1.2-.3,1.2-.9s-.4-.7-1.2-1c-.8-.3-1.5-.6-1.5-1.5s.7-1.5,2-1.5.9,0,1.4.2v.7c-.5,0-1-.2-1.4-.2-.6,0-1.1.2-1.1.7s.6.7,1.3,1c.7.3,1.4.6,1.4,1.6s-.7,1.6-2.1,1.6-1,0-1.5-.2v-.7Z"/>
      <path class="cls-1" d="M81.7,78.2c0-1.7.5-2.9,2.2-2.9s.9,0,1.3.2v.7c-.4,0-.8-.2-1.2-.2-1,0-1.3.6-1.3,1.7.3,0,.8-.3,1.3-.3,1,0,1.7.5,1.7,1.6s-.6,1.8-1.9,1.8c-1.5,0-2.1-.9-2.1-2.6ZM84.7,79.1c0-.7-.3-1-1-1s-.7,0-1.1.2c0,1.2.2,1.8,1.1,1.8s1-.3,1-1Z"/>
      <path class="cls-1" d="M88.7,76h-2.6v-.7h3.5v.5c-.5,1.3-1.2,3.2-2,4.9h-.8c.7-1.6,1.4-3.2,1.9-4.7Z"/>
      <path class="cls-1" d="M90.1,80.1c1.6-1.4,2.5-2.4,2.5-3.3s-.3-.9-1-.9-1,.2-1.3.3l-.2-.6c.4-.2,1-.4,1.6-.4,1,0,1.8.5,1.8,1.6s-1,2.2-2.1,3.2h2.2v.7h-3.5v-.6Z"/>
      <path class="cls-1" d="M94.5,78c0-1.8.4-2.8,2-2.8s2,1,2,2.8-.4,2.8-2,2.8-2-1-2-2.8ZM97.6,78c0-1.3,0-2.1-1.2-2.1s-1.1.8-1.1,2.1,0,2.1,1.1,2.1,1.2-.8,1.2-2.1Z"/>
      <path class="cls-1" d="M99.4,78.2c0-1.7.5-2.9,2.2-2.9s.9,0,1.3.2v.7c-.4,0-.8-.2-1.2-.2-1,0-1.3.6-1.3,1.7.3,0,.8-.3,1.3-.3,1,0,1.7.5,1.7,1.6s-.6,1.8-1.9,1.8c-1.6,0-2.1-.9-2.1-2.6ZM102.3,79.1c0-.7-.3-1-1-1s-.7,0-1.1.2c0,1.2.2,1.8,1.1,1.8s1-.3,1-1Z"/>
      <path class="cls-1" d="M104.3,80c.3,0,.7.2,1.1.2,1,0,1.3-.6,1.4-1.7-.4.2-.9.2-1.3.2-1.1,0-1.7-.6-1.7-1.6s.7-1.8,1.9-1.8,1.9.9,1.9,2.7-.5,2.9-2.2,2.9-.9,0-1.2-.2v-.7ZM106.8,77.8c0-1.2-.3-1.8-1.1-1.8s-1,.3-1,1,.3,1,1,1,.7,0,1.1-.2Z"/>
    </g>
    <g>
      <path class="cls-1" d="M293.4,78c0-1.8.7-2.8,2.3-2.8s2.3,1,2.3,2.8-.7,2.8-2.3,2.8-2.3-.9-2.3-2.8ZM297.3,78c0-1.4-.4-2.1-1.5-2.1s-1.5.7-1.5,2.1.4,2.1,1.5,2.1,1.5-.6,1.5-2.1Z"/>
      <path class="cls-1" d="M299.2,75.3h.8v2.3h2.4v-2.3h.8v5.4h-.8v-2.4h-2.4v2.4h-.8v-5.4Z"/>
      <path class="cls-1" d="M304.3,79.9c.4,0,1,.2,1.4.2.8,0,1.2-.3,1.2-.9s-.4-.7-1.2-1-1.5-.6-1.5-1.5.7-1.5,2-1.5.9,0,1.4.2v.7c-.5,0-1-.2-1.4-.2-.6,0-1.1.2-1.1.7s.6.7,1.3,1,1.4.6,1.4,1.6-.7,1.6-2.1,1.6-1,0-1.5-.2v-.7Z"/>
      <path class="cls-1" d="M310.5,78.2c0-1.7.5-2.9,2.2-2.9s.9,0,1.3.2v.7c-.4,0-.8-.2-1.2-.2-1,0-1.3.6-1.3,1.7.3,0,.8-.3,1.3-.3,1,0,1.7.5,1.7,1.6s-.6,1.8-1.9,1.8c-1.6,0-2.1-.9-2.1-2.6ZM313.4,79.1c0-.7-.3-1-1-1s-.7,0-1.1.2c0,1.2.2,1.8,1.1,1.8s1-.3,1-1Z"/>
      <path class="cls-1" d="M317.4,76h-2.6v-.7h3.5v.5c-.5,1.3-1.2,3.2-2,4.9h-.8c.7-1.6,1.4-3.2,1.9-4.7Z"/>
      <path class="cls-1" d="M318.9,80.1c1.6-1.4,2.5-2.4,2.5-3.3s-.3-.9-1-.9-1,.2-1.3.3l-.2-.6c.4-.2,1-.4,1.6-.4,1,0,1.8.5,1.8,1.6s-1,2.2-2.1,3.2h2.2v.7h-3.5v-.6Z"/>
      <path class="cls-1" d="M323.2,78c0-1.8.4-2.8,2-2.8s2,1,2,2.8-.4,2.8-2,2.8-2-1-2-2.8ZM326.3,78c0-1.3-.1-2.1-1.2-2.1s-1.1.8-1.1,2.1.1,2.1,1.1,2.1,1.2-.8,1.2-2.1Z"/>
      <path class="cls-1" d="M328.1,78.2c0-1.7.5-2.9,2.2-2.9s.9,0,1.3.2v.7c-.4,0-.8-.2-1.2-.2-1,0-1.3.6-1.3,1.7.3,0,.8-.3,1.3-.3,1,0,1.7.5,1.7,1.6s-.6,1.8-1.9,1.8c-1.6,0-2.1-.9-2.1-2.6ZM331,79.1c0-.7-.3-1-1-1s-.7,0-1.1.2c0,1.2.2,1.8,1.1,1.8s1-.3,1-1Z"/>
      <path class="cls-1" d="M332.7,78.2c0-1.7.5-2.9,2.2-2.9s.9,0,1.3.2v.7c-.4,0-.8-.2-1.2-.2-1,0-1.3.6-1.3,1.7.3,0,.8-.3,1.3-.3,1,0,1.7.5,1.7,1.6s-.6,1.8-1.9,1.8c-1.6,0-2.1-.9-2.1-2.6ZM335.6,79.1c0-.7-.3-1-1-1s-.7,0-1.1.2c0,1.2.2,1.8,1.1,1.8s1-.3,1-1Z"/>
    </g>
    <g>
      <path class="cls-1" d="M144.5,75.3h3.2v.7h-2.4v1.6h2v.7h-2v1.7h2.4v.7h-3.2v-5.4Z"/>
      <path class="cls-1" d="M148.9,75.3h1.1l1.3,3.5h0l1.2-3.5h1.1c.1,1.2.2,3.6.3,5.4h-.8c0-1.4-.1-2.9-.2-4.3h0l-1.2,3.4h-.8l-1.2-3.4h0c-.1,1.4-.1,2.9-.2,4.3h-.8c0-1.7,0-4.2.2-5.4Z"/>
      <path class="cls-1" d="M154.9,79.9c.4,0,1,.2,1.4.2.8,0,1.2-.3,1.2-.9s-.4-.7-1.2-1-1.5-.6-1.5-1.5.7-1.5,2-1.5.9,0,1.4.2v.7c-.5,0-1-.2-1.4-.2-.6,0-1.1.2-1.1.7s.6.7,1.3,1,1.4.6,1.4,1.6-.7,1.6-2.1,1.6-1,0-1.5-.2v-.7Z"/>
      <path class="cls-1" d="M161.1,78.2c0-1.7.5-2.9,2.2-2.9s.9,0,1.3.2v.7c-.4,0-.8-.2-1.2-.2-1,0-1.3.6-1.3,1.7.3,0,.8-.3,1.3-.3,1,0,1.7.5,1.7,1.6s-.6,1.8-1.9,1.8c-1.6,0-2.1-.9-2.1-2.6ZM164.1,79.1c0-.7-.3-1-1-1s-.7,0-1.1.2c0,1.2.2,1.8,1.1,1.8s1-.3,1-1Z"/>
      <path class="cls-1" d="M168.1,76h-2.6v-.7h3.5v.5c-.5,1.3-1.2,3.2-2,4.9h-.8c.7-1.6,1.3-3.2,1.9-4.7Z"/>
      <path class="cls-1" d="M169.5,80.1c1.6-1.4,2.5-2.4,2.5-3.3s-.3-.9-1-.9-1,.2-1.3.3l-.2-.6c.4-.2,1-.4,1.6-.4,1,0,1.8.5,1.8,1.6s-1,2.2-2.1,3.2h2.2v.7h-3.5v-.6Z"/>
      <path class="cls-1" d="M173.8,78c0-1.8.4-2.8,2-2.8s2,1,2,2.8-.4,2.8-2,2.8-2-1-2-2.8ZM177,78c0-1.3-.1-2.1-1.2-2.1s-1.1.8-1.1,2.1.1,2.1,1.1,2.1,1.2-.8,1.2-2.1Z"/>
      <path class="cls-1" d="M178.7,78.2c0-1.7.5-2.9,2.2-2.9s.9,0,1.3.2v.7c-.4,0-.8-.2-1.2-.2-1,0-1.3.6-1.3,1.7.3,0,.8-.3,1.3-.3,1,0,1.7.5,1.7,1.6s-.6,1.8-1.9,1.8c-1.6,0-2.1-.9-2.1-2.6ZM181.7,79.1c0-.7-.3-1-1-1s-.7,0-1.1.2c0,1.2.2,1.8,1.1,1.8s1-.3,1-1Z"/>
      <path class="cls-1" d="M185.7,76h-2.6v-.7h3.5v.5c-.5,1.3-1.2,3.2-2,4.9h-.8c.7-1.6,1.3-3.2,1.9-4.7Z"/>
    </g>
    <g>
      <path class="cls-1" d="M368.6,75.5h3.2v.7h-2.4v1.6h2v.7h-2v1.7h2.4v.7h-3.2v-5.4Z"/>
      <path class="cls-1" d="M372.8,75.5h1.2l2.3,4.3h0v-4.3h.8v5.4h-1.2l-2.3-4.3h0v4.3h-.8v-5.4Z"/>
      <path class="cls-1" d="M378.7,75.5h1.1l1.3,3.5h0l1.2-3.5h1.1c.1,1.2.2,3.6.3,5.4h-.8c0-1.4-.1-2.9-.2-4.3h0l-1.2,3.5h-.9l-1.2-3.5h0c-.1,1.4-.1,2.9-.2,4.3h-.8c.1-1.8.2-4.2.3-5.4Z"/>
      <path class="cls-1" d="M384.7,80.1c.4,0,1,.2,1.4.2.8,0,1.2-.3,1.2-.9s-.4-.7-1.2-1c-.8-.3-1.5-.6-1.5-1.5s.7-1.5,2-1.5.9,0,1.4.2v.7c-.5,0-1-.2-1.4-.2-.6,0-1.1.2-1.1.7s.6.7,1.3,1c.7.3,1.4.6,1.4,1.6s-.7,1.6-2.1,1.6-1,0-1.5-.2v-.7Z"/>
      <path class="cls-1" d="M393.3,76.2h-2.6v-.7h3.5v.5c-.5,1.3-1.2,3.2-2,4.9h-.8c.7-1.6,1.4-3.2,1.9-4.7Z"/>
      <path class="cls-1" d="M397.2,76.2h-2.6v-.7h3.5v.5c-.5,1.3-1.2,3.2-2,4.9h-.8c.7-1.6,1.3-3.2,1.9-4.7Z"/>
      <path class="cls-1" d="M398.6,78.3c0-1.7.5-2.9,2.2-2.9s.9,0,1.3.2v.7c-.4,0-.9-.2-1.2-.2-1,0-1.3.6-1.3,1.7.3,0,.8-.3,1.3-.3,1,0,1.7.5,1.7,1.6s-.6,1.8-1.9,1.8c-1.6.1-2.1-.8-2.1-2.6ZM401.6,79.3c0-.7-.3-1-1-1s-.8,0-1.1.2c0,1.2.2,1.8,1.1,1.8s1-.3,1-1Z"/>
      <path class="cls-1" d="M403.2,80.3c1.6-1.4,2.5-2.4,2.5-3.3s-.3-.9-1-.9-1,.2-1.3.3l-.2-.6c.4-.2,1-.4,1.6-.4,1,0,1.8.5,1.8,1.6s-1,2.2-2.1,3.2h2.2v.7h-3.5v-.6Z"/>
      <path class="cls-1" d="M407.6,78.3c0-1.7.5-2.9,2.2-2.9s.9,0,1.3.2v.7c-.4,0-.9-.2-1.2-.2-1,0-1.3.6-1.3,1.7.3,0,.8-.3,1.3-.3,1,0,1.7.5,1.7,1.6s-.6,1.8-1.9,1.8c-1.6.1-2.1-.8-2.1-2.6ZM410.5,79.3c0-.7-.3-1-1-1s-.8,0-1.1.2c0,1.2.2,1.8,1.1,1.8s1-.3,1-1Z"/>
      <path class="cls-1" d="M412.2,78.2c0-1.8.4-2.8,2-2.8s2,1,2,2.8-.4,2.8-2,2.8-2-1-2-2.8ZM415.3,78.2c0-1.3-.1-2.1-1.2-2.1s-1.1.8-1.1,2.1.1,2.1,1.1,2.1c1.1,0,1.2-.8,1.2-2.1Z"/>
    </g>
  </g>
  <g>
    <path class="cls-1" d="M180.9,69.8h-74v-1.6h74c16.6,0,30.1-13.5,30.1-30.1s-13.5-30.2-30.1-30.2h-74v-1.5h74c17.5,0,31.7,14.2,31.7,31.7,0,17.4-14.2,31.7-31.7,31.7Z"/>
    <path class="cls-1" d="M107.7,69.8H33.7c-.4,0-.8-.4-.8-.8s.4-.8.8-.8h74c16.6,0,30.1-13.5,30.1-30.1s-13.5-30.2-30.1-30.2h-58.2c-.4,0-.8-.4-.8-.8s.4-.8.8-.8h58.2c17.5,0,31.7,14.2,31.7,31.7s-14.2,31.8-31.7,31.8Z"/>
    <path class="cls-1" d="M403.3,69.8h-74v-1.6h74c16.6,0,30.1-13.5,30.1-30.1s-13.5-30.2-30.1-30.2h-74v-1.5h74c17.5,0,31.7,14.2,31.7,31.7s-14.2,31.7-31.7,31.7Z"/>
    <path class="cls-1" d="M330.1,69.8h-150v-1.6h150c16.6,0,30.1-13.5,30.1-30.1s-13.5-30.2-30.1-30.2h-150v-1.5h150c17.5,0,31.7,14.2,31.7,31.7,0,17.4-14.2,31.7-31.7,31.7Z"/>
    <g>
      <path class="cls-1" d="M74.7,57.3c-.4.2-1.1.3-1.6.3s-1.3-.2-1.7-.7c-.3-.5-.5-1.1-.5-1.9s.2-1.7.7-2.1c.4-.4,1-.5,1.7-.5s.9,0,1.3,0v.8c-.4,0-.9,0-1.3,0s-.8,0-1,.3c-.3.3-.4.8-.4,1.4s0,1,.2,1.3c.2.4.6.5,1,.5s.9,0,1.3-.2l.3.8Z"/>
      <path class="cls-1" d="M75.2,57.6v-5.2h3.2v.9h-2.2v1.2h1.8v.9h-1.8v1.3h2.2v.9s-3.2,0-3.2,0Z"/>
      <path class="cls-1" d="M81.7,57.6c-.4-.7-.7-1.3-1-2h-.7v2h-1v-5.2c.5,0,1.1,0,1.6,0,1.1,0,2.1.3,2.1,1.6s-.3,1.3-1,1.5c.3.6.8,1.4,1.2,2.1h-1.2ZM80,54.8c.5,0,.8,0,1.1,0,.4,0,.5-.3.5-.8s-.4-.7-.9-.7h-.7v1.6Z"/>
      <path class="cls-1" d="M84.2,57.6v-4.3h-1.4v-.9h3.8v.9h-1.4v4.3h-1Z"/>
      <path class="cls-1" d="M87,57.6v-5.2h1v5.2h-1Z"/>
      <path class="cls-1" d="M88.8,57.6v-5.2h3.3v.9h-2.3v1.3h1.9v.9h-1.9v2.1h-1Z"/>
      <path class="cls-1" d="M92.6,57.6v-5.2h1v5.2h-1Z"/>
      <path class="cls-1" d="M94.5,57.6v-5.2h3.2v.9h-2.2v1.2h1.8v.9h-1.8v1.3h2.2v.9s-3.2,0-3.2,0Z"/>
      <path class="cls-1" d="M98.3,52.5c.5,0,1.1,0,1.6,0,1.8,0,2.4.9,2.4,2.7s-.6,2.7-2.4,2.7-1.1,0-1.6,0v-5.2ZM99.3,56.7h.5c1.1,0,1.4-.5,1.4-1.8s-.3-1.8-1.4-1.8h-.5v3.6Z"/>
    </g>
    <g>
      <path class="cls-1" d="M71.3,19.6v-6.6h1v6.6h-1Z"/>
      <path class="cls-1" d="M73.4,18.7c.4.1,1,.1,1.6.1s1.1-.1,1.4-.4c.2-.2.3-.4.3-.7,0-.6-.4-.9-1.5-1.2-1.1-.3-1.9-.8-1.9-1.9s.2-1,.6-1.3c.5-.3,1-.5,1.6-.5s1.3.1,1.8.2v.8c-.5-.1-1.1-.1-1.6-.1s-.9.1-1.1.2c-.2.2-.3.3-.3.6,0,.7.5.9,1.6,1.2s1.8.8,1.8,1.9-.2,1.1-.7,1.5-1.1.5-1.8.5-1.3-.1-1.9-.2v-.7Z"/>
      <path class="cls-1" d="M78.1,16.3c0-2.2.9-3.4,2.9-3.4s2.9,1.2,2.9,3.4-.9,3.4-2.9,3.4c-2.1,0-2.9-1.1-2.9-3.4ZM82.8,16.3c0-1.7-.5-2.5-1.9-2.5s-1.9.8-1.9,2.5.5,2.5,1.9,2.5c1.4.1,1.9-.7,1.9-2.5Z"/>
      <path class="cls-1" d="M89.8,16.9c-.3.2-.9.4-1.5.4s-1.2-.2-1.6-.6c-.3-.3-.5-.9-.5-1.6s.2-1.2.5-1.6c.4-.4,1.1-.6,1.8-.6s1.3.2,1.6.5c.4.4.6.9.6,1.7v2.5c0,.8-.2,1.3-.6,1.7-.4.4-1,.5-1.8.5s-1.3-.1-1.8-.2v-.8c.4.1,1.1.2,1.6.2s1-.1,1.3-.3c.2-.2.3-.6.3-1.1v-.7h0ZM89.8,15.1c0-.9-.3-1.3-1.3-1.3s-1.3.4-1.3,1.3,0,.8.3,1c.2.2.6.3,1,.3s1-.1,1.3-.2v-1.1Z"/>
      <path class="cls-1" d="M91.5,16.3c0-2.2.5-3.4,2.4-3.4s2.4,1.2,2.4,3.4-.5,3.4-2.4,3.4c-1.9,0-2.4-1.2-2.4-3.4ZM95.3,16.3c0-1.6,0-2.6-1.4-2.6s-1.4,1-1.4,2.6,0,2.6,1.4,2.6,1.4-1,1.4-2.6Z"/>
      <path class="cls-1" d="M97,16.3c0-2.2.5-3.4,2.4-3.4s2.4,1.2,2.4,3.4-.5,3.4-2.4,3.4c-1.9,0-2.4-1.2-2.4-3.4ZM100.8,16.3c0-1.6,0-2.6-1.4-2.6s-1.4,1-1.4,2.6,0,2.6,1.4,2.6,1.4-1,1.4-2.6Z"/>
      <path class="cls-1" d="M103.5,19.6v-5.6l-1.4.5-.3-.7,1.8-.9h.9v6.6h-1Z"/>
      <path class="cls-1" d="M74.5,29.3c-1.1-.6-2-.9-2.6-1.3-.5-.4-1-1-1-2.4s.7-2.7,2.2-2.7,2.2.9,2.2,2.7-.2,1.5-.6,1.9-1,.6-1.5.6h0c.5.1,1,.3,1.5.5l-.2.7ZM74.6,25.6c0-1.4-.4-2-1.4-2s-1.5.6-1.5,2,.4,2,1.5,2c.9-.1,1.4-.7,1.4-2Z"/>
      <path class="cls-1" d="M78.3,28.1v-.3c-.4.2-.8.4-1.2.4-.8,0-1.3-.5-1.3-1.3v-2.5h.7v2.4c0,.5.2.7.7.7s.6-.1.9-.2v-2.9h.7v3.7s-.5,0-.5,0Z"/>
      <path class="cls-1" d="M81.7,28.1v-.3c-.4.2-.8.4-1.2.4-.8,0-1.2-.5-1.2-1.2s0-.7.4-.9c.2-.2.6-.3,1-.3h.8v-.3c0-.2,0-.4-.2-.5-.1,0-.3,0-.6,0s-.8.1-1,.1v-.6c.2-.1.7-.2,1.1-.2s.9.1,1.1.3c.2.2.4.5.4,1v2.6h-.6ZM81.5,26.5h-.7c-.5,0-.8.2-.8.6s.2.6.6.6.6-.1.8-.3v-.9h0Z"/>
      <path class="cls-1" d="M82.9,28.1v-5.1h.7v5.2h-.7Z"/>
      <path class="cls-1" d="M84.8,22.9c.2,0,.4.2.4.4s-.2.4-.4.4-.4-.2-.4-.4,0-.4.4-.4ZM84.4,28.1v-3.7h.7v3.7h-.7Z"/>
      <path class="cls-1" d="M87.8,28c-.2.1-.6.2-.9.2-.6,0-1-.3-1-1v-2.2h-.6v-.5h.6v-1.1h.8v1.1h1v.5h-1v2.1c0,.3,0,.5.3.5s.3,0,.5-.1l.3.5Z"/>
      <path class="cls-1" d="M88.9,29.6c.2-.6.4-1.1.5-1.5h-.4c-.4-1-.8-2.4-1.1-3.7h.8c.2,1.1.5,2.1.8,3.1h0c.3-.9.6-2.1.9-3.1h.7c-.4,1.7-1,3.7-1.6,5.2,0,0-.7,0-.7,0Z"/>
      <path class="cls-1" d="M75.4,36.6c0-1.4,0-2.8-.2-4.2h0l-1.2,3.4h-.8l-1.2-3.3h0c0,1.4,0,2.8-.2,4.2h-.8c0-1.7,0-3.5.2-5.2h1.1l1.2,3.4h0l1.2-3.4h1.1c0,1.7.2,3.5.2,5.2h-.6Z"/>
      <path class="cls-1" d="M79.1,36.6v-.3c-.4.2-.8.4-1.2.4-.8,0-1.2-.5-1.2-1.2s0-.7.4-.9c.2-.2.6-.3,1-.3h.8v-.3c0-.2,0-.4-.2-.5s-.4-.2-.7-.2-.8,0-1,0v-.4c.2,0,.7-.2,1.1-.2s.9,0,1.1.3.4.5.4,1v2.6h-.5ZM78.9,35h-.7c-.5,0-.8.2-.8.6s.2.6.6.6.6,0,.8-.3v-.9h0Z"/>
      <path class="cls-1" d="M82.6,36.6v-2.4c0-.5-.2-.7-.6-.7s-.7,0-.9.2v2.9h-.7v-3.7h.5v.3c.4-.2.8-.4,1.2-.4.8,0,1.3.5,1.3,1.3v2.5s-.8,0-.8,0Z"/>
      <path class="cls-1" d="M86.2,36.6v-.3c-.4.2-.8.4-1.2.4-.8,0-1.2-.5-1.2-1.2s0-.7.4-.9c.2-.2.6-.3,1-.3h.8v-.3c0-.2,0-.4-.2-.5s-.4-.2-.7-.2-.8,0-1,0v-.4c.2,0,.7-.2,1.1-.2s.9,0,1.1.3.4.5.4,1v2.6h-.5ZM86,35h-.7c-.5,0-.8.2-.8.6s.2.6.6.6.6,0,.8-.3v-.9h0Z"/>
      <path class="cls-1" d="M89.5,36.4c-.3.2-.6.3-.9.3-1.1,0-1.4-.7-1.4-1.9s.4-2,1.5-2,1.2,0,1.6.3v3.9c0,.4,0,.7-.3.9-.3.2-.7.3-1.1.3s-.9,0-1.2,0v-.6c.4,0,.8,0,1.1,0s.6,0,.7-.2c0,0,0-.3,0-.5v-.5h0ZM89.5,33.6c-.2,0-.5,0-.8,0-.6,0-.8.4-.8,1.3s.2,1.3.8,1.3.6,0,.8-.2v-2.3Z"/>
      <path class="cls-1" d="M93.7,36.4c-.3.2-.8.3-1.3.3-1.1,0-1.7-.7-1.7-1.9s.5-2,1.6-2,1.4.6,1.4,1.6,0,.4,0,.6h-2.2c0,.3,0,.6.2.8.2.2.4.3.7.3s.8,0,1.1-.2l.3.5ZM93,34.5c0-.6-.2-1-.8-1s-.8.5-.8,1h1.6Z"/>
      <path class="cls-1" d="M98.6,36.6v-2.5c0-.5-.2-.7-.6-.7s-.6,0-.9.3v2.9h-.7v-2.5c0-.5-.2-.7-.6-.7s-.6,0-.8.2v2.9h-.7v-3.7h.5v.3c.4-.2.7-.4,1.2-.4s.8.2,1,.5c.3-.3.7-.5,1.2-.5.8,0,1.3.5,1.3,1.4v2.4h-.9Z"/>
      <path class="cls-1" d="M102.7,36.4c-.3.2-.8.3-1.3.3-1.1,0-1.7-.7-1.7-1.9s.5-2,1.6-2,1.4.6,1.4,1.6,0,.4,0,.6h-2.2c0,.3,0,.6.2.8.2.2.4.3.7.3s.8,0,1.1-.2l.3.5ZM102.1,34.5c0-.6-.2-1-.8-1s-.8.5-.8,1h1.6Z"/>
      <path class="cls-1" d="M105.5,36.6v-2.4c0-.5-.2-.7-.6-.7s-.7,0-.9.2v2.9h-.7v-3.7h.5v.3c.4-.2.8-.4,1.2-.4.8,0,1.3.5,1.3,1.3v2.5s-.8,0-.8,0Z"/>
      <path class="cls-1" d="M108.9,36.5c-.2,0-.6.2-.9.2-.6,0-1-.3-1-1v-2.2h-.6v-.5h.6v-1.1h.8v1.1h1v.6h-1v2.1c0,.3,0,.5.3.5s.3,0,.5,0l.3.4Z"/>
      <path class="cls-1" d="M71.1,44.4c.3,0,.8,0,1.2,0s.9,0,1.1-.3c0,0,.2-.3.2-.5,0-.5-.3-.7-1.2-.9-.9-.3-1.5-.6-1.5-1.5s.2-.8.5-1c.4-.3.8-.4,1.3-.4s1,0,1.4.2v.6c-.4,0-.9,0-1.3,0s-.7,0-.9.2c-.2,0-.2.3-.2.5,0,.5.4.7,1.3.9.8.3,1.4.6,1.4,1.5s-.2.9-.5,1.1c-.4.3-.9.4-1.4.4s-1,0-1.5-.2v-.6Z"/>
      <path class="cls-1" d="M75.6,46.6c.2-.6.4-1.1.5-1.5h-.4c-.4-1-.8-2.4-1.1-3.7h.8c.2,1.1.5,2.1.8,3.1h0c.3-.9.6-2.1.9-3.1h.7c-.4,1.7-1,3.7-1.6,5.2h-.7Z"/>
      <path class="cls-1" d="M78.2,44.5c.3,0,.7,0,1.1,0s.5,0,.7,0c0,0,.2-.2.2-.3,0-.3-.2-.4-.9-.6-.6-.2-1.1-.4-1.1-1.1s.2-.7.5-.9.6-.2,1-.2.8,0,1.1,0v.6c-.5,0-.8,0-1.2,0s-.5,0-.7,0c0,0-.2.2-.2.3,0,.3.3.4,1,.6.7.2,1,.5,1,1.1s-.2.7-.4.9c-.3.2-.7.3-1.1.3s-.9,0-1.2,0l.2-.7Z"/>
      <path class="cls-1" d="M83.2,45c-.2,0-.6.2-.9.2-.6,0-1-.3-1-1v-2.2h-.6v-.5h.6v-1.1h.8v1.1h1v.5h-1v2.1c0,.3,0,.5.3.5s.3,0,.5,0l.3.5Z"/>
      <path class="cls-1" d="M86.3,44.9c-.3.2-.8.3-1.3.3-1.1,0-1.7-.7-1.7-1.9s.5-2,1.6-2,1.4.6,1.4,1.6,0,.4,0,.6h-2.2c0,.3,0,.6.2.8.2.2.4.3.7.3s.8,0,1.1-.2l.3.5ZM85.7,43c0-.6-.2-1-.8-1s-.8.5-.8,1h1.6Z"/>
      <path class="cls-1" d="M91.2,45.1v-2.5c0-.5-.2-.7-.6-.7s-.6,0-.9.3v2.9h-.7v-2.5c0-.5-.2-.7-.6-.7s-.6,0-.8.2v2.9h-.7v-3.7h.5v.3c.4-.2.7-.4,1.2-.4s.8.2,1,.5c.3-.3.7-.5,1.2-.5.8,0,1.3.5,1.3,1.4v2.4h-.9Z"/>
      <path class="cls-1" d="M92.5,44.5c.3,0,.7,0,1.1,0s.5,0,.7,0c0,0,.2-.2.2-.3,0-.3-.2-.4-.9-.6-.6-.2-1.1-.4-1.1-1.1s.2-.7.5-.9.6-.2,1-.2.8,0,1.1,0v.6c-.5,0-.8,0-1.1,0s-.5,0-.7,0c0,0-.2.2-.2.3,0,.3.3.4,1,.6.7.2,1,.5,1,1.1s-.2.7-.4.9c-.3.2-.7.3-1.1.3s-.9,0-1.2,0v-.7Z"/>
    </g>
    <g>
      <path class="cls-1" d="M148.2,57.3c-.4.2-1.1.3-1.6.3s-1.3-.2-1.7-.7c-.3-.5-.5-1.1-.5-1.9s.2-1.7.7-2.1c.4-.4,1-.5,1.7-.5s.9,0,1.3,0v.8c-.4,0-.9,0-1.3,0s-.8,0-1,.3c-.3.3-.4.8-.4,1.4s.1,1,.2,1.3c.2.4.6.5,1,.5s.9,0,1.3-.2l.3.8Z"/>
      <path class="cls-1" d="M148.7,57.6v-5.2h3.2v.9h-2.2v1.2h1.8v.9h-1.8v1.3h2.2v.9s-3.2,0-3.2,0Z"/>
      <path class="cls-1" d="M155.2,57.6c-.4-.7-.7-1.3-1-2h-.7v2h-1v-5.2c.5,0,1.1,0,1.6,0,1.1,0,2.1.3,2.1,1.6s-.3,1.3-1,1.5c.3.6.8,1.4,1.2,2.1h-1.2ZM153.5,54.8c.5,0,.8,0,1.1,0,.4,0,.5-.3.5-.8s-.4-.7-.9-.7h-.7v1.6h0Z"/>
      <path class="cls-1" d="M157.8,57.6v-4.3h-1.4v-.9h3.8v.9h-1.4v4.3h-1Z"/>
      <path class="cls-1" d="M160.5,57.6v-5.2h1v5.2h-1Z"/>
      <path class="cls-1" d="M162.4,57.6v-5.2h3.3v.9h-2.3v1.3h1.9v.9h-1.9v2.1h-1Z"/>
      <path class="cls-1" d="M166.2,57.6v-5.2h1v5.2h-1Z"/>
      <path class="cls-1" d="M168,57.6v-5.2h3.2v.9h-2.2v1.2h1.8v.9h-1.8v1.3h2.2v.9s-3.2,0-3.2,0Z"/>
      <path class="cls-1" d="M171.8,52.5c.5,0,1.1,0,1.6,0,1.8,0,2.4.9,2.4,2.7s-.6,2.7-2.4,2.7-1.1,0-1.6,0v-5.2ZM172.8,56.7h.5c1.1,0,1.4-.5,1.4-1.8s-.3-1.8-1.4-1.8h-.5v3.6Z"/>
    </g>
    <g>
      <path class="cls-1" d="M144.9,19.6v-6.6h1v6.6h-1Z"/>
      <path class="cls-1" d="M146.9,18.7c.4.1,1,.1,1.6.1s1.1-.1,1.4-.4c.2-.2.3-.4.3-.7,0-.6-.4-.9-1.5-1.2-1.1-.3-1.9-.8-1.9-1.9s.2-1,.6-1.3c.5-.3,1-.5,1.6-.5s1.3.1,1.8.2v.8c-.5-.1-1.1-.1-1.6-.1s-.9.1-1.1.2c-.2.2-.3.3-.3.6,0,.7.5.9,1.6,1.2s1.8.8,1.8,1.9-.2,1.1-.7,1.5-1.1.5-1.8.5-1.3-.1-1.9-.2v-.7Z"/>
      <path class="cls-1" d="M151.6,16.3c0-2.2.9-3.4,2.9-3.4s2.9,1.2,2.9,3.4-.9,3.4-2.9,3.4c-2,0-2.9-1.1-2.9-3.4ZM156.3,16.3c0-1.7-.5-2.5-1.9-2.5s-1.9.8-1.9,2.5.5,2.5,1.9,2.5c1.4.1,1.9-.7,1.9-2.5Z"/>
      <path class="cls-1" d="M160.9,19.6v-5.6l-1.4.5-.3-.7,1.8-.8h.9v6.6h-1Z"/>
      <path class="cls-1" d="M165.9,19.6v-1.3h-3.1v-.8c.7-1.4,1.7-3,2.6-4.6h1.1c-1,1.6-1.8,3.1-2.6,4.5h2v-1.4h1v1.5h1.1v.9h-1.1v1.3h-1Z"/>
      <path class="cls-1" d="M168.3,16.3c0-2.2.5-3.4,2.4-3.4s2.4,1.2,2.4,3.4-.5,3.4-2.4,3.4c-1.9,0-2.4-1.2-2.4-3.4ZM172.1,16.3c0-1.6-.1-2.6-1.4-2.6s-1.4,1-1.4,2.6.1,2.6,1.4,2.6,1.4-1,1.4-2.6Z"/>
      <path class="cls-1" d="M173.8,16.3c0-2.2.5-3.4,2.4-3.4s2.4,1.2,2.4,3.4-.5,3.4-2.4,3.4c-1.9,0-2.4-1.2-2.4-3.4ZM177.6,16.3c0-1.6-.1-2.6-1.4-2.6s-1.4,1-1.4,2.6.1,2.6,1.4,2.6,1.4-1,1.4-2.6Z"/>
      <path class="cls-1" d="M180.3,19.6v-5.6l-1.4.5-.3-.7,1.8-.9h.9v6.6h-1Z"/>
      <path class="cls-1" d="M144.7,28.1v-5.1h3.1v.7h-2.3v1.5h1.9v.7h-1.9v1.7h2.3v.7h-3.1v-.2Z"/>
      <path class="cls-1" d="M150.5,28.1v-2.4c0-.5-.2-.7-.6-.7s-.7.1-.9.2v2.9h-.7v-3.7h.5v.3c.4-.2.8-.4,1.2-.4.8,0,1.3.5,1.3,1.3v2.5s-.8,0-.8,0Z"/>
      <path class="cls-1" d="M152.7,28.1c-.5-1.2-.9-2.5-1.1-3.7h.8c.2,1.1.5,2.2.9,3.1h.1c.3-.9.6-2,.9-3.1h.8c-.3,1.2-.7,2.5-1.1,3.7h-1.3Z"/>
      <path class="cls-1" d="M155.6,22.9c.2,0,.4.2.4.4s-.2.4-.4.4-.4-.2-.4-.4c0-.2.2-.4.4-.4ZM155.2,28.1v-3.7h.7v3.7h-.7Z"/>
      <path class="cls-1" d="M156.7,28.1v-3.7h.5v.5h.1c.3-.4.6-.5,1.1-.5h.3v.7h-.4c-.3,0-.6.1-.9.3v2.9h-.7v-.2Z"/>
      <path class="cls-1" d="M160.5,28.2c-.5,0-.9-.1-1.2-.4s-.5-.9-.5-1.5.1-1.2.5-1.5c.3-.3.7-.4,1.2-.4s.9.1,1.2.4.5.9.5,1.5-.1,1.2-.5,1.5c-.3.3-.7.4-1.2.4ZM161.4,26.3c0-.5-.1-.8-.3-1-.1-.2-.4-.3-.7-.3s-.5.1-.7.3c-.2.2-.3.6-.3,1s.1.8.3,1c.1.2.4.3.7.3s.5-.1.7-.3c.2-.2.3-.6.3-1Z"/>
      <path class="cls-1" d="M164.9,28.1v-2.4c0-.5-.2-.7-.6-.7s-.7.1-.9.2v2.9h-.7v-3.7h.5v.3c.4-.2.8-.4,1.2-.4.8,0,1.3.5,1.3,1.3v2.5s-.8,0-.8,0Z"/>
      <path class="cls-1" d="M170.7,28.1v-2.5c0-.5-.2-.7-.6-.7s-.6.1-.9.3v2.9h-.7v-2.5c0-.5-.2-.7-.6-.7s-.6.1-.8.2v2.9h-.7v-3.7h.5v.3c.4-.2.7-.4,1.2-.4s.8.2,1,.5c.3-.3.7-.5,1.2-.5.8,0,1.3.5,1.3,1.4v2.4h-.9Z"/>
      <path class="cls-1" d="M174.8,27.9c-.3.2-.8.3-1.3.3-1.1,0-1.7-.7-1.7-1.9s.5-2,1.6-2,1.4.6,1.4,1.6,0,.4-.1.6h-2.2c0,.3.1.6.2.8.2.2.4.3.7.3s.8-.1,1.1-.2l.3.5ZM174.2,26c0-.6-.2-1-.8-1s-.8.5-.8,1h1.6Z"/>
      <path class="cls-1" d="M177.6,28.1v-2.4c0-.5-.2-.7-.6-.7s-.7.1-.9.2v2.9h-.7v-3.7h.5v.3c.4-.2.8-.4,1.2-.4.8,0,1.3.5,1.3,1.3v2.5s-.8,0-.8,0Z"/>
      <path class="cls-1" d="M181,28c-.2.1-.6.2-.9.2-.6,0-1-.3-1-1v-2.2h-.6v-.5h.6v-1.1h.8v1.1h1v.5h-1v2.1c0,.3,0,.5.3.5s.3,0,.5-.1l.3.5Z"/>
      <path class="cls-1" d="M183.5,28.1v-.3c-.4.2-.8.4-1.2.4-.8,0-1.2-.5-1.2-1.2s.1-.7.4-.9c.2-.2.6-.3,1-.3h.8v-.3c0-.2-.1-.4-.2-.5-.1-.1-.4-.2-.7-.2s-.8.1-1,.1v-.6c.2-.1.7-.2,1.1-.2s.9.1,1.1.3c.2.2.4.5.4,1v2.6h-.5ZM183.3,26.5h-.7c-.5,0-.8.2-.8.6s.2.6.6.6.6-.1.8-.3v-.9h0Z"/>
      <path class="cls-1" d="M184.8,28.1v-5.1h.7v5.2h-.7Z"/>
      <path class="cls-1" d="M149,36.6c0-1.4-.1-2.8-.2-4.2h0l-1.2,3.3h-.8l-1.2-3.3h0c-.1,1.4-.1,2.8-.2,4.2h-.8c.1-1.7.1-3.5.2-5.2h1.1l1.2,3.4h0l1.2-3.4h1.1c.1,1.7.2,3.5.2,5.2h-.6Z"/>
      <path class="cls-1" d="M152.6,36.6v-.3c-.4.2-.8.4-1.2.4-.8,0-1.2-.5-1.2-1.2s.1-.7.4-.9c.2-.2.6-.3,1-.3h.8v-.3c0-.2-.1-.4-.2-.5-.1,0-.4-.2-.7-.2s-.8,0-1,0v-.6c.2,0,.7-.2,1.1-.2s.9,0,1.1.3c.2.2.4.5.4,1v2.6h-.5ZM152.4,35h-.7c-.5,0-.8.2-.8.6s.2.6.6.6.6,0,.8-.3v-.9h0Z"/>
      <path class="cls-1" d="M156.1,36.6v-2.4c0-.5-.2-.7-.6-.7s-.7,0-.9.2v2.9h-.7v-3.7h.5v.3c.4-.2.8-.4,1.2-.4.8,0,1.3.5,1.3,1.3v2.5s-.8,0-.8,0Z"/>
      <path class="cls-1" d="M159.7,36.6v-.3c-.4.2-.8.4-1.2.4-.8,0-1.2-.5-1.2-1.2s.1-.7.4-.9c.2-.2.6-.3,1-.3h.8v-.3c0-.2-.1-.4-.2-.5-.1,0-.4-.2-.7-.2s-.8,0-1,0v-.6c.2,0,.7-.2,1.1-.2s.9,0,1.1.3c.2.2.4.5.4,1v2.6h-.5ZM159.5,35h-.7c-.5,0-.8.2-.8.6s.2.6.6.6.6,0,.8-.3v-.9h0Z"/>
      <path class="cls-1" d="M163.1,36.4c-.3.2-.6.3-.9.3-1.1,0-1.4-.7-1.4-1.9s.4-2,1.5-2,1.2,0,1.6.3v3.9c0,.4-.1.7-.3.9-.3.2-.7.3-1.1.3s-.9,0-1.2,0v-.6c.4,0,.8,0,1.1,0s.6,0,.7-.2c.1,0,.1-.3.1-.5v-.5h-.1ZM163.1,33.6c-.2,0-.5,0-.8,0-.6,0-.8.4-.8,1.3s.2,1.3.8,1.3.6,0,.8-.2v-2.3Z"/>
      <path class="cls-1" d="M167.2,36.4c-.3.2-.8.3-1.3.3-1.1,0-1.7-.7-1.7-1.9s.5-2,1.6-2,1.4.6,1.4,1.6,0,.4-.1.6h-2.1c0,.3.1.6.2.8.2.2.4.3.7.3s.8,0,1.1-.2l.2.5ZM166.6,34.5c0-.6-.2-1-.8-1s-.8.5-.8,1h1.6Z"/>
      <path class="cls-1" d="M172.1,36.6v-2.5c0-.5-.2-.7-.6-.7s-.6,0-.9.3v2.9h-.7v-2.5c0-.5-.2-.7-.6-.7s-.6,0-.8.2v2.9h-.7v-3.7h.5v.3c.4-.2.7-.4,1.2-.4s.8.2,1,.5c.3-.3.7-.5,1.2-.5.8,0,1.3.5,1.3,1.4v2.4h-.9Z"/>
      <path class="cls-1" d="M176.2,36.4c-.3.2-.8.3-1.3.3-1.1,0-1.7-.7-1.7-1.9s.5-2,1.6-2,1.4.6,1.4,1.6,0,.4-.1.6h-2.1c0,.3.1.6.2.8.2.2.4.3.7.3s.8,0,1.1-.2l.2.5ZM175.6,34.5c0-.6-.2-1-.8-1s-.8.5-.8,1h1.6Z"/>
      <path class="cls-1" d="M179,36.6v-2.4c0-.5-.2-.7-.6-.7s-.7,0-.9.2v2.9h-.7v-3.7h.5v.3c.4-.2.8-.4,1.2-.4.8,0,1.3.5,1.3,1.3v2.5s-.8,0-.8,0Z"/>
      <path class="cls-1" d="M182.4,36.5c-.2,0-.6.2-.9.2-.6,0-1-.3-1-1v-2.2h-.5v-.5h.6v-1.1h.8v1.1h1v.6h-1v2.1c0,.3,0,.5.3.5s.3,0,.5,0l.2.4Z"/>
    </g>
    <g>
      <path class="cls-1" d="M297.2,57.3c-.4.2-1.1.3-1.6.3s-1.3-.2-1.7-.7c-.3-.5-.5-1.1-.5-1.9s.2-1.7.7-2.1c.4-.4,1-.5,1.7-.5s.9,0,1.3,0v.8c-.4,0-.9,0-1.3,0s-.8,0-1,.3c-.3.3-.4.8-.4,1.4s.1,1,.2,1.3c.2.4.6.5,1,.5s.9,0,1.3-.2l.3.8Z"/>
      <path class="cls-1" d="M297.7,57.6v-5.2h3.2v.9h-2.2v1.2h1.8v.9h-1.8v1.3h2.2v.9s-3.2,0-3.2,0Z"/>
      <path class="cls-1" d="M304.2,57.6c-.4-.7-.7-1.3-1-2h-.7v2h-1v-5.2c.5,0,1.1,0,1.6,0,1.1,0,2.1.3,2.1,1.6s-.3,1.3-1,1.5c.3.6.8,1.4,1.2,2.1h-1.2ZM302.5,54.8c.5,0,.8,0,1.1,0,.4,0,.5-.3.5-.8s-.4-.7-.9-.7h-.7v1.6h0Z"/>
      <path class="cls-1" d="M306.7,57.6v-4.3h-1.4v-.9h3.8v.9h-1.4v4.3h-1Z"/>
      <path class="cls-1" d="M309.5,57.6v-5.2h1v5.2h-1Z"/>
      <path class="cls-1" d="M311.4,57.6v-5.2h3.3v.9h-2.3v1.3h1.9v.9h-1.9v2.1h-1Z"/>
      <path class="cls-1" d="M315.1,57.6v-5.2h1v5.2h-1Z"/>
      <path class="cls-1" d="M317,57.6v-5.2h3.2v.9h-2.2v1.2h1.8v.9h-1.8v1.3h2.2v.9s-3.2,0-3.2,0Z"/>
      <path class="cls-1" d="M320.8,52.5c.5,0,1.1,0,1.6,0,1.8,0,2.4.9,2.4,2.7s-.6,2.7-2.4,2.7-1.1,0-1.6,0v-5.2ZM321.8,56.7h.5c1.1,0,1.4-.5,1.4-1.8s-.3-1.8-1.4-1.8h-.5v3.6Z"/>
    </g>
    <g>
      <path class="cls-1" d="M294,19.6v-6.6h1v6.6h-1Z"/>
      <path class="cls-1" d="M296,18.7c.4.1,1,.1,1.6.1s1.1-.1,1.4-.4c.2-.2.3-.4.3-.7,0-.6-.4-.9-1.5-1.2-1.1-.3-1.9-.8-1.9-1.9s.2-1,.6-1.3c.5-.3,1-.5,1.6-.5s1.3.1,1.8.2v.8c-.5-.1-1.1-.1-1.6-.1s-.9.1-1.1.2c-.2.2-.3.3-.3.6,0,.7.5.9,1.6,1.2s1.8.8,1.8,1.9-.2,1.1-.7,1.5-1.1.5-1.8.5-1.3-.1-1.9-.2v-.7Z"/>
      <path class="cls-1" d="M300.8,16.3c0-2.2.9-3.4,2.9-3.4s2.9,1.2,2.9,3.4-.9,3.4-2.9,3.4c-2.1,0-2.9-1.1-2.9-3.4ZM305.5,16.3c0-1.7-.5-2.5-1.9-2.5s-1.9.8-1.9,2.5.5,2.5,1.9,2.5c1.3.1,1.9-.7,1.9-2.5Z"/>
      <path class="cls-1" d="M311.8,19.6v-1.3h-3.1v-.8c.7-1.4,1.7-3,2.6-4.6h1.1c-1,1.6-1.8,3.1-2.6,4.5h2v-1.5h1v1.5h1.1v.9h-1.1v1.3h-1Z"/>
      <path class="cls-1" d="M314.3,18.7c.3.1,1,.2,1.6.2s1.1-.1,1.3-.4c.2-.2.3-.6.3-1,0-1-.4-1.3-1.4-1.3h-1.9v-3.2h3.9v.9h-2.8v1.4c-.1,0,.9,0,.9,0,1.4,0,2.2.6,2.2,2.2s-.2,1.3-.7,1.7c-.5.4-1.1.5-1.8.5s-1.3-.1-1.9-.2l.3-.8Z"/>
      <path class="cls-1" d="M319.2,16.3c0-2.2.5-3.4,2.4-3.4s2.4,1.2,2.4,3.4-.5,3.4-2.4,3.4c-1.9,0-2.4-1.2-2.4-3.4ZM323,16.3c0-1.6-.1-2.6-1.4-2.6s-1.4,1-1.4,2.6.1,2.6,1.4,2.6,1.4-1,1.4-2.6Z"/>
      <path class="cls-1" d="M324.7,16.3c0-2.2.5-3.4,2.4-3.4s2.4,1.2,2.4,3.4-.5,3.4-2.4,3.4c-1.9,0-2.4-1.2-2.4-3.4ZM328.5,16.3c0-1.6-.1-2.6-1.4-2.6s-1.4,1-1.4,2.6.1,2.6,1.4,2.6,1.4-1,1.4-2.6Z"/>
      <path class="cls-1" d="M331.2,19.6v-5.6l-1.4.5-.3-.7,1.8-.9h.9v6.6h-1Z"/>
      <path class="cls-1" d="M293.5,25.6c0-1.8.7-2.7,2.2-2.7s2.2.9,2.2,2.7-.7,2.7-2.2,2.7c-1.5-.1-2.2-1-2.2-2.7ZM297.2,25.6c0-1.4-.4-2-1.4-2s-1.4.6-1.4,2,.4,2,1.4,2c1-.1,1.4-.7,1.4-2Z"/>
      <path class="cls-1" d="M301.2,27.9c-.3.2-.8.3-1.3.3-1,0-1.6-.5-1.6-1.9s.8-2,1.7-2,.7,0,1,.1v.6c-.4,0-.7-.1-.9-.1-.7,0-1.1.3-1.1,1.3s.3,1.3.9,1.3.7-.1,1-.2l.3.6Z"/>
      <path class="cls-1" d="M304.3,27.9c-.3.2-.8.3-1.3.3-1,0-1.6-.5-1.6-1.9s.8-2,1.7-2,.7,0,1,.1v.6c-.4,0-.7-.1-.9-.1-.7,0-1.1.3-1.1,1.3s.3,1.3.9,1.3.7-.1,1-.2l.3.6Z"/>
      <path class="cls-1" d="M307.1,28.1v-.3c-.4.2-.8.4-1.2.4-.8,0-1.3-.5-1.3-1.3v-2.5h.7v2.4c0,.5.2.7.7.7s.6-.1.9-.2v-2.9h.7v3.7s-.5,0-.5,0Z"/>
      <path class="cls-1" d="M308.4,29.6v-5.2h.5v.3c.4-.2.8-.4,1.1-.4,1,0,1.4.7,1.4,1.9s-.4,2-1.5,2-.6,0-.9-.1v1.5h-.6ZM309.1,27.5c.2,0,.5.1.8.1.6,0,.8-.4.8-1.3s-.2-1.3-.8-1.3-.6.1-.8.2v2.3Z"/>
      <path class="cls-1" d="M314.2,28.1v-.3c-.4.2-.8.4-1.2.4-.8,0-1.2-.5-1.2-1.2s.1-.7.4-.9c.2-.2.6-.3,1-.3h.8v-.3c0-.2-.1-.4-.2-.5-.1-.1-.4-.2-.7-.2s-.8.1-1,.1v-.6c.2-.1.7-.2,1.1-.2s.9.1,1.1.3c.2.2.4.5.4,1v2.6h-.5ZM314,26.5h-.7c-.5,0-.8.2-.8.6s.2.6.6.6.6-.1.8-.3v-.9h0Z"/>
      <path class="cls-1" d="M317.4,28c-.2.1-.6.2-.9.2-.6,0-1-.3-1-1v-2.2h-.5v-.5h.6v-1.1h.8v1.1h1v.5h-1v2.1c0,.3,0,.5.3.5s.3,0,.5-.1l.2.5Z"/>
      <path class="cls-1" d="M318.1,22.9c.2,0,.4.2.4.4s-.2.4-.4.4-.4-.2-.4-.4c0-.2.2-.4.4-.4ZM317.7,28.1v-3.7h.7v3.7h-.7Z"/>
      <path class="cls-1" d="M320.6,28.2c-.5,0-.9-.1-1.2-.4s-.5-.9-.5-1.5.1-1.2.5-1.5c.3-.3.7-.4,1.2-.4s.9.1,1.2.4.5.9.5,1.5-.1,1.2-.5,1.5c-.3.3-.6.4-1.2.4ZM321.6,26.3c0-.5-.1-.8-.3-1-.1-.2-.4-.3-.7-.3s-.5.1-.7.3c-.2.2-.3.6-.3,1s.1.8.3,1c.1.2.4.3.7.3s.5-.1.7-.3.3-.6.3-1Z"/>
      <path class="cls-1" d="M325.1,28.1v-2.4c0-.5-.2-.7-.6-.7s-.7.1-.9.2v2.9h-.7v-3.7h.5v.3c.4-.2.8-.4,1.2-.4.8,0,1.3.5,1.3,1.3v2.5s-.8,0-.8,0Z"/>
      <path class="cls-1" d="M328.6,28.1v-.3c-.4.2-.8.4-1.2.4-.8,0-1.2-.5-1.2-1.2s.1-.7.4-.9c.2-.2.6-.3,1-.3h.8v-.3c0-.2-.1-.4-.2-.5-.1-.1-.4-.2-.7-.2s-.8.1-1,.1v-.6c.2-.1.7-.2,1.1-.2s.9.1,1.1.3c.2.2.4.5.4,1v2.6h-.5ZM328.4,26.5h-.7c-.5,0-.8.2-.8.6s.2.6.6.6.6-.1.8-.3v-.9h0Z"/>
      <path class="cls-1" d="M329.9,28.1v-5.1h.7v5.2h-.7Z"/>
      <path class="cls-1" d="M296.9,36.6v-2.4h-2.3v2.4h-.8v-5.2h.8v2.2h2.3v-2.2h.8v5.2h-.8Z"/>
      <path class="cls-1" d="M301.2,36.4c-.3.2-.8.3-1.3.3-1.1,0-1.7-.7-1.7-1.9s.5-2,1.6-2,1.4.6,1.4,1.6,0,.4-.1.6h-2.2c0,.3.1.6.2.8.2.2.4.3.7.3s.8,0,1.1-.2l.3.5ZM300.5,34.5c0-.6-.2-1-.8-1s-.8.5-.8,1h1.6Z"/>
      <path class="cls-1" d="M303.9,36.6v-.3c-.4.2-.8.4-1.2.4-.8,0-1.2-.5-1.2-1.2s.1-.7.4-.9c.2-.2.6-.3,1-.3h.8v-.3c0-.2-.1-.4-.2-.5-.1,0-.4-.2-.7-.2s-.8,0-1,0v-.6c.2,0,.7-.2,1.1-.2s.9,0,1.1.3c.2.2.4.5.4,1v2.6h-.5ZM303.7,35h-.7c-.5,0-.8.2-.8.6s.2.6.6.6.6,0,.8-.3v-.9h0Z"/>
      <path class="cls-1" d="M305.1,36.6v-5.2h.7v5.2h-.7Z"/>
      <path class="cls-1" d="M308.6,36.5c-.2,0-.6.2-.9.2-.6,0-1-.3-1-1v-2.2h-.6v-.5h.6v-1.1h.8v1.1h1v.6h-1v2.1c0,.3,0,.5.3.5s.3,0,.5,0l.3.4Z"/>
      <path class="cls-1" d="M311.2,36.6v-2.4c0-.5-.2-.7-.6-.7s-.7,0-.9.2v2.9h-.7v-5.2h.7v1.7c.3-.2.6-.3,1-.3.8,0,1.3.5,1.3,1.3v2.5h-.8Z"/>
      <path class="cls-1" d="M316.3,36.6v-.3c-.4.2-.8.4-1.2.4-.8,0-1.2-.5-1.2-1.2s.1-.7.4-.9c.2-.2.6-.3,1-.3h.8v-.3c0-.2-.1-.4-.2-.5-.1,0-.4-.2-.7-.2s-.8,0-1,0v-.6c.2,0,.7-.2,1.1-.2s.9,0,1.1.3c.2.2.4.5.4,1v2.6h-.5ZM316.1,35h-.7c-.5,0-.8.2-.8.6s.2.6.6.6.6,0,.8-.3v-.9h0Z"/>
      <path class="cls-1" d="M319.8,36.6v-2.4c0-.5-.2-.7-.6-.7s-.7,0-.9.2v2.9h-.7v-3.7h.5v.3c.4-.2.8-.4,1.2-.4.8,0,1.3.5,1.3,1.3v2.5s-.8,0-.8,0Z"/>
      <path class="cls-1" d="M323.6,36.6v-.3c-.4.2-.8.4-1.1.4-1,0-1.4-.7-1.4-1.9s.4-2,1.5-2,.6,0,.9,0v-1.5h.7v5.2h-.6ZM323.4,33.6c-.2,0-.5,0-.8,0-.6,0-.8.4-.8,1.3s.2,1.3.8,1.3.5,0,.8-.2v-2.3Z"/>
      <path class="cls-1" d="M326.4,35.9c.3,0,.8,0,1.2,0s.9,0,1.1-.3c.1,0,.2-.3.2-.5,0-.5-.3-.7-1.2-.9-.9-.3-1.5-.6-1.5-1.5s.2-.8.5-1c.4-.3.8-.4,1.3-.4s1,.1,1.4.2v.6c-.4,0-.9,0-1.3,0s-.7,0-.9.2c-.2,0-.2.3-.2.5,0,.5.4.7,1.3.9.8.3,1.4.6,1.4,1.5s-.2.9-.5,1.1c-.4.3-.9.4-1.4.4s-1,0-1.5-.2v-.6Z"/>
      <path class="cls-1" d="M332.5,36.6v-.3c-.4.2-.8.4-1.2.4-.8,0-1.2-.5-1.2-1.2s.1-.7.4-.9c.2-.2.6-.3,1-.3h.8v-.3c0-.2-.1-.4-.2-.5-.1,0-.4-.2-.7-.2s-.8,0-1,0v-.6c.2,0,.7-.2,1.1-.2s.9,0,1.1.3c.2.2.4.5.4,1v2.6h-.5ZM332.3,35h-.7c-.5,0-.8.2-.8.6s.2.6.6.6.6,0,.8-.3v-.9h0Z"/>
      <path class="cls-1" d="M334,36.6v-3.1h-.5v-.5h.5v-.4c0-.4.1-.7.3-.9.2-.2.6-.3,1-.3h.5v.6h-.5c-.2,0-.3,0-.4,0s-.1.2-.1.5v.3h.8v.6h-.8v3.1s-.8,0-.8,0Z"/>
      <path class="cls-1" d="M338.6,36.4c-.3.2-.8.3-1.3.3-1.1,0-1.7-.7-1.7-1.9s.5-2,1.6-2,1.4.6,1.4,1.6,0,.4-.1.6h-2.2c0,.3.1.6.2.8.2.2.4.3.7.3s.8,0,1.1-.2l.3.5ZM337.9,34.5c0-.6-.2-1-.8-1s-.8.5-.8,1h1.6Z"/>
      <path class="cls-1" d="M341.1,36.5c-.2,0-.6.2-.9.2-.6,0-1-.3-1-1v-2.2h-.6v-.5h.6v-1.1h.8v1.1h1v.6h-1v2.1c0,.3,0,.5.3.5s.3,0,.5,0l.3.4Z"/>
      <path class="cls-1" d="M342.1,38.1c.2-.6.4-1.1.5-1.5h-.4c-.4-1-.8-2.4-1.1-3.7h.8c.2,1.1.5,2.1.8,3.1h.1c.3-.9.6-2.1.9-3.1h.7c-.4,1.7-1,3.7-1.6,5.2h-.7Z"/>
      <path class="cls-1" d="M298.1,45.1c0-1.4-.1-2.8-.2-4.2h0l-1.2,3.3h-.8l-1.2-3.3h0c-.1,1.4-.1,2.8-.2,4.2h-.8c.1-1.7.1-3.5.2-5.2h1.1l1.2,3.4h0l1.2-3.4h1.1c.1,1.7.2,3.5.2,5.2h-.6Z"/>
      <path class="cls-1" d="M301.8,45.1v-.3c-.4.2-.8.4-1.2.4-.8,0-1.2-.5-1.2-1.2s.1-.7.4-.9c.2-.2.6-.3,1-.3h.8v-.3c0-.2-.1-.4-.2-.5-.1,0-.4-.2-.7-.2s-.8,0-1,0v-.6c.2,0,.7-.2,1.1-.2s.9,0,1.1.3c.2.2.4.5.4,1v2.6h-.5ZM301.6,43.5h-.7c-.5,0-.8.2-.8.6s.2.6.6.6.6,0,.8-.3v-.9h0Z"/>
      <path class="cls-1" d="M305.3,45.1v-2.4c0-.5-.2-.7-.6-.7s-.7,0-.9.2v2.9h-.8v-3.7h.5v.3c.4-.2.8-.4,1.2-.4.8,0,1.3.5,1.3,1.3v2.5s-.7,0-.7,0Z"/>
      <path class="cls-1" d="M308.8,45.1v-.3c-.4.2-.8.4-1.2.4-.8,0-1.2-.5-1.2-1.2s.1-.7.4-.9c.2-.2.6-.3,1-.3h.8v-.3c0-.2-.1-.4-.2-.5-.1,0-.4-.2-.7-.2s-.8,0-1,0v-.6c.2,0,.7-.2,1.1-.2s.9,0,1.1.3c.2.2.4.5.4,1v2.6h-.5ZM308.6,43.5h-.7c-.5,0-.8.2-.8.6s.2.6.6.6.6,0,.8-.3v-.9h0Z"/>
      <path class="cls-1" d="M312.2,44.9c-.3.2-.6.3-.9.3-1.1,0-1.4-.7-1.4-1.9s.4-2,1.5-2,1.2,0,1.6.3v3.9c0,.4-.1.7-.3.9-.3.2-.7.3-1.1.3s-.9,0-1.2,0v-.6c.4,0,.8,0,1.1,0s.6,0,.7-.2c.1,0,.1-.3.1-.5v-.5h-.1ZM312.2,42.1c-.2,0-.5,0-.8,0-.6,0-.8.4-.8,1.3s.2,1.3.8,1.3.6,0,.8-.2v-2.3Z"/>
      <path class="cls-1" d="M316.4,44.9c-.3.2-.8.3-1.3.3-1.1,0-1.7-.7-1.7-1.9s.5-2,1.6-2,1.4.6,1.4,1.6,0,.4-.1.6h-2.2c0,.3.1.6.2.8.2.2.4.3.7.3s.8,0,1.1-.2l.3.5ZM315.7,43c0-.6-.2-1-.8-1s-.8.5-.8,1h1.6Z"/>
      <path class="cls-1" d="M321.3,45.1v-2.5c0-.5-.2-.7-.6-.7s-.6,0-.9.3v2.9h-.7v-2.5c0-.5-.2-.7-.6-.7s-.6,0-.8.2v2.9h-.7v-3.7h.5v.3c.4-.2.7-.4,1.2-.4s.8.2,1,.5c.3-.3.7-.5,1.2-.5.8,0,1.3.5,1.3,1.4v2.4h-.9Z"/>
      <path class="cls-1" d="M325.4,44.9c-.3.2-.8.3-1.3.3-1.1,0-1.7-.7-1.7-1.9s.5-2,1.6-2,1.4.6,1.4,1.6,0,.4-.1.6h-2.2c0,.3.1.6.2.8.2.2.4.3.7.3s.8,0,1.1-.2l.3.5ZM324.7,43c0-.6-.2-1-.8-1s-.8.5-.8,1h1.6Z"/>
      <path class="cls-1" d="M328.2,45.1v-2.4c0-.5-.2-.7-.6-.7s-.7,0-.9.2v2.9h-.7v-3.7h.5v.3c.4-.2.8-.4,1.2-.4.8,0,1.3.5,1.3,1.3v2.5s-.8,0-.8,0Z"/>
      <path class="cls-1" d="M331.5,45c-.2,0-.6.2-.9.2-.6,0-1-.3-1-1v-2.2h-.6v-.5h.6v-1.1h.8v1.1h1v.5h-1v2.1c0,.3,0,.5.3.5s.3,0,.5,0l.3.5Z"/>
    </g>
    <path class="cls-1" d="M35.5,30.5c.2-3.6,3.2-6.4,6.7-6.4s6.5,2.8,6.7,6.4h-13.4ZM41.2,46.5c-1-2.8-3.2-4.3-5.1-5.5-2.1-1.4-3-2.1-3-3.4s1.5-3.3,3.2-3.3h11.7l-6.8,12.2ZM32.1,57.2c.1,0,.8,0,1.6,0s1.4,0,1.6,0l-1.6,2.8-1.6-2.8ZM30.2,34.3c-.5,1-.8,2-.8,3.2h0c.1,3.6,2.6,5.3,4.7,6.7,2.5,1.6,3.9,2.7,3.9,5.3s-2.1,4.1-4.6,4.1-3.7-.9-4.5-2.3l-.8-1.3-8.8-15.7h10.9ZM25.3,24.1c3.6,0,6.5,2.8,6.7,6.4h-13.4c.2-3.5,3.1-6.4,6.7-6.4M42.3,20.6c-3.5,0-6.6,1.7-8.5,4.6-1.9-2.9-5-4.6-8.5-4.6-5.7,0-10.4,4.7-10.4,10.4v1.1c0,1,.1,1.9.9,3.3.8,1.4,17.9,30.9,17.9,30.9,0,0,17-29.3,17.8-30.9.8-1.6,1-2.2,1-3.3v-1.1c0-5.8-4.6-10.4-10.2-10.4"/>
    <path class="cls-1" d="M27.3,5.6c-1.1,0-2.2.4-3,.9V0h-2.5v17.5h1.5l.4-.9c1,.7,2.2,1.2,3.7,1.2,3.3,0,4.5-2.3,4.5-6.1-.1-3.8-1.3-6.1-4.6-6.1M26.7,7.8c2.2,0,2.6,1.7,2.6,3.9s-.3,3.9-2.6,3.9-2-.4-2.4-.7v-6.4c.4-.3,1.2-.7,2.4-.7M35,9.2c0-1,.8-1.4,2.2-1.4s2.5.3,3.5.7v-2.4c-.9-.4-2-.6-3.5-.6-3.3,0-4.6,1.7-4.6,3.7s.8,3.1,4.3,3.4c1.5.1,1.9.6,1.9,1.4s-.9,1.4-2.7,1.4-2.6-.4-3.4-.7v2.2c.8.3,2.2.6,3.7.6,3.6,0,4.8-1.7,4.8-3.8s-.9-3.2-4.3-3.5c-1.5.2-1.9-.2-1.9-1M45.2,17.7c.3,0,.5-.1.5-.1v-2.1c-.7,0-1-.2-1-.9V5.8h-2.5v8.8c0,2,.9,3.1,3,3.1M41.8,2.4c0,.9.7,1.7,1.7,1.7s1.7-.8,1.7-1.7-.8-1.7-1.7-1.7c-.9,0-1.7.8-1.7,1.7"/>
    <path class="cls-1" d="M33.7,69.8c-17.5,0-31.7-14.3-31.7-31.7s5.8-21.4,15.4-27.2c.4-.2.9-.1,1.1.3.2.4.1.9-.3,1.1-9.1,5.4-14.6,15.1-14.6,25.8,0,16.6,13.5,30.1,30.1,30.1s30.1-13.5,30.1-30.1-5.5-20.4-14.7-25.9c-.4-.2-.5-.7-.3-1.1.2-.4.7-.5,1.1-.3,9.7,5.8,15.4,16,15.4,27.2,0,17.5-14.1,31.8-31.6,31.8Z"/>
    <g>
      <path class="cls-1" d="M370.2,57.3c-.4.2-1.1.3-1.6.3s-1.3-.2-1.7-.7c-.3-.5-.5-1.1-.5-1.9s.2-1.7.7-2.1c.4-.4,1-.5,1.7-.5s.9,0,1.3,0v.8c-.4,0-.9,0-1.3,0s-.8,0-1,.3c-.3.3-.4.8-.4,1.4s.1,1,.2,1.3c.2.4.6.5,1,.5s.9,0,1.3-.2l.3.8Z"/>
      <path class="cls-1" d="M370.7,57.6v-5.2h3.2v.9h-2.2v1.2h1.8v.9h-1.8v1.3h2.2v.9s-3.2,0-3.2,0Z"/>
      <path class="cls-1" d="M377.2,57.6c-.4-.7-.7-1.3-1-2h-.7v2h-1v-5.2c.5,0,1.1,0,1.6,0,1.1,0,2.1.3,2.1,1.6s-.3,1.3-1,1.5c.3.6.8,1.4,1.2,2.1h-1.2ZM375.5,54.8c.5,0,.8,0,1.1,0,.4,0,.5-.3.5-.8s-.4-.7-.9-.7h-.7v1.6Z"/>
      <path class="cls-1" d="M379.7,57.6v-4.3h-1.4v-.9h3.8v.9h-1.4v4.3h-1Z"/>
      <path class="cls-1" d="M382.5,57.6v-5.2h1v5.2h-1Z"/>
      <path class="cls-1" d="M384.3,57.6v-5.2h3.3v.9h-2.3v1.3h1.9v.9h-1.9v2.1h-1Z"/>
      <path class="cls-1" d="M388.1,57.6v-5.2h1v5.2h-1Z"/>
      <path class="cls-1" d="M390,57.6v-5.2h3.2v.9h-2.2v1.2h1.8v.9h-1.8v1.3h2.2v.9s-3.2,0-3.2,0Z"/>
      <path class="cls-1" d="M393.7,52.5c.5,0,1.1,0,1.6,0,1.8,0,2.4.9,2.4,2.7s-.6,2.7-2.4,2.7-1.1,0-1.6,0v-5.2ZM394.8,56.7h.5c1.1,0,1.4-.5,1.4-1.8s-.3-1.8-1.4-1.8h-.5v3.6Z"/>
    </g>
    <g>
      <path class="cls-1" d="M366.8,19.6v-6.6h1v6.6h-1Z"/>
      <path class="cls-1" d="M368.8,18.7c.4.1,1,.1,1.6.1s1.1-.1,1.4-.4c.2-.2.3-.4.3-.7,0-.6-.4-.9-1.5-1.2-1.1-.3-1.9-.8-1.9-1.9s.2-1,.6-1.3c.5-.3,1-.5,1.6-.5s1.3.1,1.8.2v.8c-.5-.1-1.1-.1-1.6-.1s-.9.1-1.1.2c-.2.2-.3.3-.3.6,0,.7.5.9,1.6,1.2s1.8.8,1.8,1.9-.2,1.1-.7,1.5-1.1.5-1.8.5-1.3-.1-1.9-.2v-.7Z"/>
      <path class="cls-1" d="M373.6,16.3c0-2.2.9-3.4,2.9-3.4s2.9,1.2,2.9,3.4-.9,3.4-2.9,3.4c-2.1,0-2.9-1.1-2.9-3.4ZM378.3,16.3c0-1.7-.5-2.5-1.9-2.5s-1.9.8-1.9,2.5.5,2.5,1.9,2.5c1.3.1,1.9-.7,1.9-2.5Z"/>
      <path class="cls-1" d="M381.9,18.7c.3.1,1,.2,1.6.2s1.1-.1,1.3-.4c.2-.2.3-.6.3-1,0-1-.4-1.3-1.4-1.3h-1.9l.2-3.2h3.8v.9h-2.8v1.4c-.1,0,.9,0,.9,0,1.4,0,2.2.6,2.2,2.2s-.2,1.3-.7,1.7c-.5.4-1.1.5-1.8.5s-1.3-.1-1.9-.2l.2-.8Z"/>
      <path class="cls-1" d="M386.8,16.3c0-2.2.5-3.4,2.4-3.4s2.4,1.2,2.4,3.4-.5,3.4-2.4,3.4c-1.9,0-2.4-1.2-2.4-3.4ZM390.6,16.3c0-1.6-.1-2.6-1.4-2.6s-1.4,1-1.4,2.6.1,2.6,1.4,2.6,1.4-1,1.4-2.6Z"/>
      <path class="cls-1" d="M392.3,16.3c0-2.2.5-3.4,2.4-3.4s2.4,1.2,2.4,3.4-.5,3.4-2.4,3.4c-1.9,0-2.4-1.2-2.4-3.4ZM396.1,16.3c0-1.6-.1-2.6-1.4-2.6s-1.4,1-1.4,2.6.1,2.6,1.4,2.6,1.4-1,1.4-2.6Z"/>
      <path class="cls-1" d="M397.8,16.3c0-2.2.5-3.4,2.4-3.4s2.4,1.2,2.4,3.4-.5,3.4-2.4,3.4c-2,0-2.4-1.2-2.4-3.4ZM401.6,16.3c0-1.6-.1-2.6-1.4-2.6s-1.4,1-1.4,2.6.1,2.6,1.4,2.6,1.4-1,1.4-2.6Z"/>
      <path class="cls-1" d="M404.3,19.6v-5.6l-1.4.5-.3-.7,1.8-.9h.9v6.6h-1Z"/>
      <path class="cls-1" d="M366.6,28.1v-5.1h3.1v.7h-2.3v1.5h1.9v.7h-1.9v1.7h2.3v.7h-3.1v-.2Z"/>
      <path class="cls-1" d="M372.5,28.1v-2.4c0-.5-.2-.7-.6-.7s-.7.1-.9.2v2.9h-.7v-3.7h.5v.3c.4-.2.8-.4,1.2-.4.8,0,1.3.5,1.3,1.3v2.5s-.8,0-.8,0Z"/>
      <path class="cls-1" d="M376.6,27.9c-.3.2-.8.3-1.3.3-1.1,0-1.7-.7-1.7-1.9s.5-2,1.6-2,1.4.6,1.4,1.6,0,.4-.1.6h-2.2c0,.3.1.6.2.8.2.2.4.3.7.3s.8-.1,1.1-.2l.3.5ZM375.9,26c0-.6-.2-1-.8-1s-.8.5-.8,1h1.6Z"/>
      <path class="cls-1" d="M377.1,28.1v-3.7h.5v.5h.1c.3-.4.6-.5,1.1-.5h.3v.7h-.4c-.3,0-.6.1-.9.3v2.9h-.7v-.2Z"/>
      <path class="cls-1" d="M381.6,27.9c-.3.2-.6.3-.9.3-1.1,0-1.4-.7-1.4-1.9s.4-2,1.5-2,1.2.1,1.6.3v3.9c0,.4-.1.7-.3.9-.3.2-.7.3-1.1.3s-.9-.1-1.2-.1v-.6c.4,0,.8.1,1.1.1s.6,0,.7-.2c.1-.1.1-.3.1-.5v-.5h-.1ZM381.6,25.1c-.2,0-.5-.1-.8-.1-.6,0-.8.4-.8,1.3s.2,1.3.8,1.3.6-.1.8-.2v-2.3Z"/>
      <path class="cls-1" d="M383.7,29.6c.2-.6.4-1.1.5-1.5h-.4c-.4-1-.8-2.4-1.1-3.7h.8c.2,1.1.5,2.1.8,3.1h.1c.3-.9.6-2.1.9-3.1h.7c-.4,1.7-1,3.7-1.6,5.2,0,0-.7,0-.7,0Z"/>
      <path class="cls-1" d="M370.9,36.6c0-1.4-.1-2.8-.2-4.2h0l-1.2,3.3h-.8l-1.2-3.3h0c-.1,1.4-.1,2.8-.2,4.2h-.8c.1-1.7.1-3.5.2-5.2h1.1l1.2,3.4h0l1.2-3.4h1.1c.1,1.7.2,3.5.2,5.2h-.6Z"/>
      <path class="cls-1" d="M374.6,36.6v-.3c-.4.2-.8.4-1.2.4-.8,0-1.2-.5-1.2-1.2s.1-.7.4-.9c.2-.2.6-.3,1-.3h.8v-.3c0-.2-.1-.4-.2-.5s-.4-.2-.7-.2-.8,0-1,0v-.6c.2,0,.7-.2,1.1-.2s.9,0,1.1.3.4.5.4,1v2.6h-.5ZM374.4,35h-.7c-.5,0-.8.2-.8.6s.2.6.6.6.6,0,.8-.3v-.9h.1Z"/>
      <path class="cls-1" d="M378.1,36.6v-2.4c0-.5-.2-.7-.6-.7s-.7,0-.9.2v2.9h-.7v-3.7h.5v.3c.4-.2.8-.4,1.2-.4.8,0,1.3.5,1.3,1.3v2.5s-.8,0-.8,0Z"/>
      <path class="cls-1" d="M381.6,36.6v-.3c-.4.2-.8.4-1.2.4-.8,0-1.2-.5-1.2-1.2s.1-.7.4-.9c.2-.2.6-.3,1-.3h.8v-.3c0-.2-.1-.4-.2-.5s-.4-.2-.7-.2-.8,0-1,0v-.6c.2,0,.7-.2,1.1-.2s.9,0,1.1.3.4.5.4,1v2.6h-.5ZM381.5,35h-.7c-.5,0-.8.2-.8.6s.2.6.6.6.6,0,.8-.3v-.9h.1Z"/>
      <path class="cls-1" d="M385,36.4c-.3.2-.6.3-.9.3-1.1,0-1.4-.7-1.4-1.9s.4-2,1.5-2,1.2,0,1.6.3v3.9c0,.4-.1.7-.3.9-.3.2-.7.3-1.1.3s-.9,0-1.2,0v-.6c.4,0,.8,0,1.1,0s.6,0,.7-.2c.1,0,.1-.3.1-.5v-.5h-.1ZM385,33.6c-.2,0-.5,0-.8,0-.6,0-.8.4-.8,1.3s.2,1.3.8,1.3.6,0,.8-.2v-2.3Z"/>
      <path class="cls-1" d="M389.2,36.4c-.3.2-.8.3-1.3.3-1.1,0-1.7-.7-1.7-1.9s.5-2,1.6-2,1.4.6,1.4,1.6,0,.4-.1.6h-2.2c0,.3.1.6.2.8.2.2.4.3.7.3s.8,0,1.1-.2l.3.5ZM388.5,34.5c0-.6-.2-1-.8-1s-.8.5-.8,1h1.6Z"/>
      <path class="cls-1" d="M394.1,36.6v-2.5c0-.5-.2-.7-.6-.7s-.6,0-.9.3v2.9h-.7v-2.5c0-.5-.2-.7-.6-.7s-.6,0-.8.2v2.9h-.7v-3.7h.5v.3c.4-.2.7-.4,1.2-.4s.8.2,1,.5c.3-.3.7-.5,1.2-.5.8,0,1.3.5,1.3,1.4v2.4h-.9Z"/>
      <path class="cls-1" d="M398.2,36.4c-.3.2-.8.3-1.3.3-1.1,0-1.7-.7-1.7-1.9s.5-2,1.6-2,1.4.6,1.4,1.6,0,.4-.1.6h-2.2c0,.3.1.6.2.8.2.2.4.3.7.3s.8,0,1.1-.2l.3.5ZM397.5,34.5c0-.6-.2-1-.8-1s-.8.5-.8,1h1.6Z"/>
      <path class="cls-1" d="M401,36.6v-2.4c0-.5-.2-.7-.6-.7s-.7,0-.9.2v2.9h-.7v-3.7h.5v.3c.4-.2.8-.4,1.2-.4.8,0,1.3.5,1.3,1.3v2.5s-.8,0-.8,0Z"/>
      <path class="cls-1" d="M404.3,36.5c-.2,0-.6.2-.9.2-.6,0-1-.3-1-1v-2.2h-.6v-.5h.6v-1.1h.8v1.1h1v.6h-1v2.1c0,.3,0,.5.3.5s.3,0,.5,0l.3.4Z"/>
    </g>
  </g>
  <path class="cls-1" d="M252.8,69.9h-75.2v-1.6h75.2c16.9,0,30.6-13.5,30.6-30.1s-13.7-30.1-30.6-30.1h-75.2v-1.6h75.2c17.8,0,32.2,14.2,32.2,31.7s-14.4,31.7-32.2,31.7Z"/>
  <g>
    <path class="cls-1" d="M218,55.1c0-1.7.6-2.7,2.4-2.7s.9,0,1.3.1v.9c-.5,0-.9-.1-1.3-.1-1.1,0-1.3.7-1.3,1.8s.2,1.7,1.3,1.7.8-.1,1.2-.3l.3.8c-.5.2-1,.3-1.6.3-1.7,0-2.3-1-2.3-2.7Z"/>
    <path class="cls-1" d="M222.2,52.5h3.2v.9h-2.2v1.2h1.9v.9h-1.9v1.3h2.2v.9h-3.2v-5.2Z"/>
    <path class="cls-1" d="M226,52.6c.4,0,1.1-.1,1.7-.1,1.2,0,2,.4,2,1.6s-.4,1.3-1,1.5c.3.6.8,1.4,1.2,2.1h0s-1.2,0-1.2,0c-.4-.7-.7-1.4-1-2-.2,0-.5,0-.6,0v2h-1v-5.1ZM227.6,54.9c.7,0,1-.2,1-.8s-.4-.8-1-.8-.5,0-.6,0v1.5c.2,0,.5,0,.6,0Z"/>
    <path class="cls-1" d="M231.3,53.4h-1.5v-.9h4v.9h-1.5v4.3h-1v-4.3Z"/>
    <path class="cls-1" d="M234.2,52.5h1v5.2h-1v-5.2Z"/>
    <path class="cls-1" d="M236,52.5h3.3v.9h-2.2v1.3h1.9v.9h-1.9v2.1h-1v-5.2Z"/>
    <path class="cls-1" d="M239.8,52.5h1v5.2h-1v-5.2Z"/>
    <path class="cls-1" d="M241.7,52.5h3.2v.9h-2.2v1.2h1.9v.9h-1.9v1.3h2.2v.9h-3.2v-5.2Z"/>
    <path class="cls-1" d="M245.4,52.6c.5,0,1.1-.1,1.6-.1,1.8,0,2.6.9,2.6,2.7s-.8,2.7-2.6,2.7-1,0-1.6-.1v-5.1ZM247,56.9c1.2,0,1.6-.5,1.6-1.8s-.4-1.8-1.5-1.8-.4,0-.6,0v3.5c.2,0,.4,0,.5,0Z"/>
  </g>
  <g>
    <path class="cls-1" d="M218.6,13h1v6.6h-1v-6.6Z"/>
    <path class="cls-1" d="M220.7,18.7c.5,0,1.2.2,1.7.2,1,0,1.5-.3,1.5-1.1s-.5-.8-1.5-1.2c-1-.3-1.8-.7-1.8-1.8s.8-1.8,2.4-1.8,1.1,0,1.7.2v.9c-.6,0-1.2-.2-1.7-.2-.7,0-1.3.2-1.3.9s.7.9,1.6,1.2c.9.3,1.8.7,1.8,1.9s-.9,1.9-2.6,1.9-1.3,0-1.8-.2v-.9Z"/>
    <path class="cls-1" d="M225.5,16.3c0-2.2.9-3.4,2.9-3.4s2.9,1.2,2.9,3.4-.9,3.4-2.9,3.4-2.9-1.2-2.9-3.4ZM230.3,16.3c0-1.7-.5-2.5-1.9-2.5s-1.9.8-1.9,2.5.5,2.5,1.9,2.5,1.9-.8,1.9-2.5Z"/>
    <path class="cls-1" d="M234.3,18.7c.4,0,1.1.2,1.7.2.9,0,1.4-.2,1.4-1.1s-.5-1.1-1.3-1.1h-.7v-.8h.7c.8,0,1.2-.2,1.2-1s-.4-1-1.1-1-1.1.2-1.6.3l-.3-.8c.5-.2,1.2-.4,1.9-.4,1.3,0,2.1.6,2.1,1.8s-.4,1.2-.9,1.4h0c.6.2,1.1.7,1.1,1.6,0,1.3-.9,2-2.4,2s-1.3,0-1.8-.2v-.8Z"/>
    <path class="cls-1" d="M239.6,18.7c.4,0,.9.2,1.4.2,1.3,0,1.6-.8,1.7-2.1-.5.2-1.1.3-1.6.3-1.3,0-2.1-.7-2.1-2s.8-2.1,2.3-2.1,2.4,1.1,2.4,3.3-.6,3.5-2.7,3.5-1.1,0-1.5-.2l.2-.8ZM242.7,16c0-1.5-.3-2.2-1.4-2.2s-1.2.4-1.2,1.2.4,1.2,1.3,1.2.9,0,1.4-.2Z"/>
    <path class="cls-1" d="M244.6,16.3c0-2.2.5-3.4,2.4-3.4s2.4,1.2,2.4,3.4-.5,3.4-2.4,3.4-2.4-1.2-2.4-3.4ZM248.5,16.3c0-1.6,0-2.5-1.4-2.5s-1.4,1-1.4,2.5,0,2.5,1.4,2.5,1.4-1,1.4-2.5Z"/>
    <path class="cls-1" d="M250.4,16.3c0-2.2.5-3.4,2.4-3.4s2.4,1.2,2.4,3.4-.5,3.4-2.4,3.4-2.4-1.2-2.4-3.4ZM254.3,16.3c0-1.6,0-2.5-1.4-2.5s-1.4,1-1.4,2.5,0,2.5,1.4,2.5,1.4-1,1.4-2.5Z"/>
    <path class="cls-1" d="M257.6,14.1l-1.4.5-.3-.7,1.8-.9h.9v6.6h-1v-5.5Z"/>
  </g>
  <g>
    <path class="cls-1" d="M218.4,23c.5,0,1.1-.1,1.6-.1,1.2,0,2.1.4,2.1,1.6s-.5,1.4-1.2,1.6c.4.7.9,1.5,1.4,2.3h0s-1,0-1,0c-.4-.7-.9-1.5-1.2-2.2-.4,0-.6,0-.9,0v2.3h-.8v-5.4ZM220,25.5c.8,0,1.3-.2,1.3-1s-.5-1-1.3-1-.5,0-.8,0v1.9c.3,0,.6,0,.8,0Z"/>
    <path class="cls-1" d="M222.9,26.4c0-1.2.5-2,1.8-2s1.8.8,1.8,2-.5,2-1.8,2-1.8-.8-1.8-2ZM225.7,26.4c0-.8-.2-1.4-1-1.4s-1,.6-1,1.4.2,1.4,1,1.4,1-.6,1-1.4Z"/>
    <path class="cls-1" d="M228.8,26c.2,0,.5,0,.7,0v-.3c0-.6-.3-.7-.8-.7s-.8,0-1.1.2v-.7c.2,0,.7-.2,1.2-.2.9,0,1.5.4,1.5,1.3v2.7h-.6v-.3c-.4.2-.7.4-1.3.4-.7,0-1.4-.4-1.4-1.2s.6-1.2,1.7-1.2ZM228.6,27.8c.3,0,.7-.1.9-.3v-.9c-.2,0-.5,0-.7,0-.5,0-.9.2-.9.6s.3.6.7.6Z"/>
    <path class="cls-1" d="M231.2,26.4c0-1.4.6-2.1,1.7-2.1s.5,0,.8,0v-1.5h.8v5.4h-.6v-.3c-.4.2-.7.4-1.2.4-1,0-1.5-.6-1.5-2ZM233.8,27.5v-2.4c-.2,0-.5,0-.7,0-.8,0-1,.4-1,1.4s.2,1.3.9,1.3.6-.1.9-.3Z"/>
    <path class="cls-1" d="M239,23.6h-1.6v-.7h4.1v.7h-1.6v4.7h-.8v-4.7Z"/>
    <path class="cls-1" d="M241.4,24.4h.6v.5c.4-.4.8-.5,1.2-.5s.3,0,.5,0v.7c-.2,0-.4,0-.5,0-.4,0-.8.1-1,.4v2.9h-.8v-3.9Z"/>
    <path class="cls-1" d="M245.7,26c.2,0,.5,0,.7,0v-.3c0-.6-.3-.7-.8-.7s-.8,0-1.1.2v-.7c.2,0,.7-.2,1.2-.2.9,0,1.5.4,1.5,1.3v2.7h-.6v-.3c-.4.2-.7.4-1.3.4-.7,0-1.4-.4-1.4-1.2s.6-1.2,1.7-1.2ZM245.5,27.8c.3,0,.7-.1.9-.3v-.9c-.2,0-.5,0-.7,0-.5,0-.9.2-.9.6s.3.6.7.6Z"/>
    <path class="cls-1" d="M248.6,25.1h-.6v-.6h.6v-.4c0-.8.5-1.3,1.3-1.3s.4,0,.6,0v.7c-.2,0-.4,0-.5,0-.4,0-.6.1-.6.6v.4h.9v.6h-.9v3.3h-.8v-3.3Z"/>
    <path class="cls-1" d="M251.3,25.1h-.6v-.6h.6v-.4c0-.8.4-1.3,1.3-1.3s.4,0,.6,0v.7c-.2,0-.4,0-.5,0-.4,0-.6.1-.6.6v.4h2.4v3.9h-.8v-3.3h-1.6v3.3h-.8v-3.3ZM253.7,22.9h.8v.8h-.8v-.8Z"/>
    <path class="cls-1" d="M255.4,26.4c0-1.2.5-2,1.9-2s.7,0,1,.1v.7c-.4,0-.7-.1-1-.1-.8,0-1.1.4-1.1,1.4s.2,1.4,1,1.4.8-.1,1.1-.2l.2.6c-.4.2-.8.3-1.3.3-1.2,0-1.8-.7-1.8-2.1Z"/>
    <path class="cls-1" d="M218.1,35.5c.4,0,1,.2,1.4.2.8,0,1.3-.3,1.3-.9s-.4-.7-1.3-1c-.8-.3-1.5-.6-1.5-1.5s.7-1.5,2-1.5.9,0,1.4.2v.7c-.5,0-1-.2-1.4-.2-.6,0-1.1.2-1.1.7s.6.7,1.3,1c.8.3,1.5.6,1.5,1.6s-.7,1.6-2.1,1.6-1.1,0-1.5-.2v-.7Z"/>
    <path class="cls-1" d="M223.8,34c.2,0,.5,0,.7,0v-.3c0-.6-.3-.7-.8-.7s-.8,0-1.1.2v-.7c.2,0,.7-.2,1.2-.2.9,0,1.5.4,1.5,1.3v2.7h-.6v-.3c-.4.2-.7.4-1.3.4-.7,0-1.4-.4-1.4-1.2s.6-1.2,1.7-1.2ZM223.7,35.8c.3,0,.7-.1.9-.3v-.9c-.2,0-.5,0-.7,0-.5,0-.9.2-.9.6s.3.6.7.6Z"/>
    <path class="cls-1" d="M226.8,33.1h-.6v-.6h.6v-.4c0-.8.5-1.3,1.3-1.3s.4,0,.6,0v.7c-.2,0-.4,0-.5,0-.4,0-.6.1-.6.6v.4h.9v.6h-.9v3.3h-.8v-3.3Z"/>
    <path class="cls-1" d="M230.6,32.3c1,0,1.6.7,1.6,1.7s0,.4,0,.6h-2.4c0,.7.3,1.1,1,1.1s.8-.1,1.1-.3l.2.6c-.4.2-.9.3-1.4.3-1.1,0-1.8-.7-1.8-2s.6-2.1,1.7-2.1ZM231.3,34c0-.6-.2-1-.8-1s-.8.4-.9,1h1.7Z"/>
    <path class="cls-1" d="M233.2,33.1h-.6v-.6h.6s0-1.2,0-1.2h.7v1.1h1.1v.6h-1.1v2.2c0,.3.1.5.4.5s.4,0,.6-.1l.2.6c-.2.1-.5.2-.9.2-.7,0-1.1-.3-1.1-1.1v-2.2Z"/>
    <path class="cls-1" d="M235.5,32.4h.8c.3,1.1.6,2.2.9,3.2h0c.4-1.1.7-2.2,1-3.2h.8c-.5,1.8-1.2,3.9-1.9,5.4h-.8c.2-.5.4-1,.6-1.5h-.3c-.4-.8-.9-2.7-1.2-3.9Z"/>
    <path class="cls-1" d="M218.5,38.9h1.1l1.3,3.5h0l1.3-3.5h1.1c.1,1.2.2,3.6.3,5.4h-.8c0-1.4,0-2.9-.2-4.3h0l-1.3,3.5h-.9l-1.3-3.5h0c0,1.5-.1,2.9-.2,4.3h-.8c0-1.8.2-4.2.3-5.4Z"/>
    <path class="cls-1" d="M226.2,41.9c.2,0,.5,0,.7,0v-.3c0-.6-.3-.7-.8-.7s-.8,0-1.1.2v-.7c.2,0,.7-.2,1.2-.2.9,0,1.5.4,1.5,1.3v2.7h-.6v-.3c-.4.2-.7.4-1.3.4-.7,0-1.4-.4-1.4-1.2s.6-1.2,1.7-1.2ZM226,43.7c.3,0,.7-.1.9-.3v-.9c-.2,0-.5,0-.7,0-.5,0-.9.2-.9.6s.3.6.7.6Z"/>
    <path class="cls-1" d="M228.8,40.4h.6v.3c.4-.2.8-.4,1.3-.4.8,0,1.3.5,1.3,1.3v2.7h-.8v-2.6c0-.5-.2-.7-.7-.7s-.7.2-1,.3v3h-.8v-3.9Z"/>
    <path class="cls-1" d="M234.6,41.9c.2,0,.5,0,.7,0v-.3c0-.6-.3-.7-.8-.7s-.8,0-1.1.2v-.7c.2,0,.7-.2,1.2-.2.9,0,1.5.4,1.5,1.3v2.7h-.6v-.3c-.4.2-.7.4-1.3.4-.7,0-1.4-.4-1.4-1.2s.6-1.2,1.7-1.2ZM234.4,43.7c.3,0,.7-.1.9-.3v-.9c-.2,0-.5,0-.7,0-.5,0-.9.2-.9.6s.3.6.7.6Z"/>
    <path class="cls-1" d="M238.6,45.2c.5,0,.9-.1.9-.8v-.4c-.3.1-.5.2-.9.2-1,0-1.6-.7-1.6-2s.6-2.1,1.8-2.1,1.1.1,1.5.3v3.9c0,1.1-.7,1.5-1.7,1.5s-.8,0-1.2-.1v-.7c.4,0,.8.1,1.2.1ZM239.5,43.4v-2.4c-.2,0-.5,0-.7,0-.8,0-1,.4-1,1.4s.2,1.3.9,1.3.6,0,.8-.2Z"/>
    <path class="cls-1" d="M242.9,40.3c1,0,1.6.7,1.6,1.7s0,.4,0,.6h-2.4c0,.7.3,1.1,1,1.1s.8-.1,1.1-.3l.2.6c-.4.2-.9.3-1.4.3-1.1,0-1.8-.7-1.8-2s.6-2.1,1.7-2.1ZM243.6,42c0-.6-.2-1-.8-1s-.8.4-.9,1h1.7Z"/>
    <path class="cls-1" d="M245.4,40.4h.6v.3c.3-.2.7-.4,1.3-.4s.8.2,1,.5c.4-.3.8-.5,1.3-.5.8,0,1.3.5,1.3,1.3v2.6h-.8v-2.6c0-.5-.2-.8-.7-.8s-.6.1-.9.3c0,.1,0,.2,0,.3v2.6h-.8v-2.6c0-.5-.2-.8-.7-.8s-.6.1-.9.3v3h-.8v-3.9Z"/>
    <path class="cls-1" d="M253.3,40.3c1,0,1.6.7,1.6,1.7s0,.4,0,.6h-2.4c0,.7.3,1.1,1,1.1s.8-.1,1.1-.3l.2.6c-.4.2-.9.3-1.4.3-1.1,0-1.8-.7-1.8-2s.6-2.1,1.7-2.1ZM254.1,42c0-.6-.2-1-.8-1s-.8.4-.9,1h1.7Z"/>
    <path class="cls-1" d="M255.8,40.4h.6v.3c.4-.2.8-.4,1.3-.4.8,0,1.3.5,1.3,1.3v2.7h-.8v-2.6c0-.5-.2-.7-.7-.7s-.7.2-1,.3v3h-.8v-3.9Z"/>
    <path class="cls-1" d="M260.3,41h-.6v-.6h.6s0-1.2,0-1.2h.7v1.1h1.1v.6h-1.1v2.2c0,.3.1.5.4.5s.4,0,.6-.1l.2.6c-.2.1-.5.2-.9.2-.7,0-1.1-.3-1.1-1.1v-2.2Z"/>
  </g>
  <g>
    <path class="cls-1" d="M218.1,75.5c.4,0,1.1-.1,1.6-.1,1.2,0,2,.4,2,1.6s-.4,1.3-1.1,1.5c.4.7.8,1.5,1.3,2.2h0s-.9,0-.9,0c-.4-.7-.9-1.5-1.2-2.1-.3,0-.6,0-.9,0v2.2h-.8v-5.2ZM219.6,77.9c.8,0,1.3-.2,1.3-.9s-.5-.9-1.2-.9-.5,0-.8,0v1.8c.3,0,.6,0,.8,0Z"/>
    <path class="cls-1" d="M223.9,76.1h-1.6v-.7h3.9v.7h-1.6v4.6h-.8v-4.6Z"/>
    <path class="cls-1" d="M226.8,79.9c.4,0,.9.2,1.4.2.8,0,1.2-.3,1.2-.8s-.4-.7-1.2-1c-.8-.3-1.5-.6-1.5-1.5s.7-1.5,1.9-1.5.9,0,1.4.2v.7c-.5,0-1-.2-1.4-.2-.6,0-1.1.2-1.1.7s.6.7,1.3.9c.7.3,1.4.6,1.4,1.5s-.7,1.6-2.1,1.6-1,0-1.5-.2v-.7Z"/>
    <path class="cls-1" d="M235.3,76.1h-2.6v-.7h3.5v.5c-.5,1.3-1.2,3.1-1.9,4.8h-.8c.7-1.6,1.3-3.1,1.9-4.6Z"/>
    <path class="cls-1" d="M237.1,79.9c.3,0,.7.1,1.1.1,1,0,1.3-.6,1.4-1.7-.4.2-.9.2-1.2.2-1.1,0-1.7-.5-1.7-1.6s.7-1.7,1.9-1.7,1.9.9,1.9,2.6-.5,2.8-2.2,2.8-.9,0-1.2-.2v-.7ZM239.5,77.8c0-1.2-.3-1.8-1.1-1.8s-1,.3-1,1,.3,1,1,1,.7,0,1.1-.2Z"/>
    <path class="cls-1" d="M241.2,79.9c.4,0,.9.1,1.3.1.7,0,1.1-.2,1.1-.9s-.4-.9-1-.9h-.6v-.7h.6c.6,0,1-.2,1-.8s-.3-.8-.9-.8-.9.1-1.3.3l-.2-.6c.4-.2.9-.3,1.5-.3,1,0,1.7.5,1.7,1.4s-.3,1-.7,1.1h0c.5.2.9.6.9,1.3,0,1.1-.7,1.6-2,1.6s-1,0-1.4-.2v-.7Z"/>
    <path class="cls-1" d="M247.6,76.1h-2.6v-.7h3.5v.5c-.5,1.3-1.2,3.1-1.9,4.8h-.8c.7-1.6,1.3-3.1,1.9-4.6Z"/>
    <path class="cls-1" d="M249,79.9c.4,0,.9.1,1.3.1.7,0,1.1-.2,1.1-.9s-.4-.9-1-.9h-.6v-.7h.6c.6,0,1-.2,1-.8s-.3-.8-.9-.8-.9.1-1.3.3l-.2-.6c.4-.2.9-.3,1.5-.3,1,0,1.7.5,1.7,1.4s-.3,1-.7,1.1h0c.5.2.9.6.9,1.3,0,1.1-.7,1.6-2,1.6s-1,0-1.4-.2v-.7Z"/>
    <path class="cls-1" d="M253.9,78h0c-.4-.1-.8-.5-.8-1.2s.6-1.4,1.8-1.4,1.8.6,1.8,1.4-.4,1.1-.8,1.2h0c.5.2.9.5.9,1.3s-.6,1.5-1.9,1.5-1.9-.6-1.9-1.5.4-1.2.9-1.3ZM254.9,80.1c.7,0,1.1-.3,1.1-.9s-.4-.9-1.1-.9-1.1.3-1.1.9.4.9,1.1.9ZM255.9,76.8c0-.5-.3-.8-1-.8s-1,.2-1,.8.4.8,1,.8,1-.2,1-.8Z"/>
  </g>
</svg>