<?xml version="1.0" encoding="utf-8"?>
<!-- Generator: Adobe Illustrator 26.3.1, SVG Export Plug-In . SVG Version: 6.00 Build 0)  -->
<svg version="1.1" id="Layer_1" xmlns="http://www.w3.org/2000/svg" xmlns:xlink="http://www.w3.org/1999/xlink" x="0px" y="0px"
	 viewBox="0 0 77.4 40.1" style="enable-background:new 0 0 77.4 40.1;" xml:space="preserve">
<style type="text/css">
	.st0{fill:#FFFFFF;}
	.st1{clip-path:url(#SVGID_00000157306032280366316360000015054937195047235456_);}
	.st2{clip-path:url(#SVGID_00000032634994182182496540000003983145642447916197_);fill:#FFFFFF;}
</style>
<g>
	<g>
		<path class="st0" d="M17.4,29.6L17.4,29.6c-0.1,0-0.2-0.2-0.2-0.4c0-0.2,0.2-0.4,0.5-0.4c0.4,0,0.5,0.2,0.5,0.4
			c0,0.2-0.1,0.3-0.2,0.4v0c0.1,0,0.3,0.2,0.3,0.4c0,0.3-0.2,0.5-0.6,0.5c-0.4,0-0.6-0.2-0.6-0.5C17.1,29.8,17.3,29.6,17.4,29.6z
			 M17.7,30.2c0.2,0,0.3-0.1,0.3-0.3c0-0.2-0.1-0.3-0.3-0.3c-0.2,0-0.3,0.1-0.3,0.3C17.4,30.2,17.5,30.2,17.7,30.2z M18,29.2
			c0-0.2-0.1-0.2-0.3-0.2s-0.3,0.1-0.3,0.2c0,0.2,0.1,0.2,0.3,0.2C17.9,29.5,18,29.4,18,29.2z"/>
		<path class="st0" d="M18.6,30.2c0.1,0,0.3,0,0.4,0c0.2,0,0.4-0.1,0.4-0.3c0-0.2-0.1-0.3-0.4-0.3h-0.4l0-0.8h0.9V29h-0.6l0,0.4H19
			c0.4,0,0.6,0.1,0.6,0.5c0,0.4-0.2,0.5-0.6,0.5c-0.1,0-0.3,0-0.4,0L18.6,30.2z"/>
		<path class="st0" d="M20.5,29h-0.8v-0.2h1.1V29c-0.1,0.4-0.4,1-0.6,1.5H20C20.2,30,20.4,29.5,20.5,29z"/>
		<path class="st0" d="M21.2,29.6L21.2,29.6c-0.1,0-0.2-0.2-0.2-0.4c0-0.2,0.2-0.4,0.5-0.4c0.4,0,0.5,0.2,0.5,0.4
			c0,0.2-0.1,0.3-0.2,0.4v0c0.1,0,0.3,0.2,0.3,0.4c0,0.3-0.2,0.5-0.6,0.5c-0.4,0-0.6-0.2-0.6-0.5C21,29.8,21.1,29.6,21.2,29.6z
			 M21.5,30.2c0.2,0,0.3-0.1,0.3-0.3c0-0.2-0.1-0.3-0.3-0.3c-0.2,0-0.3,0.1-0.3,0.3C21.2,30.2,21.3,30.2,21.5,30.2z M21.8,29.2
			c0-0.2-0.1-0.2-0.3-0.2s-0.3,0.1-0.3,0.2c0,0.2,0.1,0.2,0.3,0.2C21.7,29.5,21.8,29.4,21.8,29.2z"/>
	</g>
	<g>
		<g>
			<path class="st0" d="M38.7,11.1L38,11.4L37.8,11l1-0.5h0.5v3.7h-0.5V11.1z"/>
			<path class="st0" d="M41.8,11.1H40v-0.5h2.4v0.3c-0.3,0.9-0.8,2.2-1.3,3.3h-0.6C41,13.2,41.4,12.1,41.8,11.1z"/>
			<path class="st0" d="M42.8,12.4c0-1.2,0.3-1.9,1.3-1.9c1.1,0,1.3,0.7,1.3,1.9c0,1.2-0.3,1.9-1.3,1.9
				C43.1,14.3,42.8,13.6,42.8,12.4z M44.9,12.4c0-0.9-0.1-1.4-0.8-1.4c-0.7,0-0.8,0.5-0.8,1.4c0,0.9,0,1.4,0.8,1.4
				C44.9,13.8,44.9,13.3,44.9,12.4z"/>
			<path class="st0" d="M46.1,13.8c1.1-0.9,1.7-1.6,1.7-2.2c0-0.4-0.2-0.6-0.7-0.6c-0.3,0-0.6,0.1-0.9,0.2l-0.2-0.4
				c0.3-0.1,0.7-0.2,1.1-0.2c0.7,0,1.2,0.4,1.2,1.1c0,0.8-0.7,1.5-1.4,2.1l0,0h1.5v0.5h-2.4V13.8z"/>
			<path class="st0" d="M49.1,13.7c0.2,0,0.6,0.1,0.9,0.1c0.5,0,0.8-0.1,0.8-0.7c0-0.5-0.2-0.7-0.8-0.7h-0.9l0.1-1.9h2v0.5h-1.5l0,1
				H50c0.9,0,1.4,0.3,1.4,1.1c0,0.8-0.5,1.2-1.4,1.2c-0.3,0-0.7,0-1-0.1L49.1,13.7z"/>
		</g>
	</g>
	<path class="st0" d="M57.7,0L57.7,0l-37,0C19,0,17.4,0,16.3,0.3C8.6,1.7,2.9,8.4,2.9,16.5c0,7.5,4.9,13.9,11.8,15.9
		c0,0,0.1,0,0.1,0c0.1,0,0.3,0.1,0.4,0.1c1.4,0.4,2.9,0.5,5.8,0.5l36.4,0c0.1,0,0.2,0,0.3,0c9.2,0,16.6-7.4,16.6-16.6
		C74.3,7.4,66.9,0,57.7,0z M57.7,31.6c-0.1,0-0.2,0-0.3,0h0h0l-30.9,0c5.7-2.6,9.7-8.4,9.7-15.1c0-6.7-4-12.5-9.7-15.1l29.7,0v0h1.5
		c8.3,0,15.1,6.8,15.1,15.1C72.8,24.9,66.1,31.6,57.7,31.6z M34.7,16.5c0,8.3-6.8,15.1-15.1,15.1S4.5,24.9,4.5,16.5
		S11.3,1.4,19.6,1.4S34.7,8.2,34.7,16.5z"/>
	<g>
		<path class="st0" d="M38.1,4.7h0.6v3.9h-0.6V4.7z"/>
		<path class="st0" d="M39.3,8c0.3,0.1,0.7,0.1,1,0.1c0.6,0,0.9-0.2,0.9-0.6c0-0.4-0.3-0.5-0.9-0.7c-0.6-0.2-1.1-0.4-1.1-1.1
			s0.5-1.1,1.4-1.1c0.3,0,0.7,0,1,0.1l-0.1,0.5c-0.3-0.1-0.6-0.1-0.9-0.1c-0.4,0-0.8,0.1-0.8,0.5c0,0.4,0.4,0.5,0.9,0.7
			c0.5,0.2,1,0.4,1,1.1c0,0.7-0.5,1.1-1.5,1.1c-0.3,0-0.7-0.1-1.1-0.1L39.3,8z"/>
		<path class="st0" d="M42.1,6.6c0-1.3,0.5-2,1.7-2c1.2,0,1.7,0.7,1.7,2s-0.5,2-1.7,2C42.6,8.6,42.1,7.9,42.1,6.6z M44.9,6.6
			c0-1-0.3-1.5-1.1-1.5c-0.8,0-1.1,0.5-1.1,1.5s0.3,1.5,1.1,1.5C44.6,8.1,44.9,7.6,44.9,6.6z"/>
		<path class="st0" d="M47.3,4.6h0.5l-1.6,4.1h-0.5L47.3,4.6z"/>
		<path class="st0" d="M48.3,4.7h0.6v3.9h-0.6V4.7z"/>
		<path class="st0" d="M49.7,4.7H52v0.5h-1.7v1.1h1.4v0.5h-1.4v1.2H52v0.5h-2.3V4.7z"/>
		<path class="st0" d="M52.4,6.6c0-1.2,0.4-2,1.7-2c0.3,0,0.7,0,0.9,0.1L55,5.3c-0.2,0-0.6-0.1-0.9-0.1c-0.9,0-1.1,0.6-1.1,1.5
			c0,0.8,0.1,1.5,1.1,1.5c0.3,0,0.7-0.1,1-0.2l0.2,0.5c-0.4,0.2-0.7,0.2-1.1,0.2C52.8,8.6,52.4,7.8,52.4,6.6z"/>
	</g>
	<g>
		<path class="st0" d="M16.2,24.5h-0.4v-0.2h1v0.2h-0.4v1.2h-0.2V24.5z"/>
		<path class="st0" d="M17,25.7v-1.3h0.8v0.2h-0.6v0.4h0.6v0.2h-0.6v0.4h0.6v0.2H17z"/>
		<path class="st0" d="M18.5,24.5c-0.2,0-0.3,0-0.3,0.2c0,0.1,0.1,0.1,0.2,0.2l0.2,0.1c0.2,0.1,0.2,0.2,0.2,0.4
			c0,0.3-0.2,0.3-0.5,0.3c-0.1,0-0.2,0-0.4-0.1v-0.2c0.1,0,0.3,0.1,0.4,0.1c0.2,0,0.3,0,0.3-0.2c0-0.1,0-0.2-0.1-0.2L18.3,25
			c-0.2-0.1-0.3-0.2-0.3-0.4c0-0.3,0.2-0.3,0.5-0.3c0.1,0,0.2,0,0.3,0v0.2C18.8,24.5,18.6,24.5,18.5,24.5z"/>
		<path class="st0" d="M19.5,24.5h-0.4v-0.2h1v0.2h-0.4v1.2h-0.2V24.5z"/>
		<path class="st0" d="M20.3,24.3h0.2v1.3h-0.2V24.3z"/>
		<path class="st0" d="M21.6,25.4L21.6,25.4l0-1h0.2v1.3h-0.2L21,24.6h0v1.1h-0.2v-1.3H21L21.6,25.4z"/>
		<path class="st0" d="M22.7,25.7c-0.5,0-0.6-0.3-0.6-0.5v-0.3c0-0.2,0-0.5,0.6-0.5c0.1,0,0.3,0,0.4,0v0.2c-0.1,0-0.2,0-0.4,0
			c-0.4,0-0.4,0.2-0.4,0.4v0.3c0,0.1,0,0.3,0.4,0.4c0.1,0,0.2,0,0.3-0.1v-0.3h-0.3V25h0.4v0.5C23,25.6,22.9,25.7,22.7,25.7z"/>
	</g>
	<polygon class="st0" points="16.9,17.4 16.7,17.1 18.7,15.6 16.7,14.2 16.9,13.8 19.4,15.6 	"/>
	<rect x="17.8" y="13.5" class="st0" width="0.4" height="4.3"/>
	<polygon class="st0" points="22.1,17.4 19.6,15.6 22.1,13.8 22.3,14.1 20.4,15.6 22.3,17 	"/>
	<rect x="20.8" y="13.5" class="st0" width="0.4" height="4.3"/>
	<g>
		<defs>
			<rect id="SVGID_1_" x="16.8" y="6.2" width="5.4" height="5.4"/>
		</defs>
		<clipPath id="SVGID_00000049913150148519200490000014466811275870904246_">
			<use xlink:href="#SVGID_1_"  style="overflow:visible;"/>
		</clipPath>
		<g style="clip-path:url(#SVGID_00000049913150148519200490000014466811275870904246_);">
			<defs>
				<rect id="SVGID_00000005248334975568143930000004239672517381846974_" x="16.8" y="6.2" width="5.4" height="5.4"/>
			</defs>
			<clipPath id="SVGID_00000138565181982360925920000017022441269934639763_">
				<use xlink:href="#SVGID_00000005248334975568143930000004239672517381846974_"  style="overflow:visible;"/>
			</clipPath>
			<path style="clip-path:url(#SVGID_00000138565181982360925920000017022441269934639763_);fill:#FFFFFF;" d="M17.2,9.6
				C17.2,9.6,17.2,9.6,17.2,9.6C17.2,9.5,17.2,9.5,17.2,9.6C17.2,9.5,17.2,9.5,17.2,9.6c0-0.1,0-0.1,0-0.1c0,0,0,0,0,0c0,0,0,0,0,0
				c0,0,0,0,0,0c0,0,0,0,0,0c0,0,0,0,0,0c0,0,0,0,0,0c0,0,0,0,0,0c0,0,0,0-0.1,0c0,0,0,0,0,0c0,0,0,0,0,0c0,0,0,0,0,0c0,0,0,0,0,0
				c0,0,0,0,0,0c0,0,0,0,0,0c0,0,0,0,0,0c0,0,0,0,0,0s0,0,0,0c0,0,0,0,0,0c0,0,0,0,0,0c0,0,0,0,0,0c0,0,0,0,0,0c0,0,0,0,0,0
				c0,0,0,0,0,0C17.1,9.6,17.2,9.6,17.2,9.6"/>
			<path style="clip-path:url(#SVGID_00000138565181982360925920000017022441269934639763_);fill:#FFFFFF;" d="M17,8.4
				C17.1,8.4,17.1,8.4,17,8.4c0.1,0,0.2,0,0.2-0.1c0-0.1,0-0.2-0.1-0.2c-0.1,0-0.2,0-0.2,0.1C17,8.3,17,8.4,17,8.4"/>
			<path style="clip-path:url(#SVGID_00000138565181982360925920000017022441269934639763_);fill:#FFFFFF;" d="M17.4,8.1
				C17.4,8.1,17.5,8.1,17.4,8.1c0.2-0.1,0.2-0.2,0.1-0.2c-0.1-0.1-0.1-0.1-0.2,0c-0.1,0.1-0.1,0.1,0,0.2C17.3,8.1,17.3,8.1,17.4,8.1
				"/>
			<path style="clip-path:url(#SVGID_00000138565181982360925920000017022441269934639763_);fill:#FFFFFF;" d="M17.7,7.9
				C17.8,7.9,17.8,7.9,17.7,7.9c0.1,0,0.2-0.1,0.1-0.2c0-0.1-0.1-0.1-0.2-0.1c-0.1,0-0.1,0.1-0.1,0.2C17.6,7.9,17.7,7.9,17.7,7.9"/>
			<path style="clip-path:url(#SVGID_00000138565181982360925920000017022441269934639763_);fill:#FFFFFF;" d="M18.1,7.9
				c0.1,0,0.1-0.1,0.1-0.1c0-0.1-0.1-0.1-0.1-0.1c-0.1,0-0.1,0.1-0.1,0.1C18,7.8,18.1,7.9,18.1,7.9"/>
			<path style="clip-path:url(#SVGID_00000138565181982360925920000017022441269934639763_);fill:#FFFFFF;" d="M18.5,7.9
				C18.5,7.9,18.5,7.9,18.5,7.9c0.1,0,0.2,0,0.2-0.1c0-0.1,0-0.2-0.1-0.2c-0.1,0-0.2,0-0.2,0.1C18.4,7.8,18.4,7.9,18.5,7.9"/>
			<path style="clip-path:url(#SVGID_00000138565181982360925920000017022441269934639763_);fill:#FFFFFF;" d="M17,8.8
				C17,8.8,17,8.8,17,8.8c0.1,0,0.2,0,0.2-0.1c0-0.1,0-0.2-0.1-0.2c-0.1,0-0.2,0-0.2,0.1C16.8,8.7,16.9,8.8,17,8.8"/>
			<path style="clip-path:url(#SVGID_00000138565181982360925920000017022441269934639763_);fill:#FFFFFF;" d="M17,9.2
				c0.1,0,0.1-0.1,0.1-0.2v0C17.1,9,17,8.9,17,8.9c-0.1,0-0.1,0.1-0.1,0.2C16.8,9.2,16.9,9.2,17,9.2C17,9.2,17,9.2,17,9.2"/>
			<path style="clip-path:url(#SVGID_00000138565181982360925920000017022441269934639763_);fill:#FFFFFF;" d="M18.8,8.1
				C18.8,8.1,18.9,8.1,18.8,8.1C18.9,8.1,18.9,8.1,18.8,8.1C18.9,8.1,18.9,8.1,18.8,8.1c0.1,0,0.2,0,0.2,0c0,0,0-0.1,0-0.1
				c0,0,0,0,0,0s0,0,0,0c0,0,0,0,0,0c0,0,0,0,0,0c0,0-0.1-0.1-0.1,0c0,0,0,0,0,0c0,0,0,0,0,0c0,0,0,0,0,0c0,0,0,0,0,0c0,0,0,0,0,0
				c0,0,0,0,0,0c0,0,0,0,0,0C18.8,8,18.8,8,18.8,8.1C18.8,8,18.8,8,18.8,8.1"/>
			<path style="clip-path:url(#SVGID_00000138565181982360925920000017022441269934639763_);fill:#FFFFFF;" d="M22.1,9.4
				C22.1,9.4,22.1,9.4,22.1,9.4C22,9.4,22,9.4,22.1,9.4C22,9.4,22,9.4,22.1,9.4C22,9.3,22,9.3,22.1,9.4C22,9.3,22,9.3,22,9.3
				c0,0,0,0-0.1,0c0,0,0,0,0,0c0,0,0,0,0,0c0,0,0,0,0,0c0,0,0,0,0,0c0,0,0,0,0,0c0,0,0,0,0,0c0,0,0,0,0,0c0,0,0,0,0,0c0,0,0,0,0,0
				c0,0,0,0,0,0c0,0,0,0,0,0c0,0,0.1,0,0.1,0c0,0,0,0,0,0c0,0,0,0,0,0c0,0,0,0,0,0c0,0,0,0,0,0c0,0,0,0,0,0c0,0,0,0,0,0
				C22.1,9.5,22.1,9.5,22.1,9.4C22.1,9.5,22.1,9.5,22.1,9.4C22.1,9.5,22.1,9.5,22.1,9.4C22.1,9.4,22.1,9.4,22.1,9.4"/>
			<path style="clip-path:url(#SVGID_00000138565181982360925920000017022441269934639763_);fill:#FFFFFF;" d="M21.2,7.9
				C21.3,7.9,21.3,7.9,21.2,7.9c0.1,0,0.2,0,0.2-0.1c0-0.1,0-0.2-0.1-0.2c-0.1,0-0.2,0-0.2,0.1C21.1,7.8,21.2,7.9,21.2,7.9"/>
			<path style="clip-path:url(#SVGID_00000138565181982360925920000017022441269934639763_);fill:#FFFFFF;" d="M21.6,8.1
				C21.6,8.1,21.6,8.1,21.6,8.1c0.1,0,0.2,0,0.2,0c0.1-0.1,0-0.2,0-0.2c-0.1-0.1-0.2,0-0.2,0C21.5,8,21.5,8.1,21.6,8.1"/>
			<path style="clip-path:url(#SVGID_00000138565181982360925920000017022441269934639763_);fill:#FFFFFF;" d="M21.8,8.4
				c0,0,0.1,0.1,0.1,0.1c0,0,0.1,0,0.1,0c0.1,0,0.1-0.1,0.1-0.2c0-0.1-0.1-0.1-0.2-0.1C21.8,8.2,21.7,8.3,21.8,8.4"/>
			<path style="clip-path:url(#SVGID_00000138565181982360925920000017022441269934639763_);fill:#FFFFFF;" d="M20.9,7.9
				C21,7.9,21,7.8,21,7.7c0-0.1-0.1-0.1-0.1-0.1h0c-0.1,0-0.1,0.1-0.1,0.1C20.7,7.8,20.8,7.9,20.9,7.9"/>
			<path style="clip-path:url(#SVGID_00000138565181982360925920000017022441269934639763_);fill:#FFFFFF;" d="M22,8.5
				c-0.1,0-0.1,0.1-0.1,0.2c0,0.1,0.1,0.1,0.1,0.1c0,0,0,0,0,0c0.1,0,0.1-0.1,0.1-0.2C22.2,8.6,22.1,8.5,22,8.5"/>
			<path style="clip-path:url(#SVGID_00000138565181982360925920000017022441269934639763_);fill:#FFFFFF;" d="M22.1,8.9
				c-0.1,0-0.2,0-0.2,0.1c0,0.1,0,0.2,0.1,0.2c0,0,0,0,0,0c0.1,0,0.1-0.1,0.1-0.1C22.2,9,22.2,9,22.1,8.9"/>
			<path style="clip-path:url(#SVGID_00000138565181982360925920000017022441269934639763_);fill:#FFFFFF;" d="M20.5,7.9
				C20.5,7.9,20.5,7.9,20.5,7.9c0.1,0,0.2-0.1,0.1-0.2c0-0.1-0.1-0.1-0.2-0.1c-0.1,0-0.1,0.1-0.1,0.2C20.4,7.9,20.4,7.9,20.5,7.9"/>
			<path style="clip-path:url(#SVGID_00000138565181982360925920000017022441269934639763_);fill:#FFFFFF;" d="M20,8C20,8,20,8,20,8
				C20,8,20,8,20,8C20,8,20,8,20,8C20,8.1,20,8.1,20,8c0.1,0.1,0.1,0.1,0.1,0.1c0,0,0,0,0,0c0,0,0.1,0,0.1,0c0,0,0,0,0,0
				c0,0,0,0,0,0c0,0,0,0,0,0c0,0,0,0,0,0c0,0,0-0.1,0-0.1c0,0-0.1-0.1-0.1,0c0,0,0,0,0,0c0,0,0,0,0,0c0,0,0,0,0,0
				C20,7.9,20,7.9,20,8C20,7.9,20,7.9,20,8C20,8,20,8,20,8"/>
			<path style="clip-path:url(#SVGID_00000138565181982360925920000017022441269934639763_);fill:#FFFFFF;" d="M21.7,9.6
				c0-0.1,0-0.1,0-0.2l0-0.1c0.1-0.2,0.1-0.5,0-0.7c-0.1-0.2-0.3-0.4-0.5-0.5c-0.2-0.1-0.5-0.1-0.7,0l0,0l0,0
				c-0.2,0.1-0.5,0.2-0.7,0.2c0-0.1-0.1-0.2-0.2-0.2c0.1-0.1,0.2-0.2,0.2-0.4c0-0.1,0-0.2-0.1-0.3h0l-0.1-0.1
				c-0.1-0.1-0.1-0.2-0.1-0.3c0.1,0,0.2,0.1,0.3,0.1V6.6c-0.1,0.1-0.2,0.1-0.3,0.1c0-0.1,0.1-0.2,0.1-0.3h-0.2h-0.2
				c0.1,0.1,0.1,0.2,0.1,0.3c-0.1,0-0.2-0.1-0.3-0.1v0.4c0.1-0.1,0.2-0.1,0.3-0.1c0,0.1-0.1,0.2-0.1,0.3l-0.1,0.1h0
				c-0.1,0.1-0.1,0.2-0.1,0.3c0,0.2,0.1,0.3,0.2,0.4c-0.1,0-0.2,0.1-0.2,0.2c-0.2,0-0.5-0.1-0.7-0.2l0,0c-0.2-0.1-0.5-0.1-0.7,0
				c-0.2,0.1-0.4,0.3-0.5,0.5c-0.1,0.2-0.1,0.5,0,0.7l0,0.1c0,0.1,0,0.1,0,0.2c0,0.1-0.1,0.1-0.1,0.1l-0.1,0l0.4,1l0.2,0.5
				c0.6-0.2,1.2-0.4,1.8-0.4s1.3,0.1,1.8,0.4l0.2-0.5l0.4-1l-0.1,0C21.8,9.7,21.7,9.6,21.7,9.6 M19.5,6.8L19.5,6.8L19.5,6.8
				L19.5,6.8L19.5,6.8L19.5,6.8L19.5,6.8z M18.9,10.3c-0.3,0-0.5-0.2-0.5-0.5c0-0.1,0.1-0.1,0.1-0.1c0.1,0,0.1,0,0.1,0.1
				c0,0,0,0.1,0,0.1c0.1,0,0.2-0.1,0.2-0.2c0-0.1-0.1-0.2-0.2-0.2c-0.1,0-0.2,0.1-0.2,0.2h0c0-0.1,0-0.1,0-0.2
				c0-0.2-0.1-0.3-0.2-0.3l0,0c-0.1,0-0.1,0.2-0.1,0.4c0,0.1,0,0.2,0.1,0.2l0,0c-0.1-0.1-0.2-0.1-0.3-0.1c-0.1,0-0.1,0.2-0.1,0.3
				c0,0.1,0.1,0.1,0.2,0.1c0,0,0,0-0.1-0.1c0-0.1,0-0.1,0.1-0.1c0.1,0,0.1,0,0.1,0c0.1,0.2,0,0.5-0.3,0.6c0,0-0.1,0-0.2,0l-0.3-0.7
				c0.1-0.1,0.1-0.1,0.2-0.2c0-0.1,0-0.3,0-0.4l0-0.1c-0.1-0.2-0.1-0.4,0-0.5c0.1-0.2,0.2-0.3,0.4-0.4c0.2-0.1,0.3-0.1,0.5,0
				c0.3,0.1,0.5,0.2,0.8,0.2v0.6v0.2c0.1,0.1,0.2,0.2,0.2,0.3c-0.2,0-0.4-0.2-0.5-0.3v0.9c0.1-0.2,0.3-0.3,0.5-0.3
				C19.4,10.1,19.1,10.3,18.9,10.3 M21.3,10.6c-0.1,0-0.1,0-0.2,0c-0.3-0.1-0.4-0.4-0.3-0.6c0-0.1,0.1-0.1,0.1,0
				c0.1,0,0.1,0.1,0.1,0.1c0,0,0,0-0.1,0.1c0.1,0,0.2,0,0.2-0.1c0-0.1,0-0.2-0.1-0.3c-0.1,0-0.2,0-0.3,0.1l0,0C21,9.7,21,9.6,21,9.5
				c0-0.2,0-0.4-0.1-0.4l0,0c-0.1,0-0.2,0.1-0.2,0.3c0,0.1,0,0.2,0,0.2h0c0-0.1-0.1-0.2-0.2-0.2c-0.1,0-0.2,0.1-0.2,0.2
				c0,0.1,0.1,0.2,0.2,0.2c0,0,0,0,0-0.1c0-0.1,0-0.1,0.1-0.1c0.1,0,0.1,0,0.1,0.1c0,0.2-0.2,0.5-0.5,0.5c-0.3,0-0.5-0.2-0.5-0.5
				c0.2,0,0.4,0.2,0.5,0.3V9.3c-0.1,0.2-0.3,0.3-0.5,0.3c0-0.1,0.1-0.3,0.2-0.3V9.1V8.5c0.3,0,0.6-0.1,0.8-0.2
				c0.2-0.1,0.4-0.1,0.5,0c0.2,0.1,0.3,0.2,0.4,0.4c0.1,0.2,0.1,0.4,0,0.5l0,0.1c-0.1,0.1-0.1,0.3,0,0.4c0,0.1,0.1,0.2,0.2,0.2
				L21.3,10.6z"/>
		</g>
	</g>
	<path class="st0" d="M19.5,11.8c2.1,0,3.8,1.7,3.8,3.8s-1.7,3.8-3.8,3.8s-3.8-1.7-3.8-3.8S17.4,11.8,19.5,11.8 M19.5,11.3
		c-2.3,0-4.2,1.9-4.2,4.2s1.9,4.2,4.2,4.2s4.2-1.9,4.2-4.2S21.9,11.3,19.5,11.3L19.5,11.3z"/>
	<path class="st0" d="M27.7,6v21.2H11.4V6H27.7 M28.1,5.6H10.9v22.1h17.2V5.6L28.1,5.6z"/>
	<g>
		<path class="st0" d="M14.7,22.5c0.3,0,0.5-0.1,0.5-0.6v-1.3h0.6v1.3c0,0.7-0.3,1.1-1.1,1.1c-0.8,0-1.1-0.3-1.1-1.1v-1.3h0.6v1.3
			C14.2,22.3,14.4,22.5,14.7,22.5z"/>
		<path class="st0" d="M17.5,20.6v0.9c0,0,0,0,0,0h0.1c0,0,0.1,0,0.1,0l0.7-0.9h0.7l-0.9,1.1c0,0,0,0,0,0v0c0,0,0,0,0,0l1,1.1h-0.8
			l-0.8-1c0,0,0,0-0.1,0h-0.2c0,0,0,0,0,0v1l-0.6,0v-2.3H17.5z"/>
		<path class="st0" d="M22,22.9l-0.2-0.5c0,0,0,0-0.1,0c-0.1,0-0.3,0-0.5,0c-0.2,0-0.4,0-0.5,0c0,0-0.1,0-0.1,0l-0.2,0.5h-0.6l1-2.3
			h0.8l1,2.3H22z M21.6,21.9C21.6,21.9,21.6,21.9,21.6,21.9L21.3,21c0,0,0,0,0,0h0c0,0,0,0,0,0l-0.3,0.9c0,0,0,0,0,0L21.6,21.9z"/>
		<path class="st0" d="M25.2,20.6C25.3,20.6,25.3,20.7,25.2,20.6l0.1,0.2l0,0.2v0.1c0,0-0.1,0-0.1,0c-0.1,0-0.4-0.1-0.8-0.1
			c-0.3,0-0.5,0-0.5,0.2c0,0.2,0.2,0.2,0.6,0.3c0.6,0.1,1,0.2,1,0.7c0,0.6-0.6,0.7-1.2,0.7c-0.4,0-0.8-0.1-0.9-0.1c0,0-0.1,0-0.1,0
			l0-0.2l0-0.2l0-0.1c0,0,0.1,0,0.1,0c0.3,0.1,0.6,0.1,1,0.1c0.2,0,0.5,0,0.5-0.2c0-0.2-0.1-0.2-0.5-0.3c-0.6-0.1-1-0.2-1-0.7
			c0-0.6,0.5-0.7,1.1-0.7C24.8,20.5,25.2,20.6,25.2,20.6z"/>
	</g>
	<rect x="11.4" y="11.8" class="st0" width="1.3" height="0.2"/>
	<rect x="11.4" y="15.5" class="st0" width="1.3" height="0.2"/>
	<rect x="11.4" y="12.5" class="st0" width="0.7" height="0.2"/>
	<rect x="11.4" y="13.3" class="st0" width="0.7" height="0.2"/>
	<rect x="11.4" y="14" class="st0" width="0.7" height="0.2"/>
	<rect x="11.4" y="14.7" class="st0" width="0.7" height="0.2"/>
	<rect x="11.4" y="19.2" class="st0" width="1.3" height="0.2"/>
	<rect x="11.4" y="16.2" class="st0" width="0.7" height="0.2"/>
	<rect x="11.4" y="16.9" class="st0" width="0.7" height="0.2"/>
	<rect x="11.4" y="17.7" class="st0" width="0.7" height="0.2"/>
	<rect x="11.4" y="18.4" class="st0" width="0.7" height="0.2"/>
	<rect x="26.3" y="19.2" class="st0" width="1.3" height="0.2"/>
	<rect x="26.3" y="15.5" class="st0" width="1.3" height="0.2"/>
	<rect x="27" y="18.4" class="st0" width="0.7" height="0.2"/>
	<rect x="27" y="17.7" class="st0" width="0.7" height="0.2"/>
	<rect x="27" y="16.9" class="st0" width="0.7" height="0.2"/>
	<rect x="27" y="16.2" class="st0" width="0.7" height="0.2"/>
	<rect x="26.4" y="11.8" class="st0" width="1.3" height="0.2"/>
	<rect x="27" y="14.7" class="st0" width="0.7" height="0.2"/>
	<rect x="27" y="14" class="st0" width="0.7" height="0.2"/>
	<rect x="27" y="13.3" class="st0" width="0.7" height="0.2"/>
	<rect x="27" y="12.5" class="st0" width="0.7" height="0.2"/>
</g>
<g>
	<path class="st0" d="M39.4,17.1h0.5c0.3,0.7,0.6,1.8,0.9,2.8h-0.4l-0.2-0.6h-1.1l-0.2,0.6h-0.4C38.7,18.9,39.1,17.9,39.4,17.1z
		 M40.1,18.9c-0.1-0.5-0.3-0.9-0.4-1.4h0c-0.2,0.4-0.3,0.9-0.4,1.4H40.1z"/>
	<path class="st0" d="M40.9,18.9c0-0.6,0.2-1,0.9-1c0.2,0,0.4,0,0.5,0.1l-0.1,0.3c-0.1,0-0.3-0.1-0.5-0.1c-0.4,0-0.5,0.2-0.5,0.7
		c0,0.4,0.1,0.7,0.5,0.7c0.2,0,0.4-0.1,0.5-0.1l0.1,0.3c-0.2,0.1-0.4,0.1-0.7,0.1C41.2,19.9,40.9,19.5,40.9,18.9z"/>
	<path class="st0" d="M42.7,18.9c0-0.6,0.2-1,0.9-1c0.2,0,0.4,0,0.5,0.1l-0.1,0.3c-0.1,0-0.3-0.1-0.5-0.1c-0.4,0-0.5,0.2-0.5,0.7
		c0,0.4,0.1,0.7,0.5,0.7c0.2,0,0.4-0.1,0.5-0.1l0.1,0.3c-0.2,0.1-0.4,0.1-0.7,0.1C43,19.9,42.7,19.5,42.7,18.9z"/>
	<path class="st0" d="M44.6,17.9h0.3l0,0.2c0.2-0.2,0.4-0.3,0.6-0.3c0.1,0,0.2,0,0.2,0l0,0.4c-0.1,0-0.1,0-0.2,0
		c-0.2,0-0.4,0.1-0.5,0.2v1.5h-0.4V17.9z"/>
	<path class="st0" d="M46.6,17.8c0.5,0,0.8,0.4,0.8,0.9c0,0.1,0,0.2,0,0.3h-1.2c0,0.3,0.2,0.5,0.5,0.5c0.2,0,0.4-0.1,0.6-0.1
		l0.1,0.3c-0.2,0.1-0.4,0.2-0.7,0.2c-0.6,0-0.9-0.3-0.9-1C45.8,18.2,46.1,17.8,46.6,17.8z M47,18.7c0-0.3-0.1-0.5-0.4-0.5
		c-0.3,0-0.4,0.2-0.4,0.5H47z"/>
	<path class="st0" d="M47.7,18.9c0-0.7,0.3-1,0.9-1c0.1,0,0.3,0,0.4,0v-0.8h0.4v2.8H49l0-0.2c-0.1,0.1-0.3,0.2-0.5,0.2
		C48,19.9,47.7,19.6,47.7,18.9z M48.9,19.4v-1.2c-0.1,0-0.2,0-0.4,0c-0.4,0-0.5,0.2-0.5,0.7c0,0.5,0.1,0.7,0.4,0.7
		C48.7,19.6,48.8,19.5,48.9,19.4z"/>
	<path class="st0" d="M49.9,17.1h0.4v0.4h-0.4V17.1z M49.9,17.9h0.4v2h-0.4V17.9z"/>
	<path class="st0" d="M50.9,18.2h-0.3v-0.3l0.3,0l0-0.6h0.3v0.6h0.5v0.3h-0.5v1.1c0,0.2,0.1,0.3,0.2,0.3c0.1,0,0.2,0,0.3-0.1
		l0.1,0.3c-0.1,0.1-0.3,0.1-0.4,0.1c-0.3,0-0.5-0.2-0.5-0.6V18.2z"/>
	<path class="st0" d="M52.9,17.8c0.5,0,0.8,0.4,0.8,0.9c0,0.1,0,0.2,0,0.3h-1.2c0,0.3,0.2,0.5,0.5,0.5c0.2,0,0.4-0.1,0.6-0.1
		l0.1,0.3c-0.2,0.1-0.4,0.2-0.7,0.2c-0.6,0-0.9-0.3-0.9-1C52,18.2,52.3,17.8,52.9,17.8z M53.3,18.7c0-0.3-0.1-0.5-0.4-0.5
		c-0.3,0-0.4,0.2-0.4,0.5H53.3z"/>
	<path class="st0" d="M53.9,18.9c0-0.7,0.3-1,0.9-1c0.1,0,0.3,0,0.4,0v-0.8h0.4v2.8h-0.3l0-0.2c-0.1,0.1-0.3,0.2-0.5,0.2
		C54.2,19.9,53.9,19.6,53.9,18.9z M55.2,19.4v-1.2c-0.1,0-0.2,0-0.4,0c-0.4,0-0.5,0.2-0.5,0.7c0,0.5,0.1,0.7,0.4,0.7
		C54.9,19.6,55.1,19.5,55.2,19.4z"/>
	<path class="st0" d="M39.3,22h-0.8v-0.4h2V22h-0.8v2.4h-0.4V22z"/>
	<path class="st0" d="M41.2,22.4c0.5,0,0.8,0.4,0.8,0.9c0,0.1,0,0.2,0,0.3h-1.2c0,0.3,0.2,0.5,0.5,0.5c0.2,0,0.4-0.1,0.6-0.1
		l0.1,0.3c-0.2,0.1-0.4,0.2-0.7,0.2c-0.6,0-0.9-0.3-0.9-1C40.3,22.8,40.6,22.4,41.2,22.4z M41.6,23.3c0-0.3-0.1-0.5-0.4-0.5
		c-0.3,0-0.4,0.2-0.4,0.5H41.6z"/>
	<path class="st0" d="M42.3,24.1c0.2,0,0.4,0.1,0.6,0.1c0.2,0,0.4-0.1,0.4-0.2c0-0.2-0.2-0.2-0.5-0.3c-0.3-0.1-0.6-0.2-0.6-0.6
		c0-0.4,0.3-0.6,0.8-0.6c0.2,0,0.4,0,0.6,0.1l-0.1,0.3c-0.1,0-0.4-0.1-0.5-0.1c-0.3,0-0.4,0.1-0.4,0.2c0,0.2,0.2,0.2,0.5,0.3
		c0.3,0.1,0.6,0.2,0.6,0.6c0,0.4-0.3,0.6-0.8,0.6c-0.2,0-0.4,0-0.6-0.1L42.3,24.1z"/>
	<path class="st0" d="M44.1,22.8h-0.3v-0.3l0.3,0l0-0.6h0.3v0.6H45v0.3h-0.5v1.1c0,0.2,0.1,0.3,0.2,0.3c0.1,0,0.2,0,0.3-0.1l0.1,0.3
		c-0.1,0.1-0.3,0.1-0.4,0.1c-0.3,0-0.5-0.2-0.5-0.6V22.8z"/>
	<path class="st0" d="M45.4,21.7h0.4v0.4h-0.4V21.7z M45.4,22.4h0.4v2h-0.4V22.4z"/>
	<path class="st0" d="M46.3,22.4h0.3l0,0.2c0.2-0.1,0.4-0.2,0.6-0.2c0.4,0,0.6,0.3,0.6,0.7v1.4h-0.4v-1.3c0-0.2-0.1-0.4-0.3-0.4
		c-0.2,0-0.4,0.1-0.5,0.2v1.5h-0.4V22.4z"/>
	<path class="st0" d="M49.1,24.9c0.2,0,0.4-0.1,0.4-0.4v-0.2c-0.1,0.1-0.3,0.1-0.5,0.1c-0.5,0-0.8-0.3-0.8-1c0-0.7,0.3-1,0.9-1
		c0.3,0,0.5,0.1,0.7,0.1v2c0,0.6-0.3,0.8-0.8,0.8c-0.2,0-0.4,0-0.6-0.1l0-0.3C48.7,24.9,48.9,24.9,49.1,24.9z M49.6,24v-1.2
		c-0.1,0-0.2,0-0.3,0c-0.4,0-0.5,0.2-0.5,0.7c0,0.5,0.1,0.7,0.4,0.7C49.3,24.1,49.4,24.1,49.6,24z"/>
	<path class="st0" d="M51.5,21.7h0.4v2.4h1.2v0.4h-1.6V21.7z"/>
	<path class="st0" d="M54.1,23.2c0.1,0,0.2,0,0.4,0v-0.1c0-0.3-0.1-0.4-0.4-0.4c-0.2,0-0.4,0-0.6,0.1l-0.1-0.3
		c0.2,0,0.4-0.1,0.7-0.1c0.5,0,0.8,0.2,0.8,0.7v1.3h-0.3l0-0.2c-0.1,0.1-0.3,0.2-0.6,0.2c-0.4,0-0.7-0.2-0.7-0.6
		C53.2,23.4,53.5,23.2,54.1,23.2z M54,24.2c0.2,0,0.3-0.1,0.5-0.2v-0.5c-0.1,0-0.3,0-0.4,0c-0.3,0-0.4,0.1-0.4,0.3
		C53.6,24,53.8,24.2,54,24.2z"/>
	<path class="st0" d="M55.3,21.7h0.4v0.9c0.1-0.1,0.3-0.1,0.5-0.1c0.5,0,0.8,0.4,0.8,1c0,0.7-0.3,1-0.9,1c-0.3,0-0.6-0.1-0.8-0.1
		V21.7z M56.1,24.1c0.4,0,0.5-0.2,0.5-0.7c0-0.5-0.1-0.7-0.4-0.7c-0.1,0-0.3,0-0.4,0.1v1.2C55.8,24.1,56,24.1,56.1,24.1z"/>
	<path class="st0" d="M57.3,23.4c0-0.6,0.2-1,0.9-1c0.6,0,0.9,0.4,0.9,1c0,0.6-0.2,1-0.9,1C57.5,24.5,57.3,24.1,57.3,23.4z
		 M58.7,23.4c0-0.4-0.1-0.7-0.5-0.7c-0.4,0-0.5,0.3-0.5,0.7c0,0.4,0.1,0.7,0.5,0.7C58.6,24.1,58.7,23.8,58.7,23.4z"/>
	<path class="st0" d="M59.5,22.4h0.3l0,0.2c0.2-0.2,0.4-0.3,0.6-0.3c0.1,0,0.2,0,0.2,0l0,0.4c-0.1,0-0.1,0-0.2,0
		c-0.2,0-0.4,0.1-0.5,0.2v1.5h-0.4V22.4z"/>
	<path class="st0" d="M61.6,23.2c0.1,0,0.2,0,0.4,0v-0.1c0-0.3-0.1-0.4-0.4-0.4c-0.2,0-0.4,0-0.6,0.1l-0.1-0.3
		c0.2,0,0.4-0.1,0.7-0.1c0.5,0,0.8,0.2,0.8,0.7v1.3H62l0-0.2c-0.1,0.1-0.3,0.2-0.6,0.2c-0.4,0-0.7-0.2-0.7-0.6
		C60.7,23.4,61,23.2,61.6,23.2z M61.5,24.2c0.2,0,0.3-0.1,0.5-0.2v-0.5c-0.1,0-0.3,0-0.4,0c-0.3,0-0.4,0.1-0.4,0.3
		C61.1,24,61.3,24.2,61.5,24.2z"/>
	<path class="st0" d="M62.9,22.8h-0.3v-0.3l0.3,0l0-0.6h0.3v0.6h0.5v0.3h-0.5v1.1c0,0.2,0.1,0.3,0.2,0.3c0.1,0,0.2,0,0.3-0.1
		l0.1,0.3c-0.1,0.1-0.3,0.1-0.4,0.1c-0.3,0-0.5-0.2-0.5-0.6V22.8z"/>
	<path class="st0" d="M64.1,23.4c0-0.6,0.2-1,0.9-1c0.6,0,0.9,0.4,0.9,1c0,0.6-0.2,1-0.9,1C64.3,24.5,64.1,24.1,64.1,23.4z
		 M65.5,23.4c0-0.4-0.1-0.7-0.5-0.7c-0.4,0-0.5,0.3-0.5,0.7c0,0.4,0.1,0.7,0.5,0.7C65.4,24.1,65.5,23.8,65.5,23.4z"/>
	<path class="st0" d="M66.3,22.4h0.3l0,0.2c0.2-0.2,0.4-0.3,0.6-0.3c0.1,0,0.2,0,0.2,0l0,0.4c-0.1,0-0.1,0-0.2,0
		c-0.2,0-0.4,0.1-0.5,0.2v1.5h-0.4V22.4z"/>
	<path class="st0" d="M67.5,22.6h0.4c0.1,0.5,0.3,1.1,0.5,1.6h0c0.2-0.5,0.4-1.1,0.5-1.6h0.4c-0.2,0.9-0.6,1.9-0.9,2.7h-0.4
		c0.1-0.2,0.2-0.5,0.3-0.8h-0.2C67.9,24.1,67.6,23.2,67.5,22.6z"/>
</g>
</svg>
