<?xml version="1.0" encoding="UTF-8"?>
<svg xmlns="http://www.w3.org/2000/svg" version="1.1" viewBox="0 0 40.1 40.1">
  <defs>
    <style>
      .cls-1 {
        isolation: isolate;
      }

      .cls-2 {
        fill: #fff;
      }

      .cls-3 {
        fill: #4b4b4a;
      }
    </style>
  </defs>
  <!-- Generator: Adobe Illustrator 28.6.0, SVG Export Plug-In . SVG Version: 1.2.0 Build 709)  -->
  <g>
    <g id="Layer_1">
      <g id="medal-gold">
        <g id="Medal">
          <path class="cls-3" d="M7.8,4.3l-4.3,2.3h4.3v-2.3Z"/>
          <path class="cls-2" d="M29,29H11.1v.5h17.9v-.5Z"/>
          <path class="cls-2" d="M7.8,27.4c-.1,0-.3,0-.4,0-.1,0-.2,0-.3-.2v-.2c.2,0,.2.1.3.1s.2,0,.3,0,.2,0,.2,0c0,0,.1,0,.1,0,0,0,0,0,0-.1s0-.1,0-.1c0,0,0,0-.2,0,0,0-.1,0-.2,0s-.1,0-.2,0c0,0-.1,0-.2,0,0,0-.1,0-.1-.1,0,0,0-.1,0-.2s0-.2,0-.2c0,0,.1-.1.2-.2,0,0,.2,0,.4,0s.2,0,.3,0,.2,0,.3.1v.2c-.2,0-.2,0-.3-.1,0,0-.2,0-.2,0s-.2,0-.2,0-.1,0-.1,0c0,0,0,0,0,.1s0,.1,0,.1c0,0,0,0,.2,0,0,0,.1,0,.2,0,0,0,.1,0,.2,0,0,0,.1,0,.2,0,0,0,.1,0,.2.1s0,.1,0,.2,0,.2,0,.2c0,0-.1.1-.2.2,0,0-.2,0-.4,0h0ZM9.4,27.4c-.1,0-.2,0-.3,0,0,0-.1-.1-.2-.2,0,0,0-.2,0-.3v-.8h.2v.7c0,.1,0,.2,0,.3,0,0,.1,0,.3,0s.2,0,.2,0c0,0,.1,0,.1-.1,0,0,0-.1,0-.2v-.7h.2v1.3h-.2v-.4h0c0,.2-.1.2-.2.3,0,0-.2,0-.3,0h0s0,0,0,0ZM10.9,27.4c-.1,0-.2,0-.3,0,0,0-.2,0-.2-.1v-.2c.2,0,.2,0,.3,0s.2,0,.3,0,.2,0,.2,0c0,0,0,0,0-.1s0,0,0,0,0,0-.1,0c0,0-.1,0-.2,0,0,0-.1,0-.2,0,0,0-.1,0-.2,0,0,0,0,0-.1-.1,0,0,0-.1,0-.2s0-.1,0-.2.1-.1.2-.1c0,0,.2,0,.3,0s.2,0,.3,0c0,0,.2,0,.2,0v.2c-.2,0-.2,0-.3,0s-.1,0-.2,0c-.1,0-.2,0-.2,0,0,0,0,0,0,.1s0,0,0,.1c0,0,0,0,.1,0,0,0,.1,0,.2,0,0,0,.1,0,.2,0,0,0,.1,0,.2,0,0,0,0,0,.1.1,0,0,0,.1,0,.2s0,.1,0,.2c0,0-.1.1-.2.1,0,0-.2,0-.3,0h0ZM12.2,27.4c-.1,0-.2,0-.3-.1s-.1-.2-.1-.3v-1.2h.2v1.2c0,0,0,.1,0,.2,0,0,0,0,.2,0s.1,0,.2,0v.2s0,0,0,0c0,0-.1,0-.2,0h0ZM11.5,26.3v-.2h.8v.2s-.8,0-.8,0ZM13.6,27.4v-.3h0v-.5c0-.1,0-.2,0-.2,0,0-.1,0-.3,0s-.2,0-.2,0c0,0-.1,0-.2.1v-.2c0,0,0,0,.1-.1,0,0,.2,0,.3,0,.2,0,.3,0,.4.1,0,0,.1.2.1.4v.8h-.2,0ZM13.1,27.4c0,0-.2,0-.3,0,0,0-.1,0-.2-.1,0,0,0-.1,0-.2s0-.1,0-.2c0,0,0-.1.2-.1,0,0,.2,0,.3,0h.4v.2h-.4c-.1,0-.2,0-.2,0,0,0,0,0,0,.1s0,.1,0,.2c0,0,.1,0,.2,0s.2,0,.2,0c0,0,.1,0,.1-.2v.2c0,0,0,.1-.1.2,0,0-.2,0-.3,0h0ZM14.2,27.4v-1.3h.2v1.3h-.2ZM14.3,25.9s0,0-.1,0c0,0,0,0,0-.1s0,0,0-.1c0,0,0,0,.1,0s0,0,.1,0c0,0,0,0,0,.1s0,0,0,.1c0,0,0,0-.1,0h0ZM15.6,26.1c.1,0,.2,0,.3,0,0,0,.1.1.2.2s0,.2,0,.3v.8h-.2v-.7c0-.1,0-.2,0-.3,0,0-.1,0-.3,0s-.2,0-.2,0c0,0-.1,0-.1.1,0,0,0,.1,0,.2v.7h-.2v-1.3h.2v.4h0c0-.2.1-.2.2-.3s.2,0,.3,0ZM17.4,27.4v-.3h0v-.5c0-.1,0-.2,0-.2,0,0-.1,0-.3,0s-.2,0-.2,0c0,0-.1,0-.2.1v-.2c0,0,0,0,.1-.1,0,0,.2,0,.3,0,.2,0,.3,0,.4.1,0,0,.1.2.1.4v.8h-.2,0ZM17,27.4c0,0-.2,0-.3,0,0,0-.1,0-.2-.1,0,0,0-.1,0-.2s0-.1,0-.2c0,0,0-.1.2-.1,0,0,.2,0,.3,0h.4v.2h-.4c-.1,0-.2,0-.2,0,0,0,0,0,0,.1s0,.1,0,.2c0,0,.1,0,.2,0s.2,0,.2,0c0,0,.1,0,.1-.2v.2c0,0,0,.1-.1.2,0,0-.2,0-.3,0h0ZM18.8,27.4c-.1,0-.2,0-.3,0,0,0-.2-.1-.2-.2,0,0,0-.2,0-.4s0-.3,0-.4c0,0,.1-.2.2-.2,0,0,.2,0,.3,0s.2,0,.3,0,.2.1.2.2c0,0,0,.2,0,.3s0,.2,0,.3c0,.1-.1.2-.2.2s-.2,0-.3,0h0ZM18.1,27.4v-1.8h.2v1.2s0,.3,0,.3v.4h-.2,0ZM18.7,27.2c0,0,.2,0,.2,0,0,0,.1,0,.2-.2,0,0,0-.2,0-.2s0-.2,0-.2c0,0,0-.1-.2-.2,0,0-.1,0-.2,0s-.2,0-.2,0c0,0-.1,0-.2.2,0,0,0,.1,0,.2s0,.2,0,.2c0,0,0,.1.2.2,0,0,.1,0,.2,0ZM19.7,27.4v-1.3h.2v1.3h-.2ZM19.9,25.9s0,0-.1,0c0,0,0,0,0-.1s0,0,0-.1c0,0,0,0,.1,0s0,0,.1,0c0,0,0,0,0,.1s0,0,0,.1c0,0,0,0-.1,0h0ZM20.4,27.4v-1.8h.2v1.8h-.2ZM21.1,27.4v-1.3h.2v1.3h-.2ZM21.2,25.9s0,0-.1,0c0,0,0,0,0-.1s0,0,0-.1c0,0,0,0,.1,0s0,0,.1,0c0,0,0,0,0,.1s0,0,0,.1c0,0,0,0-.1,0h0ZM22.3,27.4c-.1,0-.2,0-.3-.1s-.1-.2-.1-.3v-1.2h.2v1.2c0,0,0,.1,0,.2,0,0,0,0,.2,0s.1,0,.2,0v.2s0,0,0,0c0,0-.1,0-.2,0h0ZM21.6,26.3v-.2h.8v.2h-.8ZM22.9,27.9c0,0-.1,0-.2,0,0,0-.1,0-.2,0v-.2c.1,0,.2,0,.2,0,0,0,0,0,.1,0s.1,0,.1,0c0,0,0,0,.1-.2v-.2c0,0,.1,0,.1,0l.5-1.2h.2l-.6,1.4c0,0,0,.2-.1.2,0,0,0,0-.2.1,0,0-.1,0-.2,0h0ZM23.2,27.5l-.6-1.3h.2l.5,1.2-.2.2h0ZM24.9,27.4v-1.7h.7c.2,0,.3,0,.4,0,.1,0,.2.1.2.2,0,0,0,.2,0,.3s0,.2,0,.3c0,0-.1.2-.2.2s-.2,0-.4,0h-.5.1c0-.1,0,.5,0,.5h-.2,0ZM26,27.4l-.4-.6h.3l.4.6h-.3ZM25.1,26.8h-.1c0-.1.5-.1.5-.1.2,0,.3,0,.4-.1,0,0,.1-.2.1-.3s0-.2-.1-.3c0,0-.2-.1-.4-.1h-.5.1c0-.1,0,.9,0,.9h0ZM27.4,27.4v-.3h0v-.5c0-.1,0-.2,0-.2,0,0-.1,0-.3,0s-.2,0-.2,0c0,0-.1,0-.2.1v-.2c0,0,0,0,.1-.1,0,0,.2,0,.3,0,.2,0,.3,0,.4.1s.1.2.1.4v.8h-.2,0ZM27,27.4c0,0-.2,0-.3,0,0,0-.1,0-.2-.1,0,0,0-.1,0-.2s0-.1,0-.2c0,0,0-.1.2-.1,0,0,.2,0,.3,0h.4v.2h-.4c-.1,0-.2,0-.2,0,0,0,0,0,0,.1s0,.1,0,.2c0,0,.1,0,.2,0s.2,0,.2,0c0,0,.1,0,.1-.2v.2c0,0,0,.1-.1.2,0,0-.2,0-.3,0h0ZM28.5,27.4c-.1,0-.2,0-.3-.1s-.1-.2-.1-.3v-1.2h.2v1.2c0,0,0,.1,0,.2,0,0,0,0,.2,0s.1,0,.2,0v.2s0,0,0,0c0,0-.1,0-.2,0h0ZM27.9,26.3v-.2h.8v.2h-.8ZM29.1,27.4v-1.3h.2v1.3h-.2ZM29.2,25.9s0,0-.1,0c0,0,0,0,0-.1s0,0,0-.1c0,0,0,0,.1,0s0,0,.1,0c0,0,0,0,0,.1s0,0,0,.1c0,0,0,0-.1,0h0ZM30.5,26.1c.1,0,.2,0,.3,0,0,0,.1.1.2.2s0,.2,0,.3v.8h-.2v-.7c0-.1,0-.2,0-.3,0,0-.1,0-.3,0s-.2,0-.2,0-.1,0-.1.1c0,0,0,.1,0,.2v.7h-.2v-1.3h.2v.4h0c0-.2.1-.2.2-.3s.2,0,.3,0h0ZM32,27.9c-.1,0-.2,0-.3,0-.1,0-.2,0-.3-.1v-.2c.2,0,.2,0,.3.1,0,0,.2,0,.3,0,.2,0,.3,0,.3-.1,0,0,.1-.2.1-.3v-.5s0-.3,0-.3v-.4h.2v1.1c0,.2,0,.4-.2.5-.1.1-.3.2-.5.2h0ZM32,27.4c-.1,0-.2,0-.3,0,0,0-.2-.1-.2-.2,0,0,0-.2,0-.3s0-.2,0-.3c0,0,.1-.2.2-.2.1,0,.2,0,.3,0s.2,0,.3,0c0,0,.2.1.2.2,0,0,0,.2,0,.4s0,.3,0,.4c0,0-.1.2-.2.2,0,0-.2,0-.3,0h0ZM32,27.2c0,0,.2,0,.2,0,0,0,.1,0,.2-.2,0,0,0-.1,0-.2s0-.2,0-.2,0-.1-.2-.1c0,0-.1,0-.2,0s-.2,0-.2,0c0,0-.1,0-.2.1,0,0,0,.1,0,.2s0,.2,0,.2c0,0,0,.1.2.2,0,0,.1,0,.2,0Z"/>
          <path class="cls-2" d="M8.5,20c0,0,0,.1-.1.1h-2.9c0,.6.7,1.1,1.3,1.1.4,0,.7-.1,1-.3,0,0,.1,0,.2,0l.2.4c0,0,0,.2,0,.2-.3.2-.7.4-1.4.4-1.2,0-2.1-.9-2.1-2.1s.8-2.1,2-2.1,1.8.8,1.8,2h0c0,.1,0,.1,0,.1ZM5.5,19.5h2.2c0-.6-.5-1-1-1s-1,.4-1.2,1Z"/>
          <path class="cls-2" d="M30.6,21.7v-3.7c0,0,0-.1.1-.1h.6c0,0,.1,0,.1.1v3.7c0,0,0,.1-.1.1h-.6c0,0-.1,0-.1-.1h0Z"/>
          <path class="cls-2" d="M30.6,17v-.6c0,0,0-.1.1-.1h.6c0,0,.1,0,.1.1v.6c0,0,0,.1-.1.1h-.6c0,0-.1,0-.1-.1h0Z"/>
          <path class="cls-2" d="M32.2,21.5c0,0,0-.1,0-.2l.2-.4c0,0,0,0,.2,0,0,0,0,0,0,0,.3.2.8.4,1.2.4s.7-.2.7-.5-.2-.4-.8-.6c-.8-.2-1.4-.5-1.4-1.2s.6-1.2,1.5-1.2c.5,0,.9.1,1.4.4,0,0,0,.1,0,.2,0,0,0,0,0,0l-.2.4c0,0,0,0-.2,0,0,0,0,0,0,0-.3-.2-.7-.3-1-.3s-.6.1-.6.4.2.4.9.5c.8.2,1.3.5,1.3,1.2s-.6,1.2-1.6,1.2c-.5,0-1.1-.2-1.5-.4h0Z"/>
          <path class="cls-2" d="M8.9,19.9c0-1.2.9-2.1,2.1-2.1.4,0,.9.1,1.2.3,0,0,0,.1,0,.2l-.2.4c0,0,0,0-.2,0,0,0,0,0,0,0-.2-.1-.5-.2-.8-.2-.8,0-1.3.5-1.3,1.3s.5,1.3,1.3,1.3c.3,0,.6,0,.8-.2,0,0,.1,0,.2,0l.2.4c0,0,0,.1,0,.2-.4.2-.8.3-1.2.3-1.2,0-2.1-.9-2.1-2.1h0Z"/>
          <path class="cls-2" d="M12.6,19.9c0-1.2.9-2.1,2.1-2.1s2,.9,2,2.1-.9,2.1-2,2.1-2.1-.9-2.1-2.1ZM15.9,19.9c0-.7-.5-1.3-1.2-1.3s-1.2.6-1.2,1.3.5,1.3,1.2,1.3,1.2-.6,1.2-1.3Z"/>
          <path class="cls-2" d="M25,18v3.7c0,0,0,.1-.1.1h-.5c0,0-.1,0-.1-.1h0s0-.5,0-.5c-.3.4-.8.7-1.4.7-1.1,0-1.9-.9-1.9-2.1s.8-2.1,1.9-2.1c.5,0,1,.2,1.4.6v-.4c0,0,0-.1.2-.1h.5c0,0,.1,0,.1.1h0ZM24.2,19.9c0-.7-.5-1.3-1.2-1.3s-1.2.5-1.2,1.3.5,1.3,1.2,1.3,1.2-.5,1.2-1.3Z"/>
          <path class="cls-2" d="M29.7,16.4v5.3c0,0,0,.1-.1.1h-.4c0,0-.1,0-.1-.1h0s0-.5,0-.5c-.3.4-.9.7-1.4.7-1.1,0-1.9-.9-1.9-2.1s.8-2.1,1.8-2.1c.5,0,1,.2,1.3.6v-2c0,0,0-.1.1-.1h.6c0,0,.1,0,.1.1,0,0,0,0,0,0h0ZM28.9,19.9c0-.7-.5-1.3-1.2-1.3s-1.2.5-1.2,1.3.5,1.3,1.2,1.3,1.2-.5,1.2-1.3Z"/>
          <path class="cls-2" d="M17.7,18c0,0,0-.1-.2-.1h-.6c0,0-.1,0,0,.2l.3.7c.1.3.5.6.8.6h.3s-.6-1.4-.6-1.4Z"/>
          <path class="cls-2" d="M20.8,17.9h-.6c0,0-.1,0-.2.1l-1.1,2.8v-.3c-.3-.3-.6-.6-1-.6h-.3l.8,1.9c0,0,0,.1.2.1h.4c0,0,.1,0,.2-.1l1.6-3.7c0-.1,0-.2,0-.2h0Z"/>
          <g>
            <path class="cls-2" d="M22.4,9.9c0,0-.2,0-.3,0s-.2,0-.3,0c0,0-.2.1-.2.2,0,0,0,.2,0,.3s0,.2,0,.3c0,0,.1.2.2.2,0,0,.2,0,.3,0s.2,0,.3,0c0,0,.2-.1.2-.2,0,0,0-.2,0-.3s0-.2,0-.3c0,0-.1-.2-.2-.2Z"/>
            <path class="cls-2" d="M13.5,9.5c-.1,0-.2,0-.4,0h-.5v1.4h.5c.2,0,.3,0,.4,0,.1,0,.2-.1.3-.2,0-.1,0-.2,0-.4s0-.3,0-.4c0-.1-.1-.2-.3-.2Z"/>
            <path class="cls-2" d="M20.2,9.9c0,0-.2,0-.3,0s-.2,0-.3,0-.2.1-.2.2c0,0,0,.2,0,.3s0,.2,0,.3c0,0,.1.2.2.2,0,0,.2,0,.3,0s.2,0,.3,0c0,0,.2-.1.2-.2,0,0,0-.2,0-.3s0-.2,0-.3c0,0-.1-.2-.2-.2Z"/>
            <path class="cls-2" d="M26.7,9.9c0,0,0-.2,0-.3s0-.2,0-.3c0,0-.1,0-.2,0s-.1,0-.2,0c0,0,0,.1,0,.3s0,.2,0,.3c0,0,.1,0,.2,0s.1,0,.2,0Z"/>
            <path class="cls-2" d="M9,9.6c0,0-.1-.1-.2-.1,0,0-.2,0-.3,0s-.2,0-.3,0c0,0-.2,0-.2.1,0,0-.1.1-.2.2,0,0,0,.2,0,.3s0,.2,0,.3c0,0,0,.2.1.2,0,0,.1.1.2.1,0,0,.2,0,.3,0s.2,0,.3,0c0,0,.2,0,.2-.1,0,0,.1-.1.1-.2,0,0,0-.2,0-.3s0-.2,0-.3c0,0,0-.2-.1-.2Z"/>
            <path class="cls-2" d="M31.4,13l-1.3-2.7c0-.1,0-.2,0-.3h0l1.3-2.7c.1-.3,0-.5-.3-.5H3.5c-.1,0-.3,0-.3.2L0,13c-.1.3,0,.6.3.6h30.7c.3,0,.5-.3.3-.5ZM5.3,10.4c0,0,0,.2.2.2,0,0,.1.1.2.1,0,0,.2,0,.3,0s.2,0,.3,0c0,0,0,0,.1,0v-.7h.5v.9h0c-.1,0-.3.2-.4.2-.2,0-.3,0-.5,0h0c-.2,0-.3,0-.5,0-.1,0-.3-.1-.4-.2-.1-.1-.2-.2-.3-.4,0-.1,0-.3,0-.5s0-.3,0-.5c0-.1.1-.3.3-.4s.2-.2.4-.2c.2,0,.3,0,.5,0s.4,0,.5.1c.2,0,.3.2.4.3l-.3.3c0,0-.2-.1-.3-.2,0,0-.2,0-.3,0s-.2,0-.3,0c0,0-.2,0-.2.1,0,0-.1.1-.2.2,0,0,0,.2,0,.3s0,.2,0,.3ZM9.6,10.6c0,.1-.1.3-.3.4-.1.1-.2.2-.4.2-.1,0-.3,0-.5,0s-.3,0-.5,0c-.2,0-.3-.1-.4-.2-.1-.1-.2-.2-.3-.4,0-.1,0-.3,0-.5s0-.3,0-.5c0-.1.1-.3.3-.4.1-.1.2-.2.4-.2.2,0,.3,0,.5,0s.3,0,.5,0c.2,0,.3.1.4.2.1.1.2.2.3.4,0,.1,0,.3,0,.5s0,.3,0,.5ZM11.8,11.2h-1.7v-2.3h.5v1.8h1.1v.4ZM14.2,10.7c-.1.2-.3.3-.4.4-.2,0-.4.1-.6.1h-1v-2.3h1c.2,0,.5,0,.6.1.2,0,.3.2.4.4.1.2.2.4.2.6s0,.4-.2.6ZM16,11.9h-.3v-3h.3v3ZM18.3,11.2h-.3v-2h-.8v-.3h1.9v.3h-.8v2ZM20.7,10.8c0,.1-.2.2-.3.3-.1,0-.3.1-.5.1s-.3,0-.5-.1-.2-.2-.3-.3c0-.1-.1-.3-.1-.5s0-.3.1-.5c0-.1.2-.2.3-.3.1,0,.3-.1.5-.1s.3,0,.5.1c.1,0,.2.2.3.3,0,.1.1.3.1.5s0,.3-.1.5ZM22.9,10.8c0,.1-.2.2-.3.3-.1,0-.3.1-.4.1h0c-.1,0-.3,0-.4,0,0,0-.1-.1-.2-.2v.9h-.3v-2.3h.3v.3c0,0,.1-.1.2-.2.1,0,.3,0,.4,0s.3,0,.4.1c.1,0,.2.2.3.3,0,.1.1.3.1.5s0,.3-.1.5ZM25.7,10.9c0,.1-.2.2-.3.3-.1,0-.3.1-.5.1h0c-.2,0-.3,0-.5,0-.2,0-.3-.1-.4-.2l.2-.4c0,0,.2.1.3.1.1,0,.2,0,.3,0s.2,0,.3,0c0,0,.1-.1.1-.2s0-.1,0-.2c0,0,0,0-.2-.1,0,0-.2,0-.3,0h-.6v-1.3h1.5v.4h-.9v.4s.1,0,.1,0c.2,0,.4,0,.5,0,.1,0,.2.1.3.2,0,.1,0,.2,0,.4s0,.3-.1.4ZM26,9.9c0,0,0-.2,0-.3s0-.2,0-.3c0,0,.1-.2.2-.2,0,0,.2,0,.3,0s.2,0,.3,0c0,0,.1.1.2.2,0,0,0,.2,0,.3s0,.2,0,.3c0,0-.1.2-.2.2,0,0-.2,0-.3,0s-.2,0-.3,0c0,0-.2-.1-.2-.2ZM26.3,11.2l1.5-2.3h.4l-1.5,2.3h-.4ZM28.6,11c0,0-.1.2-.2.2,0,0-.2,0-.3,0s-.2,0-.3,0c0,0-.1-.1-.2-.2,0,0,0-.2,0-.3s0-.2,0-.3c0,0,.1-.2.2-.2,0,0,.2,0,.3,0s.2,0,.3,0c0,0,.1.1.2.2,0,0,0,.2,0,.3s0,.2,0,.3Z"/>
            <path class="cls-2" d="M28.1,10.3c0,0-.1,0-.2,0,0,0,0,.1,0,.3s0,.2,0,.3c0,0,.1,0,.2,0s.1,0,.2,0c0,0,0-.2,0-.3s0-.2,0-.3c0,0-.1,0-.2,0Z"/>
          </g>
        </g>
      </g>
      <g class="cls-1">
        <g class="cls-1">
          <path class="cls-2" d="M13.7,32.5h-1.3l-.3.6h-.2l1-2.3h.2l1,2.3h-.3l-.3-.6ZM13.6,32.3l-.5-1.2-.5,1.2h1.1Z"/>
          <path class="cls-2" d="M14.5,32.1v-1.3h.2v1.3c0,.5.3.8.7.8s.7-.2.7-.8v-1.3h.2v1.3c0,.6-.3,1-.9,1s-.9-.3-.9-1Z"/>
          <path class="cls-2" d="M18.7,32h.2v.9c-.2.2-.5.3-.8.3-.7,0-1.2-.5-1.2-1.2s.5-1.2,1.2-1.2.6.1.8.3v.2c-.3-.2-.6-.3-.8-.3-.6,0-1,.4-1,.9s.4.9,1,.9.4,0,.6-.2v-.8Z"/>
          <path class="cls-2" d="M21.8,32.9v.2h-1.6v-.2l.9-.9c.3-.3.3-.4.3-.6,0-.3-.2-.4-.5-.4s-.5,0-.6.3h-.2c.2-.3.5-.5.8-.5s.8.2.8.6,0,.4-.4.7l-.8.8h1.2Z"/>
          <path class="cls-2" d="M22.1,32c0-.7.4-1.2.9-1.2s.9.4.9,1.2-.4,1.2-.9,1.2-.9-.4-.9-1.2ZM23.7,32c0-.6-.3-.9-.7-.9s-.7.3-.7.9.3.9.7.9.7-.3.7-.9Z"/>
          <path class="cls-2" d="M25.8,32.9v.2h-1.6v-.2l.9-.9c.3-.3.3-.4.3-.6,0-.3-.2-.4-.5-.4s-.5,0-.6.3h-.2c.2-.3.5-.5.8-.5s.8.2.8.6,0,.4-.4.7l-.8.8h1.2Z"/>
          <path class="cls-2" d="M27.9,32.5h-.5v.6h-.2v-.6h-1.3v-.2l1.2-1.5h.3l-1.2,1.5h1v-.5h.2v.5h.5v.2Z"/>
        </g>
      </g>
      <g>
        <path class="cls-2" d="M20,0C9,0,0,9,0,20s9,20,20,20,20-9,20-20S31.1,0,20,0ZM20,37.7c-9.8,0-17.7-7.9-17.7-17.7s1-6.6,2.6-9.3c0,0,0-.1,0-.2,0-.1,0-.3,0-.5s0-.3,0-.5c0-.1.1-.3.3-.4.1-.1.2-.2.4-.2.2,0,.3,0,.5,0s.1,0,.2,0c3.2-4,8.2-6.6,13.8-6.6,9.8,0,17.7,7.9,17.7,17.7s-7.9,17.7-17.7,17.7Z"/>
        <path class="cls-2" d="M5.7,9.4c0,0-.2,0-.2.1,0,0-.1.1-.2.2,0,0,0,.2,0,.3s0,0,0,0c.2-.3.4-.5.6-.8,0,0,0,0-.1,0Z"/>
      </g>
    </g>
  </g>
</svg>