<?xml version="1.0" encoding="utf-8"?>
<!-- Generator: Adobe Illustrator 24.1.0, SVG Export Plug-In . SVG Version: 6.00 Build 0)  -->
<svg version="1.1" id="Layer_1" xmlns="http://www.w3.org/2000/svg" xmlns:xlink="http://www.w3.org/1999/xlink" x="0px" y="0px"
	 viewBox="0 0 127.1 94.8" style="enable-background:new 0 0 127.1 94.8;" xml:space="preserve">
<style type="text/css">
	.st0{fill:#FFFFFF;}
</style>
<g>
	<path class="st0" d="M20.7,43.6c-1.9-2.5-5.2-3.7-8.2-3.7c-7.3,0-12.3,5.3-12.3,12.6c0,5.9,4.6,12.2,12.1,12.2
		c5.4,0,8.2-3.2,8.9-4.1l-2.7-2c-1.4,2-3.5,3.2-6.1,3.2c-5.5,0-8.8-4.2-8.8-9.2c0-5.4,3.5-9.6,8.8-9.6c2.2,0,4.4,1,5.7,2.7
		L20.7,43.6z M21.4,64.1h3.7l2.3-5.8h11.2l2.4,5.8h3.7l-10-23.5h-2.9L21.4,64.1z M28.6,55.4l4.5-10.8h0.1l4.4,10.8H28.6z M47.1,64.1
		h8.1c4.6,0,8.3-2.3,8.3-6.6c0-3.2-2.3-5.7-5.1-5.9v-0.1c2.4-0.8,4.1-2.5,4.1-5.2c0-4-3.1-5.9-7.1-5.9h-8.2L47.1,64.1L47.1,64.1z
		 M50.3,43.3h5c2.6,0,3.7,1.6,3.7,3.5c0,2.6-2,3.5-4.4,3.5h-4.4L50.3,43.3L50.3,43.3z M50.3,53.1h4.7c3.1,0,5.1,1.4,5.1,4.2
		c0,3.3-3.2,4-5.1,4h-4.7V53.1z M67.3,64.1h14v-3H70.5V40.5h-3.2C67.3,40.5,67.3,64.1,67.3,64.1z M83.9,64.1h15.8v-3H87.1v-7.6h11.2
		v-3H87.1v-7h12v-3H83.9V64.1z M101.5,61.4c1.6,2.2,4.5,3.3,7.5,3.3c4.5,0,8.2-2.7,8.2-7.3c0-8.5-11.6-4.9-11.6-10.9
		c0-1.5,1.1-3.6,4.6-3.6c1.8,0,3.4,0.8,4.2,2.1l2.6-2.4c-1.8-2.2-4.2-2.7-6.8-2.7c-5.6,0-8,3.8-8,6.6c0,9.2,11.6,5.8,11.6,11.3
		c0,2.6-2.6,3.9-4.7,3.9c-1.9,0-3.9-0.8-5-2.5L101.5,61.4z"/>
</g>
<g>
	<path class="st0" d="M0.8,33.8h17.2v-5H6.2v-5h10.6v-5H6.2v-4.6h11.3v-5H0.8V33.8z M21.9,33.8h15.4v-5h-10V9.3h-5.4
		C21.9,9.3,21.9,33.8,21.9,33.8z M39.1,33.8h6l2-5.2h9.5l2.1,5.2h6.1L54.1,9.3h-4.5L39.1,33.8z M54.7,24h-6l3-7.6L54.7,24z
		 M66.6,33.8H72V16.3h0.1l10.7,17.4h7.1V9.3h-5.4v17h-0.1l-10.5-17h-7.3V33.8z M94,33.8h8.8c7.3,0,13.8-4.3,13.8-12.2
		c0-9-6.6-12.4-14.5-12.4H94V33.8z M99.4,14.2h3.2c4.6,0,8.4,2.3,8.4,7.1c0,5.6-3.8,7.5-8.8,7.5h-2.8C99.4,28.8,99.4,14.2,99.4,14.2
		z"/>
</g>
<g>
	<path class="st0" d="M120.6,3.1h1.3c0.7,0,1.4,0.1,1.4,1c0,1-0.8,1-1.6,1h-1L120.6,3.1L120.6,3.1z M119.6,8.5h1V5.8h1l1.7,2.7h1
		l-1.8-2.8c0.9-0.1,1.6-0.6,1.6-1.7c0-1.2-0.7-1.8-2.2-1.8h-2.4L119.6,8.5L119.6,8.5z M117.2,5.4c0-2.6,1.9-4.6,4.4-4.6
		s4.4,2,4.4,4.6S124,10,121.5,10C119.2,10,117.2,8,117.2,5.4 M116.3,5.4c0,3.1,2.5,5.4,5.4,5.4c2.9,0,5.4-2.3,5.4-5.4
		c0-3-2.5-5.4-5.4-5.4C118.7,0.1,116.3,2.4,116.3,5.4"/>
</g>
<path class="st0" d="M105.8,72.1H11.7c-6.2,0-11.4,5.1-11.4,11.4v0c0,6.2,5.1,11.4,11.4,11.4h94.1c6.2,0,11.4-5.1,11.4-11.4v0
	C117.2,77.2,112.1,72.1,105.8,72.1z M104.9,78.6v3.6l-0.9,0.9l-0.9-0.9v-3.6l0.9-0.9L104.9,78.6z M102.9,76.6l0.9,0.9l-0.9,0.9h-3.6
	l-1.7-1.9L102.9,76.6z M97.4,76.5l1.8,2.1v3.6l-0.9,0.9l-0.9-0.9V76.5z M89.5,76.6h3.6l0.9,0.9l-0.9,0.9h-3.6l-0.9-0.9L89.5,76.6z
	 M68.9,76.6h3.6l0.9,0.9l-0.9,0.9h-3.6L68,77.5L68.9,76.6z M66.9,78.6l0.9-0.9l0.9,0.9v3.6l-0.9,0.9l-0.9-0.9V78.6z M58.1,77.5
	l0.9-0.9l0.9,0.9v4.2L59,82.6l-0.9-0.9V77.5z M48.4,77.5l0.9-0.9l0.9,0.9v4.7l-0.9,0.9l-0.9-0.9V77.5z M22.9,76.6h3.6l0.9,0.9
	l-0.9,0.9h-3.6L22,77.5L22.9,76.6z M12.2,78.6l0.9-0.9l0.9,0.9v3.6l-0.9,0.9l-0.9-0.9V78.6z M12.2,88.1v-3.6l0.9-0.9l0.9,0.9v3.6
	L13.1,89L12.2,88.1z M17.8,90.1h-3.6l-0.9-0.9l0.9-0.9h3.6l0.9,0.9L17.8,90.1z M17.8,78.4h-3.6l-0.9-0.9l0.9-0.9h3.6l0.9,0.9
	L17.8,78.4z M20.9,78.6l0.9-0.9l0.9,0.9v3.6l-0.9,0.9l-0.9-0.9V78.6z M22.8,89.2l-0.9,0.9L21,89.2v-4.7l0.9-0.9l0.9,0.9V89.2z
	 M22.9,84.2L22,83.3l0.9-0.9h3.6l0.9,0.9l-0.9,0.9H22.9z M28.5,89.2l-0.9,0.9l-0.9-0.9v-4.7l0.9-0.9l0.9,0.9V89.2z M28.5,82.2
	l-0.9,0.9l-0.9-0.9v-3.6l0.9-0.9l0.9,0.9V82.2z M30.7,77.5l0.9-0.9l0.9,0.9v4.2l-0.9,0.9l-0.9-0.9V77.5z M30.8,88.2V84l0.9-0.9
	l0.9,0.9v4.2l-0.9,0.9L30.8,88.2z M36.3,90.1h-3.6l-0.9-0.9l0.9-0.9h3.6l0.9,0.9L36.3,90.1z M39.5,78.6l0.9-0.9l0.9,0.9v3.6
	l-0.9,0.9l-0.9-0.9V78.6z M39.6,88.1v-3.6l0.9-0.9l0.9,0.9v3.6L40.5,89L39.6,88.1z M45.2,90.2h-3.6l-0.9-0.9l0.8-1h3.7l0.9,0.9
	L45.2,90.2z M45.2,78.4h-3.6l-0.9-0.9l0.8-0.9h3.7l0.9,0.9L45.2,78.4z M48.3,88.1v-3.6l0.9-0.9l0.9,0.9v3.6L49.2,89L48.3,88.1z
	 M53.9,90.1h-3.6l-0.9-0.9l0.9-0.9h3.6l0.9,0.9L53.9,90.1z M55.8,88.1L54.9,89L54,88.1v-3.6l0.9-0.9l0.9,0.9V88.1z M55.8,82.2
	l-0.9,0.9L54,82.2v-4.7l0.9-0.9l0.9,0.9V82.2z M58.1,88.1v-4.2L59,83l0.9,1v4.2L59,89.1L58.1,88.1z M63.7,90.1h-3.6l-1-0.9l1-0.9
	h3.6l0.9,0.9L63.7,90.1z M68.7,89.2l-0.9,0.9l-0.9-0.9v-4.7l0.9-0.9l0.9,0.9V89.2z M68.8,84.2l-0.9-0.9l0.9-0.9h3.6l0.9,0.9
	l-0.9,0.9H68.8z M74.5,89.2l-0.9,0.9l-0.9-0.9v-4.7l0.9-0.9l0.9,0.9V89.2z M74.5,82.2l-0.9,0.9l-0.9-0.9v-3.6l0.9-0.9l0.9,0.9V82.2z
	 M77.6,78.4l-0.9-0.9l0.9-0.9h2.2l0.9,0.9l-0.9,0.9H77.6z M80.1,78.6l0.9-0.9l0.9,0.9v3.6L81,83.1l-0.9-0.9V78.6z M82,89.1L81.1,90
	l-0.9-0.9v-4.6l0.9-0.9l0.9,0.9V89.1z M84.4,78.4h-2.2l-0.9-0.9l0.9-0.9h2.2l0.9,0.9L84.4,78.4z M87.6,78.6l0.9-0.9l0.9,0.9v3.6
	l-0.9,0.9l-0.9-0.9V78.6z M87.6,88.1v-3.6l0.9-0.9l0.9,0.9v3.6L88.5,89L87.6,88.1z M93.1,90.1h-3.6l-0.9-0.9l0.9-0.9h3.6l0.9,0.9
	L93.1,90.1z M95.1,88.1L94.2,89l-0.9-0.9v-3.6l0.9-0.9l0.9,0.9V88.1z M95.1,82.2l-0.9,0.9l-0.9-0.9v-3.6l0.9-0.9l0.9,0.9V82.2z
	 M99.2,89.2l-0.9,0.9l-0.9-0.9v-4.7l0.9-0.9l0.9,0.9V89.2z M98.4,83.3l0.9-0.9h3.6l0.9,0.9l-0.9,0.9h-3.6L98.4,83.3z M105.3,90.2
	H104l-3.7-4.3v-1.3h1.3l3.7,4.3V90.2z"/>
</svg>
