<svg xmlns="http://www.w3.org/2000/svg" viewBox="0 0 325.98 176.2"><defs><style>.cls-1{fill:#0f6cb2;}.cls-1,.cls-2,.cls-3{fill-rule:evenodd;}.cls-2{fill:#1e88e5;}.cls-3{fill:#f57c00;}.cls-4{fill:#404041;}</style></defs><title>kojaro-logo</title><g id="Layer_2" data-name="Layer 2"><g id="Layer_1-2" data-name="Layer 1"><polygon class="cls-1" points="42.64 73.5 9.13 102.48 57.84 74.53 73.99 56.47 45.14 62.57 0 79.85 42.64 73.5"/><polygon class="cls-2" points="76.97 36.05 57.84 74.53 110.34 69.84 103.61 54.04 110.32 40.06 98.77 23.77 76.97 36.05"/><polygon class="cls-1" points="76.97 36.05 19.99 0 98.77 23.77 76.97 36.05"/><polygon class="cls-2" points="127.74 57.44 120.88 53.19 103.61 54.04 57.84 74.53 108.44 65.4 128.18 61.85 136.3 59.11 127.74 57.44"/><path class="cls-3" d="M128.18,61.85c-9,14.84-29,13.27-70.34,12.68Z"/><path class="cls-4" d="M59.61,131.65a15.08,15.08,0,0,0,1.24,6.1,16.38,16.38,0,0,0,3.39,5,16.91,16.91,0,0,0,5,3.36,15.29,15.29,0,0,0,12.24,0,16.92,16.92,0,0,0,5-3.36,16.38,16.38,0,0,0,3.39-5,15.11,15.11,0,0,0,1.28-6.1,15.29,15.29,0,0,0-1.28-6.13,15.83,15.83,0,0,0-3.39-5,16.38,16.38,0,0,0-5-3.39,15.71,15.71,0,0,0-12.24,0,16.38,16.38,0,0,0-5,3.39,15.83,15.83,0,0,0-3.39,5,15.26,15.26,0,0,0-1.24,6.13Zm-11.69,0a27.3,27.3,0,0,1,8-19.42,28.81,28.81,0,0,1,8.71-5.88,27.76,27.76,0,0,1,21.46,0,28.06,28.06,0,0,1,8.63,5.88,27.06,27.06,0,0,1,8,19.42,27,27,0,0,1-2.15,10.74,27.52,27.52,0,0,1-14.5,14.53,27.77,27.77,0,0,1-21.46,0A28.71,28.71,0,0,1,56,151.08a27.47,27.47,0,0,1-5.86-8.69,26.4,26.4,0,0,1-2.19-10.74Z"/><path class="cls-4" d="M91.12,171v0l-1.17.77a33.38,33.38,0,0,1-7.11,3.14,37.12,37.12,0,0,1-10.16,1.35V164.48a20,20,0,0,0,7.14-1.24,18.94,18.94,0,0,0,5.83-3.43,16.46,16.46,0,0,0,4-5,13.23,13.23,0,0,0,1.49-6.1V113.51l11.66,18V142c0,13.55-3,23.23-11.66,29Z"/><path class="cls-4" d="M267.8,156.89H177.35a35.51,35.51,0,0,1-10.16-1.35,34.29,34.29,0,0,1-7.1-3.11c-.4-.25-.8-.51-1.17-.77h0c-8.63-5.8-11.69-15.48-11.69-29V86.15h11.69v43.2a13.07,13.07,0,0,0,1.46,6.1,16,16,0,0,0,4,5,19.14,19.14,0,0,0,5.87,3.43,19.84,19.84,0,0,0,7.14,1.28H267.8Z"/><path class="cls-4" d="M124.23,171v0l-1.16.77a32.61,32.61,0,0,1-7.11,3.14,37.12,37.12,0,0,1-10.16,1.35V164.48a20,20,0,0,0,7.14-1.24,19.15,19.15,0,0,0,5.87-3.43,17,17,0,0,0,4-5,13.67,13.67,0,0,0,1.46-6.1V116.06h11.66V142c0,13.55-3,23.23-11.66,29Z"/><path class="cls-4" d="M243.11,127.75h0c.26.4.51.76.76,1.17a32.7,32.7,0,0,1,3.1,7.12c.91,3.1,1.38,9.42,1.38,13.11h-11.7c0-2.55-.4-7.85-1.24-10.08a20.59,20.59,0,0,0-3.42-5.84,16.21,16.21,0,0,0-5.06-4,13.46,13.46,0,0,0-6.08-1.46h-26V116.06h19.31c13.48,0,23.13,3,29,11.69Z"/><rect class="cls-4" x="236.59" y="164.45" width="11.73" height="11.76"/><polygon class="cls-2" points="293.45 112.52 319.61 86.3 303.07 86.3 285.18 104.23 285.18 104.23 276.95 112.52 309.48 145.2 325.98 145.2 293.45 112.52"/><rect class="cls-4" x="248.64" y="145.2" width="77.34" height="11.69"/></g></g></svg>