<?xml version="1.0" encoding="utf-8"?>
<!-- Generator: Adobe Illustrator 23.0.4, SVG Export Plug-In . SVG Version: 6.00 Build 0)  -->
<svg version="1.1" id="Layer_1" xmlns="http://www.w3.org/2000/svg" xmlns:xlink="http://www.w3.org/1999/xlink" x="0px" y="0px"
	 viewBox="0 0 67.3 12.5" style="enable-background:new 0 0 67.3 12.5;" xml:space="preserve">
<style type="text/css">
	.st0{fill-rule:evenodd;clip-rule:evenodd;fill:#B92F30;}
</style>
<path class="st0" d="M0,0h3v4.1h2.4V0h3v9.9h-3V5.3H3v4.5H0V0z M14.2,4.1c-0.2-0.6-0.6-0.9-1.1-0.8c-0.2,0-0.5,0.3-0.7,0.8
	c-0.2,0.5-0.2,1.4-0.2,2.6c0,1.3,0.1,1.7,0.4,2.1c0.3,0.4,0.8,0.6,1.2,0.3c0.4-0.3,0.5-1,0.6-1.4c0-0.2,0-1.4,0-2.4
	C14.4,4.7,14.3,4.3,14.2,4.1 M13.2,2.4c0,0-0.3,0-0.8,0.1C11.9,2.6,10.8,2.8,9.9,4C9.1,5.1,9.2,6.6,9.4,7.4c0.2,0.8,0.7,1.4,1.4,2
	c0.7,0.5,1.7,0.7,2.5,0.7c0.8,0,1.6-0.1,2.1-0.4c0.5-0.3,1.3-0.8,1.7-1.9c0.4-1.1,0.3-2.5-0.2-3.4C16.3,3.3,15.7,3,15,2.7
	C14.2,2.4,13.2,2.4,13.2,2.4 M21,4.7c-0.1-0.1,0.3-0.5,0.7-0.7c0.4-0.2,0.8-0.1,1,0.1c0.2,0.3,0.2,0.6,0.2,0.7v5h2.8l0-5.4
	c0-0.3-0.2-1.2-1.2-1.7c-1-0.4-2-0.2-2.6,0.1C21.4,3.1,21,3.6,21,3.6v-1h-2.8v7.1l2.8,0V4.7 M27,4.4c-0.6,1.1-0.5,2.5-0.2,3.1
	c0.2,0.6,0.5,1.2,1.2,1.7c1.1,0.9,2.5,0.9,3.5,0.8c1-0.1,1.9-0.6,2.4-1.1c0.5-0.5,0.5-1.2,0.5-1.2l-1.2,0c0,0,0,1.1-1.5,1.3
	c-1.4,0.2-1.8-0.4-1.9-0.5c-0.1-0.2-0.2-0.4-0.2-0.4V6.7l5.1,0c0,0,0.1-1.3-0.4-2.3c-0.6-1.2-1.6-1.8-3.4-1.9
	C29,2.3,27.6,3.2,27,4.4 M31.7,5.7c0,0,0-0.2,0-0.6c0-0.4-0.1-0.8-0.1-0.9c0-0.1-0.1-0.4-0.4-0.7c-0.3-0.3-0.8-0.3-1.1-0.1
	c-0.2,0.2-0.5,0.5-0.5,1c-0.1,0.4-0.1,1.4-0.1,1.4H31.7z M52.6,4.4c-0.6,1.1-0.5,2.5-0.3,3.1c0.2,0.6,0.5,1.2,1.2,1.7
	c1.1,0.9,2.5,0.9,3.5,0.8c1-0.1,1.9-0.6,2.4-1.1C59.9,8.5,60,7.8,60,7.8l-1.2,0c0,0,0,1.1-1.5,1.3c-1.4,0.2-1.8-0.4-2-0.5
	c-0.1-0.2-0.2-0.4-0.2-0.4V6.7l5.1,0c0,0,0.1-1.3-0.4-2.3c-0.6-1.2-1.6-1.8-3.4-1.9C54.6,2.3,53.2,3.2,52.6,4.4 M57.3,5.7
	c0,0,0-0.2,0-0.6c0-0.4-0.1-0.8-0.1-0.9c0-0.1-0.1-0.4-0.4-0.7c-0.3-0.3-0.8-0.3-1.1-0.1c-0.2,0.2-0.5,0.5-0.5,1
	c-0.1,0.4-0.1,1.4-0.1,1.4H57.3z M37.2,10c0,0,0,0.1-0.1,0.3c-0.1,0.2-0.3,0.7-0.6,1.1c-0.3,0.4-0.7,0.3-0.7,0.3s0.2-0.1,0.2-0.3
	c0.1-0.2,0.1-0.6-0.1-0.9c-0.2-0.3-0.6-0.6-1.3-0.5c-0.7,0.1-1,0.7-0.9,1.3c0.1,0.6,0.4,1.1,1.4,1.3c1,0.2,1.5-0.2,2.1-0.6
	c0.5-0.5,1-1.7,1-1.7l3-7.3l2.1,6.9h2.4l1.1-4.2l1.3,4.2h2.3l2-7.1h-1.3l-1.1,4l-1.2-4h-2.5l-1.1,4l-1.2-4l-3.9,0l-1.4,3.4l-1.3-3.4
	h-3.1L37.2,10z M61,9.8h2.7V0H61V9.8z M64.6,9.8h2.7V0h-2.7V9.8z"/>
</svg>
