<?xml version="1.0" encoding="utf-8"?>
<!-- Generator: Adobe Illustrator 23.0.4, SVG Export Plug-In . SVG Version: 6.00 Build 0)  -->
<svg version="1.1" id="Layer_1" xmlns="http://www.w3.org/2000/svg" xmlns:xlink="http://www.w3.org/1999/xlink" x="0px" y="0px"
	 viewBox="0 0 83.1 13.2" style="enable-background:new 0 0 83.1 13.2;" xml:space="preserve">
<style type="text/css">
	.st0{fill:#568E8E;}
</style>
<g id="Ebene_x0020_1">
	<path class="st0" d="M82.1,0.5v2.5c-1.3-0.5-2.4-0.7-3.4-0.7c-0.6,0-1.1,0.1-1.4,0.3C77,2.7,76.8,3,76.8,3.3c0,0.4,0.4,0.8,1.2,1.1
		l2.3,1.1c1.9,0.9,2.8,2.1,2.8,3.6c0,1.2-0.5,2.2-1.5,3c-1,0.7-2.3,1.1-4,1.1c-0.8,0-1.5,0-2.1-0.1c-0.6-0.1-1.3-0.2-2.1-0.4v-2.6
		c1.4,0.5,2.7,0.7,3.9,0.7c1.4,0,2.1-0.4,2.1-1.2c0-0.4-0.3-0.7-0.9-1L76,7.5c-1-0.4-1.7-1-2.1-1.6c-0.5-0.6-0.7-1.3-0.7-2.2
		c0-1.1,0.5-2.1,1.4-2.8c1-0.7,2.2-1,3.8-1c0.5,0,1.1,0,1.8,0.1C80.9,0.2,81.5,0.3,82.1,0.5L82.1,0.5z"/>
	<path class="st0" d="M8.9,0.5v2.5C7.7,2.5,6.5,2.2,5.5,2.2c-0.6,0-1.1,0.1-1.4,0.3C3.7,2.7,3.6,3,3.6,3.3c0,0.4,0.4,0.8,1.2,1.1
		l2.3,1.1C9,6.5,9.9,7.6,9.9,9.1c0,1.2-0.5,2.2-1.5,3c-1,0.7-2.3,1.1-4,1.1c-0.8,0-1.5,0-2.1-0.1c-0.6-0.1-1.3-0.2-2.1-0.4v-2.6
		c1.4,0.5,2.7,0.7,3.9,0.7c1.4,0,2.1-0.4,2.1-1.2c0-0.4-0.3-0.7-0.9-1L2.8,7.5c-1-0.4-1.7-1-2.1-1.6C0.2,5.3,0,4.6,0,3.8
		C0,2.7,0.5,1.7,1.4,1c1-0.7,2.2-1,3.8-1C5.8,0,6.4,0,7,0.1C7.7,0.2,8.3,0.3,8.9,0.5z"/>
	<polygon class="st0" points="11.6,0.2 15.4,0.2 15.4,13 11.6,13 	"/>
	<polygon class="st0" points="27.6,0.2 27.6,2.6 22,2.6 22,5.4 26.9,5.4 26.9,7.5 22,7.5 22,10.5 27.7,10.5 27.7,13 18.3,13 
		18.3,0.2 	"/>
	<polygon class="st0" points="45.3,0.2 45.3,13 41.8,13 41.8,4.6 38.1,13.1 35.9,13.1 32.4,4.6 32.4,13 29.8,13 29.8,0.2 34.4,0.2 
		37.6,8 40.9,0.2 	"/>
	<polygon class="st0" points="57.5,0.2 57.5,2.6 51.9,2.6 51.9,5.4 56.8,5.4 56.8,7.5 51.9,7.5 51.9,10.5 57.6,10.5 57.6,13 
		48.2,13 48.2,0.2 	"/>
	<polygon class="st0" points="70.8,0.2 70.8,13 66.8,13 62.3,4.8 62.3,13 59.7,13 59.7,0.2 63.9,0.2 68.3,8.3 68.3,0.2 	"/>
</g>
</svg>
