<?xml version="1.0" encoding="utf-8"?>
<!-- Generator: Adobe Illustrator 23.0.4, SVG Export Plug-In . SVG Version: 6.00 Build 0)  -->
<svg version="1.1" id="Layer_1" xmlns="http://www.w3.org/2000/svg" xmlns:xlink="http://www.w3.org/1999/xlink" x="0px" y="0px"
	 viewBox="0 0 47.6 47.6" style="enable-background:new 0 0 47.6 47.6;" xml:space="preserve">
<style type="text/css">
	.st0{fill:#FFFFFF;}
</style>
<g>
	<g>
		<g>
			<path class="st0" d="M23.8,39.3c-8.6,0-15.5-7-15.5-15.5s7-15.5,15.5-15.5c8.6,0,15.5,7,15.5,15.5S32.4,39.3,23.8,39.3z
				 M23.8,9.8c-7.7,0-14,6.3-14,14s6.3,14,14,14c7.7,0,14-6.3,14-14S31.5,9.8,23.8,9.8z"/>
		</g>
		<g>
			<path class="st0" d="M28.6,33.7c-1.9,0-3.5-1.6-3.5-3.5c0-1.9,1.5-3.5,3.5-3.5c1.9,0,3.5,1.5,3.5,3.5
				C32,32.1,30.5,33.7,28.6,33.7z M28.6,28.1c-1.2,0-2.1,0.9-2.1,2.1c0,1.2,0.9,2.1,2.1,2.1c1.2,0,2.1-0.9,2.1-2.1
				C30.7,29.1,29.7,28.1,28.6,28.1z M19.5,33.7c-1.9,0-3.5-1.5-3.5-3.5c0-1.9,1.5-3.5,3.5-3.5c1.9,0,3.5,1.5,3.5,3.5
				C22.9,32.1,21.4,33.7,19.5,33.7z M19.5,28.1c-1.2,0-2.1,0.9-2.1,2.1c0,1.2,0.9,2.1,2.1,2.1c1.2,0,2.1-0.9,2.1-2.1
				C21.6,29.1,20.6,28.1,19.5,28.1z M30.9,25.7c-1.9,0-3.5-1.5-3.5-3.5c0-1.9,1.6-3.5,3.5-3.5c1.9,0,3.5,1.5,3.5,3.5
				C34.4,24.1,32.8,25.7,30.9,25.7z M30.9,20.1c-1.2,0-2.1,0.9-2.1,2.1c0,1.2,0.9,2.1,2.1,2.1c1.2,0,2.1-0.9,2.1-2.1
				C33,21.1,32.1,20.1,30.9,20.1z M16.7,25.7c-1.9,0-3.5-1.5-3.5-3.5c0-1.9,1.5-3.5,3.5-3.5c1.9,0,3.5,1.5,3.5,3.5
				C20.1,24.1,18.6,25.7,16.7,25.7z M16.7,20.1c-1.2,0-2.1,0.9-2.1,2.1c0,1.2,0.9,2.1,2.1,2.1c1.2,0,2.1-0.9,2.1-2.1
				C18.8,21.1,17.8,20.1,16.7,20.1z M24,19.5c-1.9,0-3.5-1.5-3.5-3.5c0-1.9,1.5-3.5,3.5-3.5s3.5,1.5,3.5,3.5
				C27.5,17.9,25.9,19.5,24,19.5z M24,13.9c-1.2,0-2.1,0.9-2.1,2.1c0,1.2,0.9,2.1,2.1,2.1s2.1-0.9,2.1-2.1
				C26.1,14.9,25.2,13.9,24,13.9z"/>
		</g>
	</g>
	<path class="st0" d="M47.6,23.8C47.6,37,37,47.6,23.8,47.6S0,37,0,23.8S10.7,0,23.8,0S47.6,10.7,47.6,23.8z M46.2,23.8
		c0-12.4-10-22.4-22.4-22.4S1.4,11.5,1.4,23.8c0,12.4,10,22.4,22.4,22.4S46.2,36.2,46.2,23.8z"/>
</g>
</svg>
